<svg width="229" height="52" viewBox="0 0 229 52" fill="none" xmlns="http://www.w3.org/2000/svg">
    <g clip-path="url(#clip0_1930_10860)">
        <path d="M164.569 41.0643C164.689 40.5054 165.367 39.4676 165.928 38.549C166.686 37.3902 167.765 35.8735 169.002 34.1166C170.44 32.0801 172.197 29.7642 174.073 27.2472C171.437 26.8484 168.922 25.2517 169.281 23.0141C169.32 22.6955 169.6 22.4944 169.961 22.5353C170.28 22.5745 170.479 22.8948 170.44 23.2135C170.2 24.6518 172.437 25.9691 174.913 26.1685C176.031 24.7302 177.149 23.2135 178.308 21.736C182.461 16.3458 186.894 10.7938 190.169 6.96117C188.932 6.68169 187.493 6.5624 185.975 6.5624C185.097 6.5624 184.179 6.6016 183.26 6.68169C176.791 7.28155 169.324 10.0763 164.133 14.6281C160.42 17.9017 158.981 21.0578 158.981 23.3737C158.981 23.8134 159.062 24.2513 159.142 24.6109C159.581 26.4088 161.139 27.6869 163.535 27.6869C164.133 27.6869 164.813 27.6068 165.53 27.4074C165.851 27.3273 166.17 27.5284 166.25 27.8471C166.33 28.1657 166.13 28.4861 165.81 28.5662C165.012 28.7656 164.252 28.8866 163.535 28.8866C160.699 28.8866 158.583 27.3682 157.985 24.933C157.865 24.4541 157.785 23.9344 157.785 23.4146C157.785 20.5789 159.503 17.1451 163.376 13.7113C168.767 8.99932 176.474 6.12444 183.143 5.48539C184.061 5.4053 184.939 5.3661 185.818 5.3661C187.696 5.3661 189.451 5.56548 191.05 5.96596C192.607 4.1289 193.845 2.8116 194.525 2.29184C194.765 2.09246 195.164 2.13165 195.363 2.41113C195.562 2.65141 195.523 3.05018 195.244 3.24956C194.685 3.68923 193.645 4.76795 192.289 6.36472C194.646 7.24235 196.401 8.72154 197.001 10.9574C197.2 11.6356 197.28 12.2747 197.28 12.9546C197.28 20.6215 185.5 27.2097 175.638 27.3699H175.518C173.441 30.0863 171.565 32.6408 170.007 34.8374C168.729 36.5552 167.691 38.0719 166.931 39.2307C165.974 40.7082 165.772 41.187 165.772 41.3063L165.692 41.5057C165.573 41.7051 165.374 41.8653 165.094 41.8244C164.776 41.7852 164.535 41.5057 164.576 41.1853V41.066L164.569 41.0643ZM191.444 7.32245C188.289 10.9966 183.737 16.6662 179.264 22.4569C178.306 23.6941 177.347 24.933 176.428 26.1702C185.852 25.6504 196.034 19.461 196.034 12.912C196.034 12.3531 195.995 11.8333 195.835 11.2743C195.317 9.39809 193.758 8.07908 191.444 7.32074V7.32245Z"
              fill="white"/>
        <path d="M191.121 31.7189C191.121 30.5601 191.721 29.1235 192.518 27.7653C193.796 25.5295 195.794 22.8932 198.029 20.2177C202.462 14.9059 207.893 9.51572 210.328 7.51848C210.568 7.31909 210.928 7.35829 211.167 7.59857C211.366 7.83885 211.327 8.23762 211.087 8.437C208.73 10.3542 203.38 15.7051 198.946 21.0152C196.75 23.6515 194.793 26.2469 193.556 28.3635C192.958 29.4013 192.557 30.3198 192.397 31.039C192.198 31.7581 192.317 32.1569 192.477 32.3171C193.036 32.9169 194.834 32.1569 196.871 30.9197C199.706 29.2036 202.98 26.6065 204.098 25.809C204.377 25.6488 204.737 25.6897 204.936 25.9692C205.136 26.2486 205.056 26.6491 204.776 26.8076C203.418 27.7261 200.303 30.2823 197.389 31.9984C195.751 32.9561 194.273 33.7144 193.075 33.7144C192.517 33.7144 191.997 33.5151 191.598 33.1163C191.238 32.7567 191.119 32.2779 191.119 31.7189H191.121Z"
              fill="white"/>
        <path d="M201.742 30.163C201.424 29.8034 201.303 29.4439 201.303 29.0451C201.303 28.6054 201.463 28.1266 201.782 27.7278C202.26 27.0087 203.14 26.3304 204.178 25.8107C205.456 25.1716 207.093 24.7319 208.729 24.7319C209.609 24.7319 210.486 24.8512 211.366 25.1716L211.764 25.3318H211.804L212.761 24.6518L212.801 24.6126L212.881 24.5735C212.961 24.4934 213 24.4542 213.041 24.4542V24.415C213.641 23.9753 214.358 24.8546 213.799 25.3335L213.68 25.4528L213.561 25.5329L213.521 25.5721C213.121 25.9316 212.323 26.6508 211.724 27.4091C211.284 27.9289 211.045 28.3669 211.045 28.6872C211.006 28.8082 211.045 28.8474 211.045 28.8866C211.084 28.9258 211.165 29.0059 211.444 29.086C212.363 29.3263 214.08 28.8457 215.996 27.9681C217.792 27.1688 219.39 26.1719 219.908 25.8124C220.188 25.613 220.548 25.6522 220.747 25.9316C220.946 26.1719 220.907 26.5707 220.628 26.7701C220.029 27.2097 218.312 28.2476 216.475 29.086C214.718 29.8835 212.521 30.6436 211.124 30.2448C210.205 29.9653 209.726 29.3263 209.846 28.527C209.885 28.2868 209.965 28.0482 210.045 27.8079L210.084 27.7278L209.166 28.2459L208.247 28.7247C207.01 29.3638 205.691 29.9227 204.614 30.2823C203.695 30.5618 202.497 30.8413 201.858 30.2823L201.737 30.163H201.742ZM204.258 29.1252C205.256 28.8065 206.494 28.2868 207.692 27.6477C208.61 27.208 209.529 26.69 210.328 26.2094L210.447 26.1293L210.128 26.0492C209.689 25.9691 209.21 25.9299 208.731 25.9299C207.293 25.9299 205.895 26.3304 204.738 26.8877C203.781 27.3665 203.101 27.9255 202.741 28.4452C202.581 28.6855 202.422 29.0042 202.542 29.2445L202.622 29.3246C202.622 29.3638 202.702 29.4047 203.061 29.4047C203.382 29.3655 203.781 29.2854 204.259 29.1252H204.258Z"
              fill="white"/>
        <path d="M212.683 45.2155C215.439 39.5459 218.953 34.7539 221.827 31.1598C222.345 30.4816 222.906 29.8425 223.385 29.2427L223.465 29.1626L223.186 29.3228C222.228 29.8817 221.149 30.4015 220.231 30.4015C219.791 30.4015 219.431 30.2822 219.113 30.001C218.753 29.6823 218.634 29.2819 218.634 28.8439C218.634 27.9646 219.193 26.9268 219.672 26.2485C220.471 25.0897 221.669 23.8525 222.547 23.6122C222.867 23.5321 223.186 23.6923 223.266 24.011C223.346 24.3297 223.186 24.6892 222.867 24.7693C222.707 24.8085 222.347 25.0488 221.909 25.4493C221.47 25.848 221.03 26.3678 220.631 26.9268C220.272 27.4857 219.992 28.0055 219.873 28.4434C219.753 28.9223 219.834 29.0825 219.912 29.1234C219.992 29.2035 220.272 29.2836 220.911 29.0842C221.55 28.8848 222.308 28.4843 223.107 27.9663C224.745 26.8876 226.422 25.33 227.379 24.132C227.819 23.573 228.658 24.0928 228.417 24.7301C228.177 25.33 227.419 26.2877 226.461 27.4056C225.462 28.6036 224.186 30.122 222.748 31.9182C219.912 35.473 216.478 40.1832 213.763 45.7353C213.642 46.0148 213.285 46.1341 212.964 46.0148C212.685 45.8546 212.565 45.4967 212.685 45.2155H212.683Z"
              fill="white"/>
        <path d="M43.8006 3.82067V46.5723L33.8809 52V0L43.8006 3.82067Z" fill="white"/>
        <path d="M24.239 7.28508V19.9792H16.584V4.34033L24.239 7.28508Z" fill="white"/>
        <path d="M16.584 30.6216H24.239V41.5877L16.584 45.7799V30.6216Z" fill="white"/>
        <path d="M7.65498 12.7639V37.1399L0 41.327V9.81409L7.65498 12.7639Z" fill="white"/>
        <path d="M56.9297 13.5225H63.2384V22.0414H71.3347V13.5225H77.6435V36.2846H71.3347V27.6344H63.2384V36.2846H56.9297V13.5225Z"
              fill="white"/>
        <path d="M81.6758 13.5225H99.9833V18.8547H87.9197V22.3345H98.845V27.3089H87.9197V30.9183H100.147V36.2829H81.6775V13.5225H81.6758Z"
              fill="white"/>
        <path d="M103.396 13.5225H114.16C117.64 13.5225 120.046 14.4325 121.574 15.9611C122.907 17.2937 123.59 19.0183 123.59 21.2609V21.3257C123.59 24.8379 121.736 27.147 118.908 28.3484L124.339 36.2829H117.088L112.502 29.3897H109.705V36.2829H103.396V13.5225ZM113.899 24.4477C116.012 24.4477 117.28 23.4064 117.28 21.7483V21.6836C117.28 19.8618 115.947 18.9518 113.867 18.9518H109.705V24.4477H113.899Z"
              fill="white"/>
        <path d="M126.777 13.5225H145.085V18.8547H133.021V22.3345H143.947V27.3089H133.021V30.9183H145.248V36.2829H126.779V13.5225H126.777Z"
              fill="white"/>
        <path d="M148.498 13.5225H154.807V30.7564H165.831V36.2846H148.5V13.5225H148.498Z" fill="white"/>
    </g>
    <defs>
        <clipPath id="clip0_1930_10860">
            <rect width="228.462" height="52" fill="white"/>
        </clipPath>
    </defs>
</svg>
