<svg width="151" height="52" viewBox="0 0 151 52" fill="none" xmlns="http://www.w3.org/2000/svg">
    <g id="SVG">
        <path id="Vector" opacity="0.87"
              d="M12.2691 6.98469C4.18254 6.98469 0.18457 10.7543 0.18457 17.0032V44.3896H7.1233V33.8683C8.5473 35.1543 10.9379 35.7973 14.2929 35.7973C21.141 35.7973 24.4076 32.2133 24.4076 25.9622V17.001C24.4033 10.75 20.4053 6.98253 12.2713 6.98253L12.2691 6.98469ZM17.4624 25.097C17.4624 28.2689 15.7169 29.8764 12.2691 29.8764C8.82131 29.8764 7.1233 28.2624 7.1233 25.097V17.8771C7.1233 14.7052 8.82347 13.0976 12.2691 13.0976C15.7147 13.0976 17.4624 14.7073 17.4624 17.8771V25.097ZM67.5222 6.98469C59.8024 6.98469 55.8045 11.0283 55.8045 16.9083V25.9148C55.8045 31.7968 59.8024 35.7952 67.4769 35.7952C75.1514 35.7952 79.0113 31.7968 79.0113 25.9148V24.3547H72.3487V25.1811C72.3487 28.1675 70.7392 29.6844 67.4834 29.6844C64.2276 29.6844 62.6181 28.1675 62.6181 25.0883V17.6894C62.6181 14.6102 64.2708 13.0933 67.5352 13.0933C70.7996 13.0933 72.3595 14.6102 72.3595 17.5966V18.5158H79.022V16.9083C79.0134 11.0262 75.0154 6.98037 67.5244 6.98037L67.5222 6.98469ZM106.421 7.44429H98.6537L92.7722 17.739H89.277V0H82.3382V35.3874H89.277V23.6211H92.5435L98.8371 35.3874H106.833L98.6084 20.9562L106.421 7.44429ZM119.906 6.98469C111.865 6.98469 107.681 10.8018 107.681 16.9083V25.9644C107.681 32.0774 111.77 35.7995 119.906 35.7995C128.042 35.7995 132.083 32.3535 132.083 27.436V26.5168H125.371V26.7477C125.371 29.0004 123.578 30.1483 119.949 30.1483C116.32 30.1483 114.389 28.5861 114.389 25.507V23.3017H132.081V16.9147C132.085 10.7112 127.949 6.98685 119.908 6.98685L119.906 6.98469ZM125.371 18.7985H114.389V17.3679C114.389 14.1959 116.227 12.6337 119.904 12.6337C123.58 12.6337 125.371 14.1959 125.371 17.3204V18.7985ZM147.303 29.365C143.676 29.365 142.437 28.2193 142.437 23.9879V13.0049H150.019V7.44214H142.437V1.70032H135.499V24.4496C135.499 32.3082 138.349 35.4327 145.699 35.4327H150.202V29.3672H147.303V29.365ZM47.0879 7.4594C44.6865 7.15947 42.2701 7.00627 39.8493 6.99764C38.8115 6.96311 37.4457 7.06884 36.0822 7.16378C34.889 7.24794 33.6959 7.33209 32.5135 7.56081C30.3991 7.97295 28.3883 10.4134 28.138 12.8668C27.7606 16.6375 27.6373 20.4293 27.7691 24.2166C27.864 26.9699 28.8241 29.2313 30.6321 31.0136C31.3571 31.7213 32.1575 32.3471 33.0184 32.8822C34.6215 33.8899 36.3109 34.6559 38.0261 35.3442C39.0896 35.7821 40.267 35.8602 41.379 35.5665C43.0964 35.1133 44.6887 34.2545 46.2788 33.4087C47.3878 32.8218 48.4105 32.0903 49.3253 31.2337C50.9284 29.7254 52.0179 27.8524 52.3071 25.4465C52.4193 24.5165 52.4473 23.5714 52.4689 22.6306C52.5401 19.4825 52.3783 16.3408 52.087 13.2098C51.8043 10.1609 49.7309 7.78306 47.0879 7.45724V7.4594ZM32.6797 11.1513C32.7638 11.0434 32.8631 10.9463 32.9753 10.8644C33.0616 10.8104 33.15 10.7651 33.2428 10.7241C33.286 10.6939 33.3313 10.6702 33.3809 10.6507C33.4758 10.6119 33.5923 10.5795 33.7045 10.5472C33.7649 10.5385 33.8232 10.5148 33.8901 10.5062L34.272 10.4608C34.3453 10.4608 34.4122 10.4479 34.492 10.4436C34.5719 10.4393 34.6517 10.435 34.7315 10.4436L40.1103 10.5925L45.4891 10.4436H45.7286C45.802 10.4436 45.8754 10.4587 45.9487 10.4608C46.076 10.4738 46.2163 10.4932 46.3306 10.5062C46.3975 10.5148 46.4557 10.5385 46.5162 10.5472C46.6283 10.5795 46.7405 10.6119 46.8398 10.6507C46.8884 10.67 46.9347 10.6946 46.9779 10.7241C47.0706 10.7651 47.1591 10.8104 47.2454 10.8644C47.3554 10.9463 47.4547 11.0413 47.541 11.1513C47.9229 11.639 47.9639 12.3511 47.7093 13.1904L47.5928 13.6198C47.5345 13.868 47.4914 14.1183 47.4612 14.3707C47.4223 14.6124 47.3986 14.8584 47.3921 15.1044C47.3738 15.4458 47.3738 15.7879 47.3921 16.1293C47.1354 16.1962 46.8506 16.2566 46.5442 16.3192C46.4967 15.8531 46.4816 15.3849 46.4989 14.9166C46.5097 14.6707 46.5313 14.4247 46.5679 14.1808C46.5979 13.9278 46.644 13.677 46.706 13.4299C46.7233 13.3695 46.7319 13.3113 46.7427 13.2508C46.898 12.6682 46.829 12.1417 46.5269 11.7792C46.2184 11.3671 45.6855 11.1751 44.9735 11.1923L40.1147 11.3585L35.2558 11.1923C34.5438 11.1729 34.0109 11.3671 33.7024 11.7792C33.3981 12.1417 33.3313 12.6682 33.4866 13.2508C33.4974 13.3113 33.506 13.3695 33.5233 13.4299C33.5859 13.6759 33.6312 13.9262 33.6614 14.1808C33.6981 14.4247 33.7196 14.6707 33.7304 14.9166C33.7477 15.3849 33.7347 15.8531 33.6851 16.3192L32.8372 16.1293C32.8544 15.7862 32.8501 15.4367 32.8372 15.1044C32.8315 14.8585 32.8084 14.6133 32.7681 14.3707C32.7379 14.1183 32.6948 13.868 32.6365 13.6198C32.5955 13.4666 32.5632 13.3328 32.52 13.1904C32.2482 12.3511 32.2892 11.6411 32.6732 11.1513H32.6775H32.6797ZM34.4834 14.8778C35.409 14.8713 36.1296 14.703 36.6496 14.3621C37.0012 14.1621 37.2686 13.8418 37.4026 13.4601C37.504 13.1947 37.5385 12.9056 37.4975 12.6251C37.4844 12.5249 37.4657 12.4254 37.4414 12.3273C37.4026 12.2216 37.3638 12.1094 37.3184 12.0058L40.1082 12.1137L42.8979 12.0058C42.8526 12.1115 42.8138 12.2237 42.7749 12.3273C42.7521 12.4257 42.7334 12.5251 42.7188 12.6251C42.68 12.9078 42.7124 13.1947 42.8138 13.4601C42.9478 13.8418 43.2152 14.1621 43.5668 14.3621C44.0867 14.703 44.8074 14.8713 45.733 14.8778C45.7135 15.4086 45.733 15.9394 45.7891 16.4681C43.9149 16.8025 42.011 16.9406 40.1082 16.8802C38.2052 16.9406 36.3022 16.8047 34.4273 16.4681C34.4812 15.9394 34.4985 15.4086 34.4748 14.8778H34.4791H34.4834ZM34.2849 13.2724C34.2849 13.2422 34.2806 13.2142 34.2741 13.1861C34.1835 12.8301 34.2223 12.5107 34.4057 12.2885C34.6085 12.0447 34.9516 11.913 35.4068 11.9389L36.4554 11.9691C36.6017 12.2214 36.6867 12.5044 36.7035 12.7956C36.7143 13.0156 36.6453 13.2336 36.5137 13.4084C36.4403 13.5184 36.3475 13.6155 36.2397 13.6889C35.8578 13.9759 35.2493 14.1118 34.4446 14.1183C34.4446 14.0924 34.4359 14.0729 34.4338 14.0449C34.4014 13.7838 34.3496 13.527 34.2806 13.2746H34.2849V13.2724ZM45.7891 14.0427C45.7891 14.0686 45.7804 14.0881 45.7783 14.1161C44.9735 14.1096 44.3651 13.9737 43.9832 13.6867C43.8742 13.6123 43.781 13.5169 43.7092 13.4062C43.5755 13.2307 43.5083 13.0137 43.5193 12.7934C43.5366 12.5021 43.6207 12.2194 43.7674 11.967L44.816 11.9368C45.2734 11.913 45.6143 12.0425 45.8171 12.2863C46.0005 12.5086 46.0393 12.8279 45.9466 13.184C45.9401 13.212 45.9358 13.2422 45.9358 13.2703C45.8667 13.5227 45.8171 13.7817 45.7826 14.0406H45.7869L45.7891 14.0427ZM49.7439 18.5201C49.7324 18.7689 49.6462 19.0085 49.4965 19.2075C49.3467 19.4065 49.1405 19.5557 48.9046 19.6357C43.1634 21.3252 37.0572 21.3252 31.3161 19.6357C31.0802 19.5557 30.8739 19.4065 30.7242 19.2075C30.5745 19.0085 30.4882 18.7689 30.4768 18.5201V17.2449C30.4768 16.768 30.8501 16.5112 31.3161 16.6472C37.0575 18.3345 43.1631 18.3345 48.9046 16.6472C49.3685 16.5112 49.7439 16.7702 49.7439 17.2449V18.5201Z"
              fill="#753FF6"/>
        <g id="Group" opacity="0.38">
            <path id="Vector_2"
                  d="M108.774 41.3477H110.401L110.023 43.5031C110.487 43.1579 111.059 42.9853 111.715 42.9853C112.492 42.9853 113.053 43.2118 113.409 43.6541C113.754 44.1072 113.862 44.6682 113.743 45.3478L113.365 47.46C113.096 49.0243 112.159 49.7471 110.207 49.7471C109.29 49.7471 108.61 49.5205 108.179 49.0566C107.747 48.5928 107.596 47.9994 107.725 47.2659L108.77 41.3477H108.774ZM112.095 45.5096C112.224 44.7652 111.89 44.3877 111.08 44.3877C110.271 44.3877 109.797 44.7652 109.667 45.5096L109.365 47.2033C109.236 47.9477 109.581 48.3252 110.39 48.3252C111.199 48.3252 111.661 47.9477 111.792 47.2033L112.095 45.5096ZM119.92 49.4256C119.618 51.1624 118.615 51.9046 116.848 51.9046H116.653C115.855 51.9046 115.229 51.6997 114.766 51.3005C114.302 50.9014 114.129 50.4051 114.248 49.8247L114.28 49.6845H115.823C115.726 50.2347 116.071 50.5367 116.837 50.5367C117.678 50.5367 118.164 50.1807 118.282 49.4795L118.423 48.7244C118.002 49.0156 117.495 49.1559 116.88 49.1559C116.114 49.1559 115.532 48.9401 115.154 48.5086C114.766 48.0771 114.625 47.5269 114.744 46.8602L115.402 43.1298H117.029L116.405 46.6445C116.287 47.3888 116.61 47.7556 117.396 47.7556C118.181 47.7556 118.669 47.3888 118.798 46.6445L119.413 43.1298H121.04L119.918 49.4256H119.92Z"
                  fill="#753FF6"/>
            <path id="Vector_3" fill-rule="evenodd" clip-rule="evenodd"
                  d="M128.053 47.8421L128.064 47.745C128.181 47.1387 127.907 46.8777 127.041 46.8777C126.176 46.8777 125.84 47.1387 125.734 47.745L125.712 47.8529C125.596 48.4592 125.976 48.731 126.724 48.731C127.473 48.731 127.958 48.3621 128.053 47.8421ZM130.996 47.3976L131.989 41.6283C131.997 41.578 132.024 41.5324 132.063 41.4996C132.102 41.4669 132.151 41.449 132.202 41.4492H133.357C133.475 41.4492 133.572 41.5463 133.572 41.665C133.572 41.6779 133.572 41.6887 133.57 41.7017L133.244 43.6154C133.646 43.3112 134.088 43.0954 134.899 43.0954C136.481 43.0954 137.102 44.1785 136.882 45.4688L136.513 47.5918C136.25 49.1409 135.374 49.8896 133.424 49.8896C131.59 49.8896 130.746 48.8389 130.998 47.3976H130.996ZM134.971 47.3329L135.266 45.6327C135.383 44.9617 135.128 44.5065 134.276 44.5065C133.424 44.5065 133.011 44.9617 132.895 45.6327L132.599 47.3329C132.483 48.0039 132.737 48.4592 133.6 48.4592C134.463 48.4592 134.856 48.0039 134.971 47.3329ZM143.374 46.9424H139.314L139.23 47.4624C139.135 48.0363 139.303 48.5562 140.315 48.5562C141.191 48.5562 141.612 48.2952 141.706 47.7536C141.713 47.7213 141.741 47.6997 141.771 47.6997H143.027C143.077 47.6997 143.126 47.7197 143.161 47.7553C143.197 47.7909 143.217 47.8392 143.217 47.8896V47.9176C142.995 49.197 142.121 49.8896 140.19 49.8896C138.259 49.8896 137.458 48.8173 137.702 47.4408L138.039 45.4364C138.323 43.8765 139.199 43.0954 141.15 43.0954C143.1 43.0954 143.86 44.1462 143.618 45.5551L143.376 46.9424H143.374ZM139.557 45.5443L139.506 45.8809H142.026L142.088 45.5335C142.205 44.8409 141.931 44.4288 141.022 44.4288C140.114 44.4288 139.672 44.8841 139.557 45.5443ZM147.066 47.9608C147.931 47.9608 148.33 47.5055 148.447 46.8561L148.647 45.6543C148.764 44.9941 148.509 44.5496 147.657 44.5496C146.805 44.5496 146.401 44.9941 146.287 45.6543L146.086 46.8561C145.97 47.5055 146.214 47.9608 147.068 47.9608H147.066ZM147.804 43.0954C149.638 43.0954 150.503 44.1678 150.25 45.6306L149.575 49.553C149.258 51.3417 148.278 52.0019 146.559 52.0019H146.38C144.85 52.0019 143.86 51.2101 144.017 49.922C144.03 49.8529 144.088 49.8033 144.16 49.8033H145.547C145.463 50.3017 145.81 50.6491 146.548 50.6491C147.487 50.6491 147.877 50.2046 147.983 49.5876L148.13 48.7742C147.728 49.1 147.297 49.2833 146.453 49.2833C144.999 49.2833 144.25 48.2542 144.492 46.8345L144.725 45.458C144.988 43.9088 145.864 43.0954 147.804 43.0954ZM128.752 42.3036C128.871 42.3036 128.968 42.4007 128.968 42.5194C128.968 42.5366 128.968 42.5539 128.962 42.5712L128.8 43.24C129.769 43.5658 130.239 44.4159 130.058 45.4688L129.678 47.6781C129.445 49.0309 128.683 49.6588 127.503 49.8422L127.361 50.4225C127.337 50.5196 127.251 50.5887 127.151 50.5887H125.891C125.773 50.5887 125.676 50.4916 125.676 50.3729C125.676 50.3557 125.676 50.3384 125.682 50.3211L125.797 49.8508C124.638 49.6566 123.986 48.9122 124.122 47.8745L124.144 47.7234C124.291 46.5432 125.072 45.8485 126.897 45.8485C127.594 45.8485 128.109 45.9564 128.351 46.0966L128.446 45.5227C128.563 44.8949 128.289 44.472 127.507 44.472C126.854 44.472 126.379 44.6985 126.284 45.2746H124.765C124.946 43.9585 125.637 43.2486 127.123 43.1192L127.281 42.4697C127.305 42.3727 127.391 42.3036 127.49 42.3036H128.75H128.752Z"
                  fill="#753FF6"/>
        </g>
    </g>
</svg>
