<svg width="135" height="60" viewBox="0 0 135 60" fill="none" xmlns="http://www.w3.org/2000/svg">
    <path fill-rule="evenodd" clip-rule="evenodd"
          d="M23.1733 40.4998C24.806 41.1325 26.8774 41.4487 29.3876 41.4487C32.8569 41.4487 35.51 40.8264 37.3468 39.5814C39.204 38.3162 40.1325 36.5814 40.1325 34.3773C40.1325 32.7243 39.7857 31.4284 39.0917 30.4896C38.4182 29.5508 37.3569 28.8467 35.908 28.3773C34.4793 27.8875 32.6325 27.5202 30.3672 27.2753C29.0202 27.112 27.9692 26.9589 27.2141 26.8161C26.4794 26.6528 25.9692 26.4283 25.6835 26.1426C25.4873 25.9464 25.3584 25.6923 25.297 25.3806L19.7807 22.3392C19.2057 23.2808 18.9182 24.3854 18.9182 25.6528C18.9182 27.1018 19.2754 28.2753 19.9896 29.1732C20.7039 30.0712 21.7856 30.7651 23.2345 31.2549C24.6835 31.7447 26.51 32.1221 28.7141 32.3875C29.9794 32.5305 30.9794 32.6835 31.7141 32.8467C32.4488 32.9897 32.9692 33.214 33.2753 33.5202C33.602 33.8058 33.7651 34.2549 33.7651 34.8671C33.7651 35.6223 33.4183 36.2039 32.7243 36.612C32.0304 37.0201 30.9999 37.2242 29.6325 37.2242C28.0407 37.2242 26.8468 36.9282 26.0509 36.3365C25.2549 35.7448 24.8366 34.9589 24.7958 33.9794H18.3672C18.3876 35.4282 18.7856 36.7243 19.5611 37.8671C20.357 38.9897 21.5611 39.867 23.1733 40.4998ZM20.7658 21.1345C21.0382 20.8787 21.3407 20.6399 21.6733 20.4181C23.5305 19.1732 26.0713 18.5508 29.2958 18.5508C32.214 18.5508 34.5611 19.1426 36.3366 20.3263C38.1326 21.4896 39.1324 23.163 39.3366 25.3467H33.0917C32.9897 24.4079 32.5713 23.7344 31.8366 23.3263C31.1224 22.9181 30.1937 22.714 29.0509 22.714C27.8468 22.714 26.908 22.9181 26.2345 23.3263C25.9903 23.4713 25.7918 23.6363 25.6389 23.8212L20.7658 21.1345Z"
          fill="white"/>
    <path d="M41.541 44.909V23.2662H47.1737L47.388 25.6539H47.5716C48.0614 24.8784 48.7961 24.2458 49.7757 23.756C50.7553 23.2662 52.0104 23.0213 53.541 23.0213C55.1534 23.0213 56.5615 23.3682 57.7655 24.0621C58.9695 24.756 59.9084 25.7458 60.5818 27.0315C61.2553 28.2968 61.592 29.807 61.592 31.5621C61.592 33.2969 61.2553 34.807 60.5818 36.0927C59.9084 37.3579 58.9594 38.3479 57.7349 39.0621C56.5309 39.7561 55.1123 40.1029 53.4798 40.1029C52.2146 40.1029 51.0715 39.8681 50.0512 39.3988C49.0309 38.909 48.2552 38.2457 47.7247 37.409H47.5104V44.909H41.541ZM51.6737 35.6335C52.8574 35.6335 53.8064 35.2867 54.5206 34.5927C55.2553 33.8785 55.6226 32.8683 55.6226 31.5621C55.6226 30.2356 55.2553 29.2254 54.5206 28.5315C53.8064 27.8376 52.8574 27.4907 51.6737 27.4907C50.3674 27.4907 49.3471 27.8478 48.6124 28.5621C47.8778 29.2764 47.5104 30.1744 47.5104 31.256V31.807C47.5104 32.909 47.8778 33.8274 48.6124 34.5621C49.3471 35.2763 50.3674 35.6335 51.6737 35.6335ZM62.2223 39.7968V17.4805H68.1917V39.7968H62.2223ZM69.5105 21.3682V17.4805H75.4799V21.3682H69.5105ZM69.5105 39.7968V23.2662H75.4799V39.7968H69.5105ZM85.952 40.1029C83.9316 40.1029 82.1867 39.7457 80.7173 39.0315C79.248 38.3173 78.1153 37.3172 77.3194 36.0315C76.544 34.7253 76.1561 33.2051 76.1561 31.4703C76.1561 29.6743 76.5746 28.1437 77.4112 26.8784C78.2479 25.6131 79.4215 24.6437 80.9316 23.9703C82.4417 23.2968 84.2071 22.9601 86.2275 22.9601C88.105 22.9601 89.7379 23.2356 91.1255 23.7866C92.5132 24.3376 93.6051 25.1131 94.401 26.1131C95.1969 27.0927 95.6255 28.2356 95.6867 29.5417H89.7786C89.6356 28.909 89.2377 28.409 88.5847 28.0417C87.9519 27.6539 87.156 27.4601 86.1969 27.4601C84.8907 27.4601 83.8805 27.8274 83.1663 28.5621C82.4521 29.2968 82.0949 30.2662 82.0949 31.4703C82.0949 32.8377 82.4622 33.8681 83.1969 34.5621C83.9521 35.2356 84.9519 35.5723 86.1969 35.5723C87.0746 35.5723 87.8399 35.3987 88.4929 35.0519C89.1663 34.6846 89.605 34.154 89.8092 33.4601H95.748C95.6662 34.8275 95.1764 36.011 94.2786 37.0111C93.3807 38.0112 92.207 38.7765 90.7582 39.307C89.3093 39.8375 87.707 40.1029 85.952 40.1029ZM105.803 40.1029C103.762 40.1029 101.986 39.7662 100.476 39.0927C98.9659 38.4192 97.7925 37.4498 96.9556 36.1845C96.1395 34.9193 95.7311 33.3988 95.7311 31.6233C95.7311 29.7866 96.1496 28.2254 96.9862 26.9397C97.8232 25.6539 98.9965 24.6743 100.507 24.0009C102.017 23.307 103.762 22.9601 105.741 22.9601C107.884 22.9601 109.701 23.3478 111.19 24.1233C112.701 24.8988 113.823 26.0213 114.558 27.4907C115.313 28.9601 115.609 30.7356 115.445 32.8172H101.67C101.711 33.858 102.109 34.6744 102.864 35.2662C103.619 35.8377 104.65 36.1233 105.956 36.1233C106.935 36.1233 107.782 35.9703 108.496 35.6641C109.211 35.358 109.67 34.95 109.874 34.4397H115.476C115.333 35.5622 114.823 36.5519 113.945 37.409C113.088 38.2662 111.956 38.9296 110.547 39.3988C109.139 39.8681 107.558 40.1029 105.803 40.1029ZM105.711 26.9397C104.588 26.9397 103.67 27.1744 102.956 27.6437C102.241 28.0927 101.792 28.7662 101.609 29.6641H109.568C109.466 28.8478 109.099 28.1948 108.466 27.705C107.833 27.1947 106.915 26.9397 105.711 26.9397Z"
          fill="white"/>
    <path d="M75.6127 17.2969H69.4902V21.5826H75.6127V17.2969Z" fill="#E4B91F"/>
</svg>
