<svg width="172" height="52" viewBox="0 0 172 52" fill="none" xmlns="http://www.w3.org/2000/svg">
    <g id="splice_logo-2eccc11f 2">
        <path id="Vector" fill-rule="evenodd" clip-rule="evenodd"
              d="M10.7007 42.4668C13.5307 43.5635 17.1211 44.1116 21.4721 44.1116C27.4856 44.1116 32.0843 43.0329 35.2681 40.8749C38.4872 38.6819 40.0966 35.6749 40.0966 31.8545C40.0966 28.9893 39.4955 26.743 38.2926 25.1158C37.1252 23.4885 35.2856 22.2681 32.7742 21.4545C30.2978 20.6055 27.0966 19.9688 23.1701 19.5443C20.8353 19.2613 19.0136 18.9959 17.7047 18.7484C16.4313 18.4653 15.5469 18.0762 15.0517 17.581C14.7116 17.2409 14.4882 16.8005 14.3818 16.2602L4.82018 10.9884C3.82352 12.6205 3.32518 14.5352 3.32518 16.732C3.32518 19.2436 3.94433 21.2777 5.18227 22.834C6.42039 24.3906 8.29534 25.5933 10.8068 26.4423C13.3184 27.2913 16.4843 27.9455 20.3047 28.4055C22.4979 28.6534 24.2313 28.9186 25.5047 29.2014C26.7782 29.4493 27.6803 29.8381 28.2108 30.3688C28.7771 30.8639 29.0598 31.6423 29.0598 32.7035C29.0598 34.0125 28.4587 35.0206 27.2558 35.728C26.053 36.4353 24.2668 36.7891 21.8966 36.7891C19.1375 36.7891 17.0681 36.276 15.6885 35.2504C14.3088 34.2248 13.5837 32.8626 13.513 31.1648H2.37012C2.40548 33.676 3.09534 35.9226 4.43954 37.9035C5.8191 39.8493 7.90621 41.37 10.7007 42.4668ZM6.52769 8.90029C6.99985 8.4569 7.52418 8.04298 8.10069 7.65853C11.3198 5.5007 15.7239 4.42188 21.313 4.42188C26.3712 4.42188 30.4395 5.44766 33.5171 7.49941C36.6301 9.51579 38.3631 12.4164 38.7171 16.2014H27.8926C27.7158 14.5742 26.9906 13.4068 25.7171 12.6994C24.4791 11.9919 22.8694 11.6381 20.8885 11.6381C18.8014 11.6381 17.1742 11.9919 16.0068 12.6994C15.5835 12.9507 15.2394 13.2367 14.9744 13.5572L6.52769 8.90029Z"
              fill="#105E55"/>
        <path id="Vector_2"
              d="M42.5381 50.1091V12.595H52.3014L52.6729 16.7336H52.9911C53.8401 15.3894 55.1136 14.2929 56.8116 13.4439C58.5095 12.595 60.685 12.1705 63.3381 12.1705C66.1329 12.1705 68.5736 12.7718 70.6606 13.9745C72.7475 15.1773 74.3749 16.8929 75.5421 19.1215C76.7095 21.3147 77.2932 23.9323 77.2932 26.9745C77.2932 29.9815 76.7095 32.599 75.5421 34.8276C74.3749 37.0206 72.73 38.7366 70.6075 39.9745C68.5206 41.1774 66.0617 41.7786 63.232 41.7786C61.039 41.7786 59.0576 41.3716 57.2891 40.5581C55.5206 39.7091 54.176 38.5594 53.2565 37.1091H52.885V50.1091H42.5381ZM60.1014 34.0316C62.1532 34.0316 63.7981 33.4305 65.0361 32.2276C66.3095 30.9896 66.9462 29.2386 66.9462 26.9745C66.9462 24.6752 66.3095 22.9242 65.0361 21.7215C63.7981 20.5187 62.1532 19.9174 60.1014 19.9174C57.8372 19.9174 56.0687 20.5364 54.7952 21.7745C53.5219 23.0126 52.885 24.5692 52.885 26.4439V27.399C52.885 29.3091 53.5219 30.901 54.7952 32.1745C56.0687 33.4125 57.8372 34.0316 60.1014 34.0316ZM78.3857 41.248V2.56641H88.7326V41.248H78.3857ZM91.0186 9.30509V2.56641H101.366V9.30509H91.0186ZM91.0186 41.248V12.595H101.366V41.248H91.0186ZM119.517 41.7786C116.015 41.7786 112.991 41.1594 110.444 39.9215C107.897 38.6835 105.934 36.95 104.554 34.7215C103.21 32.4574 102.538 29.8224 102.538 26.8154C102.538 23.7023 103.263 21.0493 104.713 18.8561C106.163 16.6629 108.198 14.9826 110.815 13.8154C113.433 12.648 116.493 12.0644 119.995 12.0644C123.249 12.0644 126.079 12.5419 128.485 13.497C130.89 14.452 132.783 15.7962 134.162 17.5296C135.542 19.2276 136.285 21.2086 136.391 23.4725H126.15C125.902 22.3758 125.212 21.5091 124.081 20.8725C122.984 20.2003 121.604 19.8644 119.942 19.8644C117.678 19.8644 115.927 20.501 114.689 21.7745C113.451 23.048 112.832 24.7283 112.832 26.8154C112.832 29.1856 113.468 30.9716 114.742 32.1745C116.051 33.3419 117.784 33.9255 119.942 33.9255C121.463 33.9255 122.79 33.6246 123.921 33.0235C125.089 32.3868 125.849 31.4671 126.203 30.2644H136.497C136.355 32.6345 135.506 34.6859 133.95 36.4194C132.394 38.153 130.359 39.4795 127.848 40.399C125.336 41.3185 122.559 41.7786 119.517 41.7786ZM153.926 41.7786C150.388 41.7786 147.309 41.195 144.692 40.0276C142.075 38.8602 140.041 37.1799 138.59 34.9867C137.175 32.7937 136.468 30.1581 136.468 27.0806C136.468 23.897 137.193 21.1909 138.643 18.9624C140.094 16.7336 142.128 15.0357 144.746 13.8684C147.363 12.6657 150.388 12.0644 153.818 12.0644C157.533 12.0644 160.682 12.7364 163.263 14.0806C165.882 15.4248 167.827 17.3705 169.101 19.9174C170.41 22.4644 170.923 25.5419 170.638 29.15H146.762C146.833 30.9541 147.523 32.3692 148.831 33.395C150.14 34.3856 151.927 34.8806 154.191 34.8806C155.888 34.8806 157.356 34.6154 158.593 34.0846C159.833 33.5541 160.628 32.8469 160.982 31.9624H170.692C170.444 33.908 169.56 35.6235 168.038 37.1091C166.553 38.595 164.591 39.7448 162.148 40.5581C159.708 41.3716 156.968 41.7786 153.926 41.7786ZM153.766 18.9624C151.82 18.9624 150.228 19.3692 148.991 20.1826C147.751 20.9609 146.973 22.1283 146.656 23.6846H160.452C160.275 22.2697 159.639 21.1379 158.541 20.2889C157.444 19.4044 155.853 18.9624 153.766 18.9624Z"
              fill="#105E55"/>
        <path id="Vector_3" d="M101.596 2.24609H90.9834V9.67464H101.596V2.24609Z" fill="#E4B91F"/>
    </g>
</svg>
