<svg xmlns="http://www.w3.org/2000/svg" xmlns:xlink="http://www.w3.org/1999/xlink" width="204" height="397" viewBox="0 0 204 397"><defs><clipPath id="a"><rect width="372.344" height="343.52" fill="none"></rect></clipPath><clipPath id="c"><rect width="204" height="397"></rect></clipPath></defs><g id="b" clip-path="url(#c)"><g transform="translate(23.115 414.025) rotate(-101)"><g clip-path="url(#a)"><path d="M284.85,330.308c-8.348-.046-16.691-.186-25.031.54-10.176.886-20.238,2.544-30.309,4.151-17.4,2.778-34.747,5.9-52.3,7.585a222.585,222.585,0,0,1-40.141.726,132.537,132.537,0,0,1-38.839-9.667,153.932,153.932,0,0,1-45.114-28.233,106.188,106.188,0,0,1-30.231-46.332,207.536,207.536,0,0,1-9.5-44.653A192.774,192.774,0,0,1,12.358,185.4c.838-17.558,3.1-34.88,9.157-51.537,3.574-9.835,9.224-18.381,15.846-26.351,2.568-3.091,5.281-6.063,7.968-9.054,7.379-8.214,16.158-14.667,25.607-20.265,16.009-9.485,33.006-16.441,51.379-19.748a67.1,67.1,0,0,1,26.124.014c16.2,3.471,26.606,13.656,32.7,28.7,3.034,7.491,4.615,15.378,6.289,23.24a213.112,213.112,0,0,0,6.772,26,59.351,59.351,0,0,0,8.46,16.423c5.659,7.5,13.3,12.19,21.936,15.47,10.46,3.973,21.365,6.177,32.348,8.031,16.764,2.829,33.537,5.6,49.877,10.459,16.378,4.874,31.563,12.055,44.754,23.071,8.91,7.44,16.1,16.276,20.667,27.017,5.76,13.54,6.1,27.459,2.007,41.464-5.626,19.269-16.821,34.257-34.691,43.877-8.481,4.565-17.649,6.757-27.2,7.62-9.162.829-18.337.454-27.509.474" transform="translate(-4.644 -21.793)" fill="#eec22e"></path><path d="M118.305,47.758c-.033,18.3-9.625,32.612-26.63,39.371-9.529,3.787-19.36,5.585-29.659,3.7A35.284,35.284,0,0,1,40.086,78.015c-7.169-8.94-11.351-19.081-11.309-30.71a33.71,33.71,0,0,1,9.6-23.766,23.389,23.389,0,0,0,2.988-3.917C48.421,8.048,59.027,1.96,72.205.324c20.675-2.569,35.16,10.6,40.988,24.043a59.812,59.812,0,0,1,5.112,23.391" transform="translate(-10.97 0)" fill="#ca6425"></path><path d="M52.52,338.29c6.663,2.662,12.562,4.193,18.308,6.179a50.787,50.787,0,0,1,13.1,6.17c5.4,3.833,9.219,8.816,10.763,15.342,2.065,8.726-2.036,16.2-10.535,19.055-7.236,2.432-14.455,1.616-21.583-.58-8.294-2.554-16.086-6.4-24.162-9.515a65.136,65.136,0,0,0-13.3-3.984,22.938,22.938,0,0,0-8.6.129c-5.817,1.294-7.583,5.681-4.306,10.691,2.589,3.958,6.507,5.946,10.912,7.027a172.619,172.619,0,0,0,23.2,3.616c3.586.376,7.18.678,10.77,1.016a12.5,12.5,0,0,1,1.533.178c2.9.645,4.661,2.779,4.5,5.429a5.285,5.285,0,0,1-4.838,4.817,8.119,8.119,0,0,1-1.848.08c-12.223-1.028-24.46-2.059-36.393-5.054-7.46-1.872-13.592-5.834-17.5-12.734-5.791-10.214-1.291-21.541,9.977-24.915,6.1-1.826,12.226-1.355,18.331.112,6.65,1.6,12.86,4.411,19.185,6.9,5.272,2.078,10.363,4.617,15.829,6.2a28.341,28.341,0,0,0,12.51,1.208c5.948-.957,7.71-4.23,5.221-9.7-1.892-4.155-5.22-6.833-9.225-8.75-5.509-2.637-11.41-4.181-17.194-6.045-6.3-2.029-12.5-4.252-17.846-8.32a26.153,26.153,0,0,1-7.88-9.383c-5.447-11.171-.455-23.793,11.355-28.52,8.107-3.244,16.351-2.8,24.572-.4,9.563,2.781,17.747,8.143,25.7,13.917,3.836,2.785,7.654,5.593,11.725,8.036a20.5,20.5,0,0,0,7.151,2.812,11.247,11.247,0,0,0,6.656-.782,8.345,8.345,0,0,0,5.074-8.429,14.528,14.528,0,0,0-2.885-7.716,44.058,44.058,0,0,0-12.051-10.965c-5.191-3.355-10.543-6.461-15.737-9.812a36.7,36.7,0,0,1-10.542-9.869,18.93,18.93,0,0,1-3.809-11.537c.152-4.888,2.471-8.63,6.169-11.621a26.493,26.493,0,0,1,10.856-5.041c14.343-3.333,28.088-1.651,40.99,5.508a27.675,27.675,0,0,1,12.889,14.881,9.525,9.525,0,0,1,.694,3,5.232,5.232,0,0,1-3.492,5.29,5.08,5.08,0,0,1-5.911-2.215,14.211,14.211,0,0,1-1.179-2.509,17.94,17.94,0,0,0-8.249-9.3A45.574,45.574,0,0,0,96.987,264.1a15.4,15.4,0,0,0-5.031,2.323c-2.932,2.082-3.483,4.207-1.9,7.476a18.488,18.488,0,0,0,4.623,5.739,71.3,71.3,0,0,0,11.5,7.79c6.861,4.016,13.591,8.21,19.151,14,3.093,3.223,5.835,6.7,7.353,10.959,2.677,7.516,2.319,14.709-3.18,20.881-5.6,6.286-12.819,7.821-20.867,6.124-4.845-1.021-9.012-3.513-13.026-6.242-5.537-3.765-10.9-7.795-16.5-11.459-5.629-3.681-11.622-6.682-18.337-7.918a27.707,27.707,0,0,0-10.754-.036,15.153,15.153,0,0,0-5.953,2.471A9.753,9.753,0,0,0,41.04,329.1a16.615,16.615,0,0,0,6.682,6.692c1.873,1.077,3.834,2,4.8,2.5" transform="translate(0 -96.021)" fill="#282828"></path><path d="M401.922,297.611c0,1.876-1.041,3.285-2.074,4.718-6.261,8.7-12.545,17.38-18.748,26.12-17.3,24.379-33.439,49.533-49.592,74.676q-11.112,17.3-21.762,34.881c-1.594,2.645-3.019,5.392-4.512,8.1a11.11,11.11,0,0,1-2.093,3.038,5.156,5.156,0,0,1-6.012.826,5.215,5.215,0,0,1-2.511-5.249,11.916,11.916,0,0,1,1.543-4.015c4.763-9.153,10.415-17.778,15.894-26.5,17.6-28.012,35.47-55.847,54.294-83.054,8.031-11.609,16.376-23,24.58-34.49a13.014,13.014,0,0,1,2.874-3.211,4.941,4.941,0,0,1,5.533-.421,4.732,4.732,0,0,1,2.587,4.585" transform="translate(-112.293 -111.453)" fill="#cb6728"></path><path d="M340.917,459.26a5.039,5.039,0,0,1-4.792-6.444,9.747,9.747,0,0,1,1.2-2.493c22.209-35.725,44.523-71.381,68.393-106.034Q418.177,326.2,430.58,308.08a21.987,21.987,0,0,1,1.846-2.476,5.141,5.141,0,0,1,8.5,5.759,26.728,26.728,0,0,1-1.98,3.133c-16.276,23.718-32.813,47.264-48.424,71.428-14.264,22.082-28.491,44.192-42.155,66.656-.909,1.494-1.877,2.962-2.925,4.361a5.65,5.65,0,0,1-4.521,2.319" transform="translate(-128.06 -115.739)" fill="#cb6728"></path><path d="M361.481,318.086a12.554,12.554,0,0,1-3.994,8.438c-1.838,1.861-1.538,2.277.122,3.608a15.857,15.857,0,0,1,3.385,4.354,1.808,1.808,0,0,1,.066,2.288,1.922,1.922,0,0,1-2.3.3,17.7,17.7,0,0,1-4.406-2.781c-1.814-1.514-1.833-1.512-3.616.238-1.171,1.15-2.282,2.361-3.476,3.486a5.559,5.559,0,0,1-1.767,1.2c-1.877.7-3.311-.571-2.891-2.549a8.6,8.6,0,0,1,1.6-3.3c1.031-1.4,2.431-2.786,2.773-4.372.39-1.81-2.059-2.54-2.776-4.132-.406-.9-1.372-1.519-1.751-2.507a2.4,2.4,0,0,1,.212-2.617,2.212,2.212,0,0,1,2.551-.481,6.719,6.719,0,0,1,3.1,1.932,17.6,17.6,0,0,0,1.486,1.558c1.443,1.253,1.9,1.31,2.838-.4,1.54-2.812,4.033-4.3,6.77-5.55,1.552-.707,2.176-.283,2.077,1.288" transform="translate(-130.436 -120.639)" fill="#cb6728"></path><path d="M228.632,150.812a4.751,4.751,0,0,1-5,5.078c-3.1.009-5.14-2.259-5.129-5.716a5.04,5.04,0,0,1,4.631-4.9c2.813-.139,5.436,2.5,5.5,5.54" transform="translate(-83.294 -55.376)" fill="#282828"></path><path d="M226.17,98a4.846,4.846,0,0,1-4.194-5.18,4.471,4.471,0,0,1,4.331-4.281c3.1.126,5.5,2.231,5.377,4.716s-2.932,4.9-5.513,4.746" transform="translate(-84.617 -33.75)" fill="#282828"></path><path d="M207.11,119.895a4.536,4.536,0,0,1-4.523,4.483c-2.505.031-4.591-2.321-4.586-5.173a3.988,3.988,0,0,1,3.872-4.267,5.265,5.265,0,0,1,5.237,4.957" transform="translate(-75.479 -43.815)" fill="#282828"></path><path d="M248.9,124.082a4.7,4.7,0,0,1-4.266,4.785A4.776,4.776,0,0,1,239.7,124.4c-.046-2.234,2.19-4.731,4.33-4.837a4.739,4.739,0,0,1,4.874,4.519" transform="translate(-91.374 -45.576)" fill="#282828"></path><path d="M195.224,165.369a5,5,0,0,1-4.4,4.747,4.6,4.6,0,0,1-4.446-4.567,4.087,4.087,0,0,1,4.3-4.2c2.572,0,4.527,1.734,4.538,4.022" transform="translate(-71.05 -61.506)" fill="#282828"></path></g></g></g></svg>