<svg xmlns="http://www.w3.org/2000/svg" xmlns:xlink="http://www.w3.org/1999/xlink" width="301" height="369" viewBox="0 0 301 369"><defs><clipPath id="a"><rect width="298.694" height="407.21" fill="none"></rect></clipPath><clipPath id="c"><rect width="301" height="369"></rect></clipPath></defs><g id="b" clip-path="url(#c)"><g transform="translate(298.694 407.21) rotate(180)"><g clip-path="url(#a)"><path d="M97.185,22.934c22.142.074,36.927.66,51.716,1.036,5.655.144,11.313.177,16.965.354,6.551.206,13.03-.566,19.524-1.167,12.208-1.129,24.423-2.1,36.7-1.519,1.23.058,2.456.194,3.684.291,2.523.2,5.033.619,7.582.175a4.321,4.321,0,0,1,4.174,1.3,3.961,3.961,0,0,0,1.046.766c3.08,1.657,4.275,4.395,4.421,7.717.163,3.725-.578,7.366-1.133,11.017-2.051,13.471-4.4,26.9-5.756,40.468-1.062,10.606-1.908,21.228-2.337,31.884-.937,23.27-1.25,46.546-.665,69.826.4,15.8.991,31.6,1.289,47.41.288,15.3,1.448,30.561,2.322,45.836.438,7.672.751,15.359.846,23.042.205,16.608.728,33.207,1.082,49.811a237.571,237.571,0,0,1-.975,30.206c-.913,8.593-2.29,17.1-5.571,25.182a22.739,22.739,0,0,1-3.18,5.673c-3.229,4.065-7.585,4.748-11.915,1.864-2.886-1.922-4.983-4.638-7.159-7.251a150.879,150.879,0,0,0-12.687-13.733,73.122,73.122,0,0,1-5.377-5.689c-6.511-7.559-9.487-16.459-10.251-26.272-.538-6.9-.074-13.763.294-20.642.295-5.5.524-11.023-.438-16.493a32.7,32.7,0,0,0-12.639-20.656A124.661,124.661,0,0,0,152.4,293.045c-6.584-3.674-13.363-7-19.712-11.091a56.989,56.989,0,0,1-13.617-12.076c-5.595-6.929-8.329-15.01-9.34-23.759-1.323-11.449.576-22.539,3.689-33.5,2.618-9.218,6.083-18.14,9.448-27.1a149.32,149.32,0,0,0,7.13-23.26,42.866,42.866,0,0,0,.016-18.131c-1.861-8.123-6.529-14.446-12.788-19.714-7.582-6.38-16.3-10.763-25.438-14.417-9.712-3.884-19.8-6.6-29.809-9.547-8.552-2.516-17.189-4.755-25.565-7.836-8.277-3.045-16.165-6.86-23.026-12.5C3.673,72.142-.877,61.87.141,49.282A31.915,31.915,0,0,1,4.341,35.9c3.225-5.633,8.185-8.855,14.417-10.316A98.12,98.12,0,0,1,37.521,23.4c22.331-.846,44.671-.448,59.664-.465" transform="translate(0 -8.659)" fill="#eec22e"></path><path d="M188.872,334.785c.2-5.1.367-9.416.888-13.7.592-4.864-.044-9.38-3.09-13.378a23.429,23.429,0,0,0-5.3-4.9,111.485,111.485,0,0,0-16.96-9.379c-2.782-1.3-5.488-2.751-8.181-4.23-8.1-4.45-14.256-10.9-19.428-18.455a86.731,86.731,0,0,1-12.06-27.5c-2.007-7.683-3.439-15.44-3.12-23.422a64.792,64.792,0,0,1,6.339-26.488c1.854-3.751,3.513-7.588,5.289-11.372,1.721-3.668,3.41-7.346,5.447-10.858.784-1.351,1.321-2.843,2.028-4.241,2.795-5.519,2.733-11.238,1.012-16.984-2.715-9.067-8-16-16.775-20.116a102.915,102.915,0,0,0-20.265-6.611c-6.93-1.636-13.819-3.427-20.705-5.238a119.08,119.08,0,0,1-31.563-13.607c-5.318-3.224-10.611-6.448-15.2-10.691C28.552,85.6,22.649,76.06,21.007,64.194a34.567,34.567,0,0,1,1.737-17.562c1.889-4.848,5.543-7.971,10.185-10.047A7.169,7.169,0,0,1,36.379,36a3.366,3.366,0,0,1,3.372,2.949,3.141,3.141,0,0,1-2.743,3.477,10.3,10.3,0,0,0-4.4,2.007,11.763,11.763,0,0,0-4.359,6.78c-2.125,9.042-.5,17.509,3.915,25.532A46.553,46.553,0,0,0,46.7,92.7a134.837,134.837,0,0,0,26.172,14.523c6.986,2.81,14.284,4.623,21.553,6.527,7.2,1.887,14.514,3.344,21.654,5.482a77.887,77.887,0,0,1,12.749,5.013c11.427,5.76,17.667,15.308,20.2,27.573a28.226,28.226,0,0,1-2.172,17.77c-1.831,4.06-4.2,7.828-6.023,11.884-2.251,5-4.644,9.944-6.948,14.923a60.009,60.009,0,0,0-4.619,36.356,109.155,109.155,0,0,0,5.324,19.44,70.508,70.508,0,0,0,14.691,23.435c3.971,4.269,8.954,7.176,14.077,9.833,4.465,2.316,9.111,4.272,13.508,6.729a64.686,64.686,0,0,1,11.425,7.555c5.431,4.776,8.506,10.721,8.36,18.057-.068,3.392-.48,6.777-.736,10.165a80.374,80.374,0,0,0-.212,10.381,59.272,59.272,0,0,0,2.892,15.165c.727,2.235,1.578,4.431,2.418,6.628,1.992,5.21,5.564,9.274,9.617,12.94,3.251,2.939,6.374,6,9.42,9.149a112.408,112.408,0,0,1,7.664,8.656,20.667,20.667,0,0,0,3.234,3.408,12.343,12.343,0,0,0,10.825,2.664,7.977,7.977,0,0,0,5.374-3.933,18.848,18.848,0,0,0,1.537-3.169,4.678,4.678,0,0,1,1.216-1.984,3.257,3.257,0,0,1,3.644-.577,3.173,3.173,0,0,1,1.8,3.025,2.868,2.868,0,0,1-.089.776c-2.535,8.86-9.194,13.674-18.1,12.732a19.612,19.612,0,0,1-13.417-7.308c-2.8-3.365-5.606-6.722-8.673-9.858-2.79-2.851-5.626-5.642-8.58-8.326-3.979-3.616-7.756-7.457-10.112-12.378a71.622,71.622,0,0,1-7.269-26.283c-.126-1.89-.177-3.785-.227-4.892" transform="translate(-8.31 -14.516)" fill="#cb6728"></path><path d="M425.449,400.386c-.041,22.742-11.961,40.528-33.093,48.926-11.842,4.706-24.059,6.941-36.857,4.6-11.052-2.019-20.253-7.2-27.253-15.929-8.909-11.11-14.106-23.712-14.054-38.164a41.894,41.894,0,0,1,11.935-29.534,29.048,29.048,0,0,0,3.712-4.868c8.765-14.382,21.945-21.948,38.322-23.982,25.693-3.192,43.694,13.17,50.936,29.878a74.343,74.343,0,0,1,6.353,29.069" transform="translate(-126.755 -137.586)" fill="#ca6425"></path><path d="M266.249,255.949c-.311-6.08-.432-12.15.957-18.141a29.921,29.921,0,0,1,8.643-15.728,15.213,15.213,0,0,1,4.03-2.751,8.337,8.337,0,0,1,4.766-.774,13.561,13.561,0,0,0,1.755.165,7.893,7.893,0,0,1,6.815,3.946,17.066,17.066,0,0,1,.408,17.493c-2.081,3.465-2.219,7.144-1.553,10.991.434,2.509.7,5.045,1.044,7.57a40.912,40.912,0,0,1-3.332,21.817q-1.728,4.055-3.624,8.038a34.2,34.2,0,0,0-3.4,15.162,80.643,80.643,0,0,1-.253,9.6c-.829,7.27-3.645,13.446-9.828,17.754a15.2,15.2,0,0,1-8.03,2.837c-5.487.27-9.562-2.212-12.4-6.783-2.563-4.129-3-8.7-2.486-13.423a47.724,47.724,0,0,1,4.342-14.386c1.583-3.512,3.319-6.956,5.019-10.414a80.567,80.567,0,0,0,6.4-16.392c1.178-4.834,1.065-9.719.851-14.621-.029-.653-.082-1.3-.124-1.957m-10.016,61.2a13.475,13.475,0,0,0,.413,3.331,9.59,9.59,0,0,0,2.981,5.176,6.1,6.1,0,0,0,5.265,1.526,11.581,11.581,0,0,0,7.49-4.943,19.061,19.061,0,0,0,3.492-9.643,89.211,89.211,0,0,0,.237-9.2,39.287,39.287,0,0,1,3.753-17.075c1.5-3.191,3.008-6.377,4.289-9.667a33.423,33.423,0,0,0,2.361-16.692c-.357-2.719-.645-5.449-1.1-8.151-.845-5.051-.493-9.886,2.135-14.417a13.194,13.194,0,0,0,1.423-3.639,9.3,9.3,0,0,0-1.074-6.983c-.327-.564-.691-1.181-1.4-1.284a6.467,6.467,0,0,0-4.391.465,12.454,12.454,0,0,0-3.72,3.133,25.145,25.145,0,0,0-4.141,8.165,41.472,41.472,0,0,0-1.531,10.829c-.12,4.579.354,9.136.469,13.707a48.485,48.485,0,0,1-1.56,13.769,89.571,89.571,0,0,1-6.879,17.043c-2.106,4.2-4.237,8.4-5.939,12.787a33.7,33.7,0,0,0-2.579,11.766" transform="translate(-100.686 -88.14)" fill="#cb6728"></path><path d="M304.2,43.951c-.311-6.08-.432-12.149.957-18.141A29.921,29.921,0,0,1,313.8,10.082a15.227,15.227,0,0,1,4.03-2.751,8.337,8.337,0,0,1,4.766-.774,13.56,13.56,0,0,0,1.755.165,7.893,7.893,0,0,1,6.815,3.946,16.006,16.006,0,0,1,2.088,13.321,16.083,16.083,0,0,1-1.68,4.172c-2.081,3.465-2.219,7.144-1.553,10.991.434,2.509.7,5.045,1.044,7.57a40.912,40.912,0,0,1-3.332,21.817q-1.728,4.055-3.624,8.038a34.2,34.2,0,0,0-3.4,15.162,80.63,80.63,0,0,1-.253,9.6c-.829,7.27-3.646,13.446-9.828,17.754a15.2,15.2,0,0,1-8.03,2.837c-5.487.27-9.562-2.213-12.4-6.784-2.563-4.129-3-8.7-2.487-13.423a47.724,47.724,0,0,1,4.342-14.386c1.583-3.512,3.319-6.956,5.019-10.414a80.569,80.569,0,0,0,6.4-16.392c1.178-4.834,1.065-9.719.851-14.621-.029-.653-.082-1.3-.124-1.957m-10.016,61.2a13.473,13.473,0,0,0,.413,3.331,9.586,9.586,0,0,0,2.981,5.176,6.1,6.1,0,0,0,5.265,1.526,11.582,11.582,0,0,0,7.49-4.943,19.062,19.062,0,0,0,3.492-9.644,89.044,89.044,0,0,0,.236-9.2,39.3,39.3,0,0,1,3.754-17.075c1.5-3.191,3.008-6.377,4.289-9.667a33.423,33.423,0,0,0,2.361-16.692c-.357-2.719-.645-5.448-1.1-8.151-.845-5.05-.493-9.886,2.135-14.417a13.194,13.194,0,0,0,1.423-3.639,9.3,9.3,0,0,0-1.074-6.983c-.327-.564-.691-1.181-1.4-1.284a6.467,6.467,0,0,0-4.391.465,12.447,12.447,0,0,0-3.72,3.133,25.141,25.141,0,0,0-4.141,8.165,41.473,41.473,0,0,0-1.531,10.829c-.12,4.579.354,9.136.469,13.707a48.487,48.487,0,0,1-1.56,13.769A89.576,89.576,0,0,1,302.7,80.6c-2.106,4.2-4.237,8.4-5.939,12.787a33.681,33.681,0,0,0-2.579,11.766" transform="translate(-115.997 -2.612)" fill="#282828"></path><path d="M352.618,152.567c-.311-6.08-.432-12.15.957-18.141a29.92,29.92,0,0,1,8.643-15.728,15.226,15.226,0,0,1,4.03-2.751,8.337,8.337,0,0,1,4.766-.774,13.56,13.56,0,0,0,1.756.165,7.892,7.892,0,0,1,6.815,3.946,17.069,17.069,0,0,1,.409,17.493c-2.081,3.465-2.22,7.144-1.553,10.991.434,2.509.7,5.045,1.043,7.57a40.911,40.911,0,0,1-3.332,21.817q-1.728,4.055-3.624,8.038a34.212,34.212,0,0,0-3.4,15.162,80.63,80.63,0,0,1-.253,9.6c-.829,7.27-3.645,13.446-9.828,17.754a15.2,15.2,0,0,1-8.03,2.837c-5.487.27-9.562-2.213-12.4-6.784-2.563-4.129-3-8.7-2.487-13.423a47.727,47.727,0,0,1,4.342-14.386c1.583-3.512,3.319-6.956,5.019-10.414a80.576,80.576,0,0,0,6.4-16.392c1.178-4.834,1.065-9.719.851-14.621-.029-.653-.082-1.3-.124-1.957m-10.016,61.2a13.476,13.476,0,0,0,.413,3.331A9.59,9.59,0,0,0,346,222.274a6.1,6.1,0,0,0,5.265,1.526,11.581,11.581,0,0,0,7.49-4.943,19.062,19.062,0,0,0,3.492-9.643,89.216,89.216,0,0,0,.237-9.2,39.287,39.287,0,0,1,3.753-17.075c1.5-3.191,3.008-6.377,4.289-9.667a33.423,33.423,0,0,0,2.361-16.692c-.356-2.719-.645-5.449-1.1-8.151-.845-5.051-.493-9.886,2.135-14.417a13.2,13.2,0,0,0,1.423-3.639,9.3,9.3,0,0,0-1.074-6.983c-.327-.564-.691-1.181-1.4-1.284a6.467,6.467,0,0,0-4.391.465,12.446,12.446,0,0,0-3.72,3.133,25.141,25.141,0,0,0-4.141,8.165,41.473,41.473,0,0,0-1.531,10.829c-.119,4.579.354,9.136.47,13.707A48.487,48.487,0,0,1,358,172.171a89.576,89.576,0,0,1-6.879,17.043c-2.106,4.2-4.237,8.4-5.939,12.787a33.708,33.708,0,0,0-2.579,11.766" transform="translate(-135.531 -46.432)" fill="#282828"></path><path d="M199.491,70.719a5.018,5.018,0,0,1-2.8-2.636,17.955,17.955,0,0,1-1.713-3.735c-.684-2.179-1.691-4.249-2.222-6.479a24.347,24.347,0,0,1,.095-9.524c.407-2.585.725-5.177.931-7.777a29,29,0,0,0-.893-9.507A40.507,40.507,0,0,0,185.3,15.943,65.678,65.678,0,0,0,178.069,8.6c-2.825-2.618-5.831-5.026-8.607-7.694-.221-.213-.529-.4-.469-.832a2.923,2.923,0,0,1,1.867.3,48.785,48.785,0,0,1,9.357,4.465,29.982,29.982,0,0,1,8.472,8.259,47.518,47.518,0,0,1,5.9,10.349,47.338,47.338,0,0,1,2.568,6.767,42.445,42.445,0,0,1,.292,15.758,94.981,94.981,0,0,0-1.076,10.324,24.178,24.178,0,0,0,1.35,9.046,54.4,54.4,0,0,0,1.767,5.381" transform="translate(-68.175 0)" fill="#282828"></path><path d="M218.053,8.073a2.089,2.089,0,0,1,1.994.461A25.777,25.777,0,0,1,230,19.8a30.366,30.366,0,0,1,2.034,6.117c.615,2.676.172,5.331.041,7.988A54.9,54.9,0,0,1,230.3,44.509c-1.694,6.769-.13,12.745,3.671,18.393,2.024,3.007,4.706,5.4,7.053,8.1.414.476,1.086.773,1.159,1.541-.87.25-1.53-.283-2.173-.658a20.337,20.337,0,0,1-3.241-2.183c-2.49-2.189-5.362-3.957-7.389-6.665a19.4,19.4,0,0,1-3.566-8.56c-1.006-5.845-.249-11.573.713-17.3a52.4,52.4,0,0,0,.527-13.039,14.732,14.732,0,0,0-3.236-7.456c-1.632-2.2-3.017-4.582-4.835-6.652a3.28,3.28,0,0,1-.928-1.951" transform="translate(-87.97 -3.21)" fill="#282828"></path><path d="M185.572,68a2.689,2.689,0,0,1-2.02-1.549,31.293,31.293,0,0,1-3.176-9.018,9.714,9.714,0,0,1,.692-5.194c.839-2.54,1.719-5.076,2.756-7.54,3.421-8.128,3.156-16.415,1.232-24.791a53.575,53.575,0,0,0-5.762-13.887c-.487-.88-.926-1.786-1.54-2.975a4.208,4.208,0,0,1,2.319,1.564c2.438,2.736,4.84,5.543,6.239,8.962,1.137,2.778,2.517,5.459,3.477,8.3a28.448,28.448,0,0,1,1.108,11.8c-.547,6.041-2.536,11.7-4.666,17.325a25.9,25.9,0,0,0-2.146,8.1,29.383,29.383,0,0,0,1.033,6.949c.127.628.288,1.25.453,1.957" transform="translate(-71.712 -1.227)" fill="#282828"></path><path d="M164.623,86.762a4.928,4.928,0,0,1-3.32-2.617c-.416-.661-.7-1.408-1.121-2.064a10.738,10.738,0,0,1-1.58-6.694,26.381,26.381,0,0,1,3.594-11.84,60.387,60.387,0,0,0,4.425-8.48,31.454,31.454,0,0,0,1.689-14.826,84.588,84.588,0,0,0-.927-8.542,7.043,7.043,0,0,1,1.944,3.2,66.233,66.233,0,0,1,2.517,11.848c.631,4.534-.7,8.762-2.685,12.831-1.824,3.745-4.314,7.109-5.995,10.945a16.053,16.053,0,0,0-.009,12.895c.448,1.131.976,2.231,1.468,3.345" transform="translate(-63.976 -12.788)" fill="#282828"></path><path d="M112.456,77.154a4.93,4.93,0,0,1-2.54-3.379c-.233-.746-.313-1.54-.555-2.282a10.746,10.746,0,0,1,.185-6.876,26.409,26.409,0,0,1,6.5-10.526,60.424,60.424,0,0,0,6.449-7.065,31.459,31.459,0,0,0,5.427-13.9,84.2,84.2,0,0,0,1.289-8.5,7.034,7.034,0,0,1,1.061,3.591,66.173,66.173,0,0,1-.6,12.1c-.55,4.544-2.921,8.291-5.879,11.717-2.723,3.153-5.99,5.769-8.6,9.046a16.052,16.052,0,0,0-3.309,12.463c.143,1.209.373,2.407.563,3.609" transform="translate(-43.926 -9.937)" fill="#282828"></path><path d="M149.831,46.871a6.312,6.312,0,0,1,.977,3.217,37.558,37.558,0,0,1-1.831,13.7,10.937,10.937,0,0,1-2.291,3.844c-1.109,1.281-2.1,2.654-3.254,3.905a11.424,11.424,0,0,0-2.7,6,20.715,20.715,0,0,0,2.311,13.983,54.363,54.363,0,0,0,5.514,7.562,2.583,2.583,0,0,1,.64.965c-.521.3-.916-.056-1.228-.309a51.782,51.782,0,0,1-8.272-7.675,9.664,9.664,0,0,1-1.6-4.162c-1.03-4.613-1.7-9.246-.151-13.9a20.3,20.3,0,0,1,3.919-6.716,29.714,29.714,0,0,0,6.106-12.321c.639-2.565,1.271-5.133,1.855-8.082" transform="translate(-55.285 -18.909)" fill="#282828"></path></g></g></g></svg>