<?xml version="1.0" encoding="UTF-8"?>
<svg id="Layer_1" data-name="Layer 1" xmlns="http://www.w3.org/2000/svg" viewBox="0 0 1350 1080">
    <defs>
        <style>
            .cls-1 {
            fill: #0f0504;
            }

            .cls-2 {
            fill: #fff;
            }

            .cls-3 {
            fill: #a7a9ac;
            }
        </style>
    </defs>
    <path class="cls-1"
          d="M275.37,536.74c4.4-1.92,3.79-5.03,2.92-6.85-.33-.7-.78-1.34-1.32-1.92-10.1-10.93-7.68-16.64-7.68-16.64,6.68-19.28,0-28.91,0-28.91-2.07-3.87-4.36-7.41-6.83-10.62.19-.52.36-1.05.54-1.57l.38-1.1c.05-.18.14-.39.16-.54l.11-.5.23-.98.11-.5c.03-.08.01-.15.01-.22v-1.86c.18-2.42-.6-3.9-1.08-5.66l-1.22-2.01-.3-.51c-.1-.17-.22-.3-.41-.54-.37-.47-.97-1.09-1.41-1.47-.47-.41-.47-.4-.63-.52-.14-.11-.29-.23-.44-.34-.14-.11-.33-.22-.49-.34-.16-.11-.36-.23-.56-.34-.37-.23-.88-.48-1.34-.72l-.84-.33c-.15-.06-.26-.12-.44-.17l-.54-.15c-.36-.08-.67-.19-1.06-.28l-1.32-.17-.66-.08c-.26-.01-.56.01-.85.03l-1.73.1-.38.03c-.15.03-.36.12-.54.18l-1.08.39-2.18.79-.55.19-.71.44-1.44.91-.3.18c-.95-.48-1.92-.94-2.88-1.35.74-.88,1.48-1.78,2.22-2.69.38-.45.77-.98,1.14-1.46.37-.5.75-.96,1.13-1.49.74-1.07,1.48-2.07,2.2-3.25l.54-.85.27-.44s.1-.14.23-.41c.12-.21.23-.43.36-.65.89-1.76,1.58-3.93,1.74-6.21.16-2.29-.19-4.64-.95-6.71-.77-2.09-1.92-3.91-3.31-5.44-1.4-1.53-3.06-2.77-4.95-3.69-1.56-.77-3.32-1.31-5.19-1.53-1.88,1.67-1.5,4.08-3.21,5.37-2.2,1.65-24.37-9.88-25.37-11.96-2.4-5.04,3.66-11.71-9.17-12.19-5.5-.21-47.55,8.79-50.61,11.23-3.32,2.66-5.01,10.71-7.49,14.11-5.56,7.62-16.49,13.3-21.2,22.13-.85,1.6-6.63,34.06-6.44,35.86.71,6.42,22.79,29.15,28.58,32.16,8.69,4.53,32.44-7.5,43.46-3.35,1.5.56,11.82,6.31,12.39,7.05,2.1,2.78-1.81,10.09,0,14.36,1.81,4.26,7.26,9.12,10,14.34,2.62,5,3.97,10.14,4.16,15.29.49,4.73,17.91,5.9,22.27-.37.88-.74,1.72-1.31,2.46-1.61,6.81-2.81,5.65.43,16.91,5.39,11.25,4.97,17.13-1.57,17.06-6.9-.07-5.32,1.21-4.62,1.21-4.62.43.25.78.41,1.33.48,1.73.23,3.43-.94,3.75-2.66.51-2.91-2.99-4.51-2.99-4.51.43-.07,1.21-.23,1.61-.32.15-.03.3-.06.45-.11,3.4-1.07,3.87-5.87,1.08-6.63-2.84-.76-2.21-3.43-2.21-3.43,2.44.12,3.31-.33,3.31-.33Z"/>
    <g>
        <g>
            <path class="cls-1"
                  d="M815.32,433.86h-26.41v4.43h26.41v-4.43ZM810.63,429.56l2.6,7.27,4.17-1.49-2.6-7.27-4.17,1.49ZM791.45,431.03h21.27v-4.43h-21.27v4.43ZM791,436.81l2.54-7.27-4.18-1.46-2.54,7.27,4.18,1.46ZM789.5,442.73h-9.81v4.43h9.81v-4.43ZM802.64,407.58l-15.18,36.51,4.09,1.7,15.18-36.51-4.09-1.7ZM800.91,410.65h3.78v-4.43h-3.78v4.43ZM818.08,444.09l-15.12-36.51-4.09,1.7,15.12,36.51,4.09-1.7ZM826.07,442.73h-10.04v4.43h10.04v-4.43ZM805.56,404.49l18.49,41.35,4.04-1.81-18.49-41.35-4.04,1.81ZM798.13,405.8h9.45v-4.43h-9.45v4.43ZM781.72,445.84l18.43-41.35-4.05-1.8-18.43,41.35,4.05,1.8ZM815.32,436.08v2.22h3.15l-1.06-2.96-2.09.75ZM812.72,428.81l2.09-.75-.53-1.47h-1.56v2.22ZM791.45,428.81v-2.22h-1.57l-.52,1.48,2.09.73ZM788.91,436.08l-2.09-.73-1.03,2.95h3.12v-2.22ZM789.5,444.94v2.22h1.48l.57-1.36-2.05-.85ZM804.69,408.43l2.05.85,1.28-3.07h-3.32v2.22ZM800.91,408.43v-2.22h-3.32l1.27,3.06,2.05-.85ZM816.03,444.94l-2.05.85.57,1.37h1.48v-2.22ZM826.07,444.94v2.22h3.42l-1.4-3.12-2.02.9ZM807.58,403.59l2.02-.9-.59-1.31h-1.44v2.22ZM798.13,403.59v-2.22h-1.44l-.59,1.31,2.02.9ZM779.7,444.94l-2.02-.9-1.39,3.12h3.41v-2.22ZM741.67,441.73c-2.55,1.12-5.49,1.7-8.86,1.7v4.43c3.88,0,7.44-.68,10.64-2.08l-1.78-4.06ZM748.17,436.86c-1.74,2.12-3.89,3.74-6.49,4.87l1.76,4.07c3.23-1.4,5.96-3.44,8.16-6.12l-3.43-2.81ZM742.24,434.22l6.14,5.67,3.01-3.26-6.14-5.67-3.01,3.26ZM739.97,438.32c2.05-.98,3.86-2.42,5.45-4.28l-3.36-2.88c-1.24,1.45-2.58,2.49-4,3.16l1.91,4ZM733.34,439.71c2.34,0,4.55-.45,6.59-1.38l-1.83-4.03c-1.42.65-3,.98-4.75.98v4.43ZM727.22,438.62c1.9.74,3.95,1.1,6.12,1.1v-4.43c-1.69,0-3.18-.27-4.51-.79l-1.61,4.13ZM722.26,435.4c1.41,1.41,3.07,2.48,4.96,3.21l1.61-4.13c-1.34-.52-2.48-1.26-3.43-2.22l-3.13,3.13ZM719.01,430.49c.78,1.87,1.86,3.52,3.26,4.91l3.13-3.13c-.97-.97-1.73-2.12-2.3-3.48l-4.09,1.7ZM717.89,424.26c0,2.21.35,4.28,1.1,6.18l4.13-1.61c-.52-1.33-.79-2.84-.79-4.57h-4.43ZM718.99,418.08c-.74,1.9-1.1,3.97-1.1,6.18h4.43c0-1.73.28-3.24.79-4.57l-4.13-1.61ZM722.26,413.13c-1.4,1.4-2.48,3.04-3.26,4.91l4.09,1.7c.56-1.36,1.33-2.51,2.3-3.48l-3.13-3.13ZM727.22,409.91c-1.89.74-3.55,1.81-4.96,3.21l3.13,3.13c.96-.96,2.09-1.7,3.43-2.22l-1.61-4.13ZM733.34,408.82c-2.17,0-4.22.36-6.12,1.1l1.61,4.13c1.33-.52,2.83-.79,4.51-.79v-4.43ZM739.97,410.27c-2.05-.98-4.27-1.46-6.63-1.46v4.43c1.74,0,3.3.35,4.72,1.02l1.91-4ZM745.4,414.41c-1.6-1.82-3.42-3.23-5.47-4.16l-1.83,4.03c1.41.64,2.74,1.64,3.98,3.05l3.33-2.92ZM748.38,408.58l-6.14,5.67,3.01,3.26,6.14-5.67-3.01-3.26ZM741.7,406.81c2.59,1.08,4.73,2.68,6.47,4.8l3.43-2.81c-2.2-2.69-4.94-4.72-8.18-6.07l-1.71,4.09ZM732.87,405.09c3.32,0,6.24.58,8.8,1.7l1.78-4.06c-3.19-1.4-6.73-2.08-10.58-2.08v4.43ZM724.75,406.54c2.43-.95,5.13-1.44,8.11-1.44v-4.43c-3.48,0-6.73.57-9.73,1.75l1.61,4.13ZM718.32,410.52c1.83-1.72,3.96-3.05,6.41-3.97l-1.56-4.15c-2.98,1.12-5.62,2.75-7.89,4.89l3.04,3.22ZM714.1,416.59c1.03-2.34,2.44-4.36,4.23-6.09l-3.07-3.19c-2.22,2.13-3.96,4.64-5.22,7.5l4.06,1.78ZM712.63,424.26c0-2.84.5-5.4,1.48-7.7l-4.08-1.73c-1.23,2.9-1.83,6.05-1.83,9.43h4.43ZM714.11,431.97c-.98-2.3-1.48-4.86-1.48-7.7h-4.43c0,3.38.6,6.53,1.83,9.43l4.08-1.73ZM718.33,438.03c-1.8-1.72-3.2-3.75-4.23-6.09l-4.06,1.78c1.26,2.86,3,5.37,5.22,7.5l3.07-3.19ZM724.7,442.05c-2.46-.96-4.57-2.31-6.36-4.02l-3.07,3.19c2.23,2.14,4.84,3.79,7.82,4.96l1.61-4.13ZM732.81,443.43c-2.95,0-5.66-.47-8.15-1.4l-1.54,4.15c3.02,1.12,6.26,1.67,9.69,1.67v-4.43ZM742.56,443.76l-.88-2.03h0s0,0,0,0l.89,2.03ZM749.88,438.27l1.71,1.4,1.32-1.62-1.53-1.42-1.5,1.63ZM743.74,432.59l1.5-1.63-1.69-1.56-1.5,1.75,1.68,1.44ZM739.01,436.32l.92,2.02h.02s.02-.02.02-.02l-.95-2ZM723.83,433.83l-1.57,1.57,1.57-1.57ZM721.05,429.64l-2.06.81v.02s.02.02.02.02l2.05-.85ZM721.05,418.89l-2.05-.85v.02s-.02.02-.02.02l2.06.81ZM723.83,414.69l1.57,1.57-1.57-1.57ZM739.01,412.27l-.95,2h.02s.02.02.02.02l.92-2.02ZM743.74,415.88l-1.66,1.46,1.5,1.71,1.67-1.54-1.5-1.63ZM749.88,410.2l1.5,1.63,1.53-1.42-1.32-1.62-1.71,1.4ZM742.56,404.77l-.89,2.03h.02s.02.01.02.01l.86-2.04ZM723.95,404.47l.78,2.07h.01s.01-.01.01-.01l-.81-2.06ZM716.8,408.91l-1.52-1.61h0s0,.01,0,.01l1.53,1.6ZM712.07,415.7l-2.03-.89h0s0,.03,0,.03l2.04.87ZM712.07,432.83l-2.04.87h0s0,.03,0,.03l2.03-.89ZM716.8,439.62l-1.53,1.6,1.53-1.6ZM723.89,444.11l-.81,2.06h.02s.02.01.02.01l.77-2.08ZM673.67,442.73h-9.57v4.43h9.57v-4.43ZM671.45,403.59v41.35h4.43v-41.35h-4.43ZM664.1,405.8h9.57v-4.43h-9.57v4.43ZM666.31,444.94v-41.35h-4.43v41.35h4.43ZM673.67,444.94v2.22h2.22v-2.22h-2.22ZM673.67,403.59h2.22v-2.22h-2.22v2.22ZM664.1,403.59v-2.22h-2.22v2.22h2.22ZM664.1,444.94h-2.22v2.22h2.22v-2.22ZM598.47,406.84v23.45h4.43v-23.45h-4.43ZM598.05,412.9l4.25-4.55-3.24-3.03-4.25,4.55,3.24,3.03ZM608.49,409.17h-12.05v4.43h12.05v-4.43ZM616.55,411.6c-2.03-1.75-4.85-2.43-8.07-2.43v4.43c2.69,0,4.28.58,5.17,1.35l2.9-3.35ZM619.5,418.59c0-2.8-.92-5.23-2.95-6.99l-2.9,3.35c.88.76,1.42,1.87,1.42,3.64h4.43ZM616.58,425.56c2-1.78,2.93-4.2,2.93-6.97h-4.43c0,1.72-.53,2.85-1.45,3.66l2.95,3.31ZM608.49,428.02c3.21,0,6.04-.68,8.07-2.43l-2.9-3.35c-.89.77-2.47,1.35-5.17,1.35v4.43ZM596.43,428.02h12.05v-4.43h-12.05v4.43ZM602.3,428.77l-4.25-4.49-3.22,3.05,4.25,4.49,3.22-3.05ZM627.74,442.73h-10.34v4.43h10.34v-4.43ZM615.47,431.2l10.46,15.01,3.64-2.53-10.46-15.01-3.64,2.53ZM607.07,432.15h10.22v-4.43h-10.22v4.43ZM619.23,443.68l-10.34-15.01-3.65,2.51,10.34,15.01,3.65-2.51ZM600.69,442.73h-9.57v4.43h9.57v-4.43ZM598.47,429.23v15.71h4.43v-15.71h-4.43ZM597.99,435l4.25-4.19-3.11-3.15-4.25,4.19,3.11,3.15ZM609.02,431.21h-12.58v4.43h12.58v-4.43ZM617.69,429.62c-2.33,1.03-5.2,1.58-8.68,1.58v4.43c3.93,0,7.44-.63,10.46-1.96l-1.79-4.05ZM622.94,425.35c-1.2,1.81-2.92,3.25-5.25,4.27l1.79,4.05c3.02-1.33,5.44-3.29,7.16-5.89l-3.7-2.44ZM624.76,418.59c0,2.71-.64,4.93-1.83,6.77l3.72,2.41c1.72-2.65,2.54-5.75,2.54-9.18h-4.43ZM622.93,411.77c1.19,1.83,1.83,4.07,1.83,6.83h4.43c0-3.47-.82-6.58-2.54-9.24l-3.72,2.41ZM617.69,407.45c2.32,1.02,4.04,2.47,5.24,4.32l3.72-2.41c-1.71-2.64-4.13-4.62-7.17-5.96l-1.79,4.05ZM609.02,405.8c3.46,0,6.33.57,8.65,1.63l1.84-4.03c-3.03-1.38-6.55-2.03-10.49-2.03v4.43ZM591.12,405.8h17.9v-4.43h-17.9v4.43ZM593.33,444.94v-41.35h-4.43v41.35h4.43ZM600.69,406.84h2.22v-5.61l-3.83,4.1,1.62,1.51ZM596.43,411.39l-1.62-1.51-3.49,3.73h5.1v-2.22ZM615.1,423.91l1.45,1.68h.01s.01-.02.01-.02l-1.47-1.65ZM596.43,425.8v-2.22h-5.15l3.54,3.74,1.61-1.52ZM600.69,430.29l-1.61,1.52,3.82,4.04v-5.56h-2.22ZM627.74,444.94v2.22h4.24l-2.43-3.48-1.82,1.27ZM617.29,429.94l1.82-1.27-.66-.95h-1.16v2.22ZM607.07,429.94v-2.22h-4.22l2.39,3.47,1.82-1.26ZM617.41,444.94l-1.82,1.26.66.96h1.16v-2.22ZM600.69,444.94v2.22h2.22v-2.22h-2.22ZM600.69,429.23h2.22v-5.3l-3.77,3.72,1.56,1.58ZM596.43,433.42l-1.56-1.58-3.85,3.79h5.4v-2.22ZM618.59,431.65l.89,2.03-.89-2.03ZM624.79,426.57l1.85,1.22h0s0-.02,0-.02l-1.86-1.21ZM624.79,410.56l-1.86,1.21,1.86-1.21ZM618.59,405.42l-.92,2.02h.01s.01.01.01.01l.89-2.03ZM591.12,403.59v-2.22h-2.22v2.22h2.22ZM591.12,444.94h-2.22v2.22h2.22v-2.22ZM531.21,411.27v33.67h4.43v-33.67h-4.43ZM555.1,409.05h-21.68v4.43h21.68v-4.43ZM552.89,403.59v7.68h4.43v-7.68h-4.43ZM523.85,405.8h31.25v-4.43h-31.25v4.43ZM526.07,444.94v-41.35h-4.43v41.35h4.43ZM533.42,442.73h-9.57v4.43h9.57v-4.43ZM534.93,429.88v-7.68h-4.43v7.68h4.43ZM552.56,427.66h-19.85v4.43h19.85v-4.43ZM550.35,422.2v7.68h4.43v-7.68h-4.43ZM532.71,424.41h19.85v-4.43h-19.85v4.43ZM533.42,411.27v-2.22h-2.22v2.22h2.22ZM555.1,411.27v2.22h2.22v-2.22h-2.22ZM555.1,403.59h2.22v-2.22h-2.22v2.22ZM523.85,403.59v-2.22h-2.22v2.22h2.22ZM523.85,444.94h-2.22v2.22h2.22v-2.22ZM533.42,444.94v2.22h2.22v-2.22h-2.22ZM532.71,429.88h-2.22v2.22h2.22v-2.22ZM552.56,429.88v2.22h2.22v-2.22h-2.22ZM552.56,422.2h2.22v-2.22h-2.22v2.22ZM532.71,422.2v-2.22h-2.22v2.22h2.22ZM479.27,433.86h-26.41v4.43h26.41v-4.43ZM474.59,429.56l2.6,7.27,4.17-1.49-2.6-7.27-4.17,1.49ZM455.4,431.03h21.27v-4.43h-21.27v4.43ZM454.96,436.81l2.54-7.27-4.18-1.46-2.54,7.27,4.18,1.46ZM453.45,442.73h-9.81v4.43h9.81v-4.43ZM466.59,407.58l-15.18,36.51,4.09,1.7,15.18-36.51-4.09-1.7ZM464.86,410.65h3.78v-4.43h-3.78v4.43ZM482.03,444.09l-15.12-36.51-4.09,1.7,15.12,36.51,4.09-1.7ZM490.02,442.73h-10.04v4.43h10.04v-4.43ZM469.51,404.49l18.49,41.35,4.04-1.81-18.49-41.35-4.04,1.81ZM462.08,405.8h9.45v-4.43h-9.45v4.43ZM445.67,445.84l18.43-41.35-4.05-1.8-18.43,41.35,4.05,1.8ZM479.27,436.08v2.22h3.15l-1.06-2.96-2.09.75ZM476.67,428.81l2.09-.75-.53-1.47h-1.56v2.22ZM455.4,428.81v-2.22h-1.57l-.52,1.48,2.09.73ZM452.86,436.08l-2.09-.73-1.03,2.95h3.12v-2.22ZM453.45,444.94v2.22h1.48l.57-1.36-2.05-.85ZM468.64,408.43l2.05.85,1.28-3.07h-3.32v2.22ZM464.86,408.43v-2.22h-3.32l1.27,3.06,2.05-.85ZM479.98,444.94l-2.05.85.57,1.37h1.48v-2.22ZM490.02,444.94v2.22h3.42l-1.39-3.12-2.02.9ZM471.53,403.59l2.02-.9-.59-1.31h-1.44v2.22ZM462.08,403.59v-2.22h-1.44l-.59,1.31,2.02.9ZM443.65,444.94l-2.02-.9-1.39,3.12h3.41v-2.22Z"/>
            <path class="cls-1"
                  d="M1190.35,534.43h49.11v24.97h-81.66v-98.21h79.83v24.97h-47.28v48.26ZM1188.11,497.67h43.77v23.85h-43.77v-23.85ZM1082.16,524.74l-14.73-15.01h26.8c4.58,0,7.95-1.03,10.1-3.09,2.24-2.06,3.37-4.86,3.37-8.42s-1.12-6.36-3.37-8.42c-2.15-2.06-5.52-3.09-10.1-3.09h-26.8l14.73-15.01v53.03ZM1107.84,559.4l-24.13-35.78h35.08l24.41,35.78h-35.36ZM1049.05,559.4v-98.21h47.28c9.17,0,17.07,1.5,23.71,4.49,6.73,2.99,11.93,7.3,15.57,12.91,3.65,5.52,5.47,12.07,5.47,19.64s-1.82,14.12-5.47,19.64c-3.65,5.43-8.84,9.59-15.57,12.49-6.64,2.9-14.54,4.35-23.71,4.35h-28.9l14.73-13.61v38.3h-33.11ZM946.67,542.28l8.42-23.85h45.18l8.42,23.85h-62.01ZM921.14,559.4l42.93-98.21h32.55l42.93,98.21h-34.23l-31.71-82.5h12.91l-31.71,82.5h-33.67ZM875.35,561.64c-7.86,0-15.15-1.22-21.89-3.65-6.64-2.53-12.44-6.08-17.4-10.66-4.86-4.58-8.65-10.01-11.36-16.28-2.71-6.27-4.07-13.19-4.07-20.77s1.36-14.5,4.07-20.77c2.71-6.27,6.5-11.69,11.36-16.28,4.96-4.58,10.76-8.09,17.4-10.52,6.73-2.53,14.03-3.79,21.89-3.79,9.63,0,18.15,1.68,25.54,5.05,7.48,3.37,13.66,8.23,18.52,14.59l-20.91,18.66c-2.9-3.65-6.13-6.45-9.68-8.42-3.46-2.06-7.39-3.09-11.79-3.09-3.46,0-6.59.56-9.4,1.68-2.81,1.12-5.24,2.76-7.3,4.91-1.96,2.15-3.51,4.77-4.63,7.86-1.12,2.99-1.68,6.36-1.68,10.1s.56,7.16,1.68,10.24c1.12,2.99,2.67,5.57,4.63,7.72,2.06,2.15,4.49,3.79,7.3,4.91,2.81,1.12,5.94,1.68,9.4,1.68,4.4,0,8.32-.98,11.79-2.95,3.55-2.06,6.78-4.91,9.68-8.56l20.91,18.66c-4.86,6.27-11.04,11.13-18.52,14.59-7.39,3.37-15.9,5.05-25.54,5.05ZM707.58,559.4v-98.21h27.22l49.95,59.77h-12.63v-59.77h32.27v98.21h-27.22l-49.95-59.77h12.63v59.77h-32.27ZM654.32,559.4v-98.21h33.11v98.21h-33.11ZM607.37,559.4l-28.9-38.16,21.47-22.73,45.74,60.89h-38.3ZM542.83,559.4v-98.21h32.55v98.21h-32.55ZM572.43,538.35l-1.82-36.34,37.04-40.83h36.06l-41.53,45.74-18.38,18.8-11.36,12.63ZM483.03,561.64c-8.23,0-16.18-.94-23.85-2.81-7.67-1.87-13.98-4.3-18.94-7.3l10.66-24.13c4.68,2.71,9.87,4.91,15.57,6.59,5.8,1.59,11.41,2.39,16.84,2.39,3.18,0,5.66-.19,7.44-.56,1.87-.47,3.23-1.08,4.07-1.82.84-.84,1.26-1.82,1.26-2.95,0-1.78-.98-3.18-2.95-4.21-1.96-1.03-4.58-1.87-7.86-2.53-3.18-.75-6.69-1.5-10.52-2.24-3.83-.84-7.72-1.92-11.65-3.23-3.83-1.31-7.39-3.04-10.66-5.19-3.18-2.15-5.75-4.96-7.72-8.42-1.96-3.55-2.95-7.95-2.95-13.19,0-6.08,1.68-11.6,5.05-16.56,3.46-5.05,8.56-9.07,15.29-12.07,6.83-2.99,15.29-4.49,25.4-4.49,6.64,0,13.19.7,19.64,2.1,6.45,1.4,12.25,3.55,17.4,6.45l-9.96,23.99c-4.86-2.43-9.59-4.26-14.17-5.47-4.49-1.22-8.89-1.82-13.19-1.82-3.18,0-5.71.28-7.58.84-1.87.56-3.23,1.31-4.07,2.24-.75.94-1.12,1.96-1.12,3.09,0,1.68.98,3.04,2.95,4.07,1.96.94,4.54,1.73,7.72,2.39,3.27.65,6.83,1.36,10.66,2.1,3.93.75,7.81,1.78,11.65,3.09,3.83,1.31,7.34,3.04,10.52,5.19,3.27,2.15,5.89,4.96,7.86,8.42,1.96,3.46,2.95,7.76,2.95,12.91,0,5.99-1.73,11.5-5.19,16.56-3.37,4.96-8.42,8.98-15.15,12.07-6.73,2.99-15.2,4.49-25.4,4.49Z"/>
            <path class="cls-1"
                  d="M1235.13,670h-75.61v8.65h75.61v-8.65ZM1230.81,649.26v25.07h8.65v-25.07h-8.65ZM1191.85,653.58h43.28v-8.65h-43.28v8.65ZM1187.52,578.44v70.82h8.65v-70.82h-8.65ZM1159.52,582.77h32.33v-8.65h-32.33v8.65ZM1163.85,674.33v-95.88h-8.65v95.88h8.65ZM1235.13,674.33v4.33h4.33v-4.33h-4.33ZM1235.13,649.26h4.33v-4.33h-4.33v4.33ZM1191.85,649.26h-4.33v4.33h4.33v-4.33ZM1191.85,578.44h4.33v-4.33h-4.33v4.33ZM1159.52,578.44v-4.33h-4.33v4.33h4.33ZM1159.52,674.33h-4.33v4.33h4.33v-4.33ZM1110.53,653.29h-60.54v8.65h60.54v-8.65ZM1098.23,635.77l8.22,23.29,8.16-2.88-8.22-23.29-8.16,2.88ZM1058.2,638.65h44.11v-8.65h-44.11v8.65ZM1054.06,659.05l8.22-23.29-8.16-2.88-8.22,23.29,8.16,2.88ZM1057.93,670h-32.87v8.65h32.87v-8.65ZM1084.85,592.23l-30.96,80.54,8.08,3.1,30.96-80.54-8.08-3.1ZM1076.28,598.11h12.6v-8.65h-12.6v8.65ZM1111.28,672.77l-30.96-80.54-8.08,3.1,30.96,80.54,8.08-3.1ZM1140.66,670h-33.42v8.65h33.42v-8.65ZM1094.78,580.17l41.92,95.88,7.93-3.47-41.92-95.88-7.93,3.47ZM1066.97,582.77h31.78v-8.65h-31.78v8.65ZM1029.02,676.06l41.92-95.88-7.93-3.47-41.92,95.88,7.93,3.47ZM1110.53,657.61v4.33h6.11l-2.03-5.77-4.08,1.44ZM1102.31,634.33l4.08-1.44-1.02-2.89h-3.06v4.33ZM1058.2,634.33v-4.33h-3.06l-1.02,2.89,4.08,1.44ZM1049.98,657.61l-4.08-1.44-2.03,5.77h6.11v-4.33ZM1057.93,674.33v4.33h2.97l1.07-2.77-4.04-1.55ZM1088.89,593.78l4.04,1.55,2.26-5.88h-6.3v4.33ZM1076.28,593.78v-4.33h-6.3l2.26,5.88,4.04-1.55ZM1107.24,674.33l-4.04,1.55,1.07,2.77h2.97v-4.33ZM1140.66,674.33v4.33h6.61l-2.65-6.06-3.96,1.73ZM1098.75,578.44l3.96-1.73-1.13-2.59h-2.83v4.33ZM1066.97,578.44v-4.33h-2.83l-1.13,2.59,3.96,1.73ZM1025.05,674.33l-3.96-1.73-2.65,6.06h6.61v-4.33ZM981.48,670h-31.78v8.65h31.78v-8.65ZM1018.04,576.76l-40.55,95.88,7.97,3.37,40.55-95.88-7.97-3.37ZM990.25,582.77h31.78v-8.65h-31.78v8.65ZM960.27,661.07l33.97-80.95-7.98-3.35-33.97,80.95,7.98,3.35ZM976.96,655.07h-20.68v8.65h20.68v-8.65ZM939.95,580.07l33.01,80.95,8.01-3.27-33.01-80.95-8.01,3.27ZM909.16,582.77h34.79v-8.65h-34.79v8.65ZM953.69,672.64l-40.55-95.88-7.97,3.37,40.55,95.88,7.97-3.37ZM981.48,674.33v4.33h2.87l1.12-2.64-3.98-1.68ZM1022.03,578.44l3.98,1.68,2.54-6.01h-6.53v4.33ZM990.25,578.44v-4.33h-2.88l-1.11,2.65,3.99,1.67ZM956.28,659.39l-3.99-1.67-2.52,6h6.51v-4.33ZM976.96,659.39v4.33h6.44l-2.43-5.96-4.01,1.63ZM943.95,578.44l4.01-1.63-1.1-2.69h-2.91v4.33ZM909.16,578.44v-4.33h-6.53l2.54,6.01,3.98-1.68ZM949.7,674.33l-3.98,1.68,1.12,2.64h2.87v-4.33ZM890.31,670h-32.33v8.65h32.33v-8.65ZM885.98,578.44v95.88h8.65v-95.88h-8.65ZM857.98,582.77h32.33v-8.65h-32.33v8.65ZM862.31,674.33v-95.88h-8.65v95.88h8.65ZM890.31,674.33v4.33h4.33v-4.33h-4.33ZM890.31,578.44h4.33v-4.33h-4.33v4.33ZM857.98,578.44v-4.33h-4.33v4.33h4.33ZM857.98,674.33h-4.33v4.33h4.33v-4.33ZM807.81,670h-32.33v8.65h32.33v-8.65ZM803.48,603.51v70.82h8.65v-70.82h-8.65ZM835.89,599.18h-28.08v8.65h28.08v-8.65ZM831.56,578.44v25.07h8.65v-25.07h-8.65ZM747.4,582.77h88.49v-8.65h-88.49v8.65ZM751.73,603.51v-25.07h-8.65v25.07h8.65ZM775.48,599.18h-28.08v8.65h28.08v-8.65ZM779.81,674.33v-70.82h-8.65v70.82h8.65ZM807.81,674.33v4.33h4.33v-4.33h-4.33ZM807.81,603.51v-4.33h-4.33v4.33h4.33ZM835.89,603.51v4.33h4.33v-4.33h-4.33ZM835.89,578.44h4.33v-4.33h-4.33v4.33ZM747.4,578.44v-4.33h-4.33v4.33h4.33ZM747.4,603.51h-4.33v4.33h4.33v-4.33ZM775.48,603.51h4.33v-4.33h-4.33v4.33ZM775.48,674.33h-4.33v4.33h4.33v-4.33ZM711.06,668.18c-5.85,2.6-13.47,4.01-23.04,4.01v8.65c10.34,0,19.25-1.51,26.55-4.76l-3.51-7.91ZM724.03,657.92c-2.75,4.05-6.99,7.52-13.02,10.28l3.6,7.86c7.12-3.27,12.74-7.65,16.57-13.28l-7.16-4.86ZM728.35,644.19c0,4.95-1.41,9.49-4.31,13.72l7.14,4.89c3.86-5.63,5.83-11.87,5.83-18.61h-8.65ZM726.04,633.72c1.46,2.56,2.31,5.98,2.31,10.47h8.65c0-5.56-1.06-10.54-3.44-14.74l-7.52,4.27ZM719.76,626.98c2.61,1.72,4.7,3.95,6.28,6.74l7.52-4.27c-2.25-3.97-5.28-7.22-9.06-9.7l-4.75,7.23ZM710.46,622.39c3.4,1.16,6.48,2.68,9.25,4.56l4.85-7.17c-3.44-2.33-7.21-4.18-11.3-5.58l-2.8,8.19ZM699.68,619.54c3.63.69,7.23,1.64,10.78,2.86l2.8-8.19c-3.93-1.34-7.92-2.4-11.96-3.17l-1.62,8.5ZM689.23,617.47c3.2.64,6.68,1.33,10.43,2.06l1.66-8.49c-3.74-.73-7.2-1.41-10.39-2.05l-1.7,8.48ZM680.69,614.81c2.35,1.12,5.22,1.98,8.52,2.66l1.74-8.47c-2.91-.6-5.06-1.29-6.55-2l-3.72,7.81ZM675.34,606.93c0,3.77,2.38,6.33,5.2,7.8l4.01-7.66c-.55-.29-.68-.48-.66-.45.01.02.05.07.07.15.03.08.03.14.03.16h-8.65ZM677.39,601.22c-1.3,1.62-2.04,3.57-2.04,5.72h8.65c0-.06,0-.08.01-.1,0-.02.04-.09.13-.21l-6.76-5.4ZM683.5,597.58c-2.2.66-4.38,1.7-5.94,3.44l6.43,5.79c.08-.08.55-.51,2-.94l-2.49-8.29ZM692.14,596.58c-3.3,0-6.24.28-8.64,1l2.49,8.29c1.25-.38,3.24-.64,6.15-.64v-8.65ZM706.14,598.51c-4.72-1.28-9.39-1.93-14.01-1.93v8.65c3.79,0,7.7.53,11.75,1.63l2.26-8.35ZM720.78,604.16c-4.97-2.49-9.86-4.38-14.66-5.65l-2.22,8.36c4.15,1.1,8.49,2.77,13.01,5.03l3.87-7.74ZM724.58,582.95l-9.73,23.42,7.99,3.32,9.73-23.42-7.99-3.32ZM710.67,582.53c5.93,1.29,11.18,3.25,15.78,5.84l4.25-7.54c-5.44-3.07-11.52-5.31-18.19-6.76l-1.84,8.45ZM692.41,580.57c6.18,0,12.26.65,18.26,1.96l1.84-8.45c-6.6-1.44-13.3-2.15-20.1-2.15v8.65ZM669.35,584.59c5.96-2.61,13.59-4.02,23.06-4.02v-8.65c-10.26,0-19.16,1.52-26.53,4.75l3.47,7.92ZM656.25,594.86c2.84-4.15,7.13-7.61,13.12-10.27l-3.51-7.91c-7.16,3.18-12.83,7.57-16.74,13.29l7.14,4.89ZM652.08,608.58c0-5.08,1.39-9.62,4.18-13.73l-7.16-4.86c-3.78,5.57-5.68,11.8-5.68,18.59h8.65ZM654.42,619.36c-1.48-2.67-2.34-6.2-2.34-10.78h-8.65c0,5.64,1.06,10.7,3.42,14.97l7.57-4.18ZM660.59,626.09c-2.53-1.71-4.59-3.95-6.2-6.77l-7.52,4.27c2.23,3.94,5.2,7.18,8.87,9.67l4.85-7.17ZM669.97,630.65c-3.41-1.16-6.55-2.7-9.43-4.59l-4.75,7.23c3.51,2.31,7.31,4.15,11.39,5.55l2.8-8.19ZM680.87,633.66c-3.59-.79-7.23-1.8-10.93-3.03l-2.74,8.21c3.97,1.32,7.91,2.42,11.81,3.27l1.85-8.45ZM691.21,635.87c-3.17-.75-6.65-1.49-10.44-2.23l-1.66,8.49c3.7.72,7.07,1.44,10.11,2.16l1.98-8.42ZM699.9,638.71c-2.42-1.27-5.41-2.19-8.83-2.88l-1.7,8.48c2.97.59,5.09,1.31,6.51,2.06l4.01-7.66ZM705.09,646.66c0-3.77-2.27-6.41-5.2-7.94l-4.01,7.66c.52.27.64.45.62.43-.01-.02-.03-.05-.05-.11-.02-.05-.01-.07-.01-.04h8.65ZM702.59,652.59c1.58-1.58,2.5-3.62,2.5-5.94h-8.65s0-.02,0-.05c0-.04.02-.07.03-.11.02-.04.03-.06.03-.06,0,0,0,.01-.04.05l6.12,6.12ZM696.61,655.51c2.08-.52,4.21-1.33,5.8-2.74l-5.75-6.47s-.12.11-.51.28c-.37.17-.91.35-1.64.54l2.1,8.39ZM688.3,656.19c3.22,0,5.98-.18,8.15-.64l-1.78-8.47c-1.3.27-3.38.46-6.37.46v8.65ZM670.72,653.7c5.99,1.64,11.86,2.48,17.58,2.48v-8.65c-4.87,0-9.96-.71-15.29-2.17l-2.29,8.34ZM654.49,646.84c4.89,2.84,10.28,5.11,16.15,6.84l2.45-8.3c-5.27-1.56-10.02-3.57-14.26-6.03l-4.34,7.48ZM650.2,668.4l10.41-23.56-7.91-3.5-10.41,23.56,7.91,3.5ZM665.76,669.57c-7.21-1.76-12.93-3.99-17.28-6.62l-4.47,7.41c5.32,3.21,11.93,5.73,19.7,7.62l2.05-8.4ZM688.03,672.19c-7.71,0-15.12-.88-22.26-2.62l-2.05,8.4c7.84,1.91,15.94,2.86,24.31,2.86v-8.65ZM712.82,672.13l1.76,3.95h.02s.02-.02.02-.02l-1.8-3.93ZM727.61,660.35l-3.57-2.44h0s0,.01,0,.01l3.58,2.43ZM729.8,631.59l-3.76,2.14,3.76-2.14ZM722.13,623.37l-2.42,3.58.02.02.02.02,2.38-3.61ZM711.86,618.3l-1.4,4.09,1.4-4.09ZM700.49,615.29l-.83,4.25h0s0,0,0,0l.81-4.25ZM690.08,613.23l-.87,4.24h.01s.01,0,.01,0l.85-4.24ZM682.55,610.9l-2.01,3.83.07.04.07.04,1.86-3.91ZM680.77,603.92l-3.22-2.89-.08.09-.08.1,3.38,2.7ZM684.74,601.73l-1.24-4.14,1.24,4.14ZM705.01,602.69l-1.13,4.18h.01s.01,0,.01,0l1.11-4.18ZM718.85,608.03l-1.93,3.87,4.15,2.08,1.78-4.29-3.99-1.66ZM728.57,584.6l3.99,1.66,1.47-3.54-3.34-1.88-2.12,3.77ZM711.59,578.3l-.92,4.23.92-4.23ZM667.62,580.63l-1.74-3.96h-.01s-.01,0-.01,0l1.76,3.95ZM652.69,592.41l-3.57-2.44h0s0,.01,0,.01l3.58,2.43ZM650.63,621.45l-3.79,2.09v.02s.02.02.02.02l3.76-2.14ZM658.16,629.67l-2.42,3.58.02.02.02.02,2.38-3.61ZM668.57,634.74l-1.4,4.09h.01s.01.01.01.01l1.37-4.1ZM679.94,637.89l-.93,4.23h.05s.05.02.05.02l.83-4.25ZM690.22,640.08l-.99,4.21.07.02h.07s.85-4.23.85-4.23ZM697.89,642.55l-2.01,3.83,2.01-3.83ZM699.53,649.53l2.87,3.23.09-.08.09-.09-3.06-3.06ZM695.56,651.31l.89,4.23.08-.02.08-.02-1.05-4.2ZM671.86,649.53l-1.22,4.15h.04s.04.02.04.02l1.14-4.17ZM656.66,643.09l2.17-3.74-4.18-2.42-1.95,4.42,3.96,1.75ZM646.25,666.65l-3.96-1.75-1.54,3.48,3.26,1.97,2.24-3.7ZM664.74,673.78l1.02-4.2-1.02,4.2ZM573.86,602.82v47.12h8.65v-47.12h-8.65ZM624.35,598.5h-46.16v8.65h46.16v-8.65ZM620.03,578.44v24.38h8.65v-24.38h-8.65ZM546.41,582.77h77.94v-8.65h-77.94v8.65ZM550.74,674.33v-95.88h-8.65v95.88h8.65ZM626.13,670h-79.72v8.65h79.72v-8.65ZM621.81,649.94v24.38h8.65v-24.38h-8.65ZM578.19,654.27h47.94v-8.65h-47.94v8.65ZM580.32,637.34v-23.29h-8.65v23.29h8.65ZM618.74,633.02h-42.74v8.65h42.74v-8.65ZM614.41,614.06v23.29h8.65v-23.29h-8.65ZM576,618.38h42.74v-8.65h-42.74v8.65ZM578.19,602.82v-4.33h-4.33v4.33h4.33ZM624.35,602.82v4.33h4.33v-4.33h-4.33ZM624.35,578.44h4.33v-4.33h-4.33v4.33ZM546.41,578.44v-4.33h-4.33v4.33h4.33ZM546.41,674.33h-4.33v4.33h4.33v-4.33ZM626.13,674.33v4.33h4.33v-4.33h-4.33ZM626.13,649.94h4.33v-4.33h-4.33v4.33ZM578.19,649.94h-4.33v4.33h4.33v-4.33ZM576,637.34h-4.33v4.33h4.33v-4.33ZM618.74,637.34v4.33h4.33v-4.33h-4.33ZM618.74,614.06h4.33v-4.33h-4.33v4.33ZM576,614.06v-4.33h-4.33v4.33h4.33ZM472.56,602.82v71.5h8.65v-71.5h-8.65ZM522.5,598.5h-45.61v8.65h45.61v-8.65ZM518.18,578.44v24.38h8.65v-24.38h-8.65ZM444.56,582.77h77.94v-8.65h-77.94v8.65ZM448.89,674.33v-95.88h-8.65v95.88h8.65ZM476.89,670h-32.33v8.65h32.33v-8.65ZM479.02,643.64v-24.38h-8.65v24.38h8.65ZM516.89,639.32h-42.19v8.65h42.19v-8.65ZM512.56,619.26v24.38h8.65v-24.38h-8.65ZM474.7,623.59h42.19v-8.65h-42.19v8.65ZM476.89,602.82v-4.33h-4.33v4.33h4.33ZM522.5,602.82v4.33h4.33v-4.33h-4.33ZM522.5,578.44h4.33v-4.33h-4.33v4.33ZM444.56,578.44v-4.33h-4.33v4.33h4.33ZM444.56,674.33h-4.33v4.33h4.33v-4.33ZM476.89,674.33v4.33h4.33v-4.33h-4.33ZM474.7,643.64h-4.33v4.33h4.33v-4.33ZM516.89,643.64v4.33h4.33v-4.33h-4.33ZM516.89,619.26h4.33v-4.33h-4.33v4.33ZM474.7,619.26v-4.33h-4.33v4.33h4.33Z"/>
        </g>
        <g>
            <path class="cls-2"
                  d="M788.91,436.08l2.54-7.27h21.27l2.6,7.27h-26.41ZM779.7,444.94l18.43-41.35h9.45l18.49,41.35h-10.04l-15.12-36.51h3.78l-15.18,36.51h-9.81ZM732.81,445.65c-3.19,0-6.16-.51-8.92-1.54-2.72-1.06-5.08-2.56-7.09-4.49-2.01-1.93-3.58-4.19-4.73-6.79-1.1-2.6-1.65-5.45-1.65-8.57s.55-5.97,1.65-8.57c1.14-2.6,2.72-4.86,4.73-6.79,2.05-1.93,4.43-3.41,7.15-4.43,2.72-1.06,5.69-1.6,8.92-1.6,3.58,0,6.81.63,9.69,1.89,2.91,1.22,5.36,3.03,7.33,5.43l-6.14,5.67c-1.42-1.61-2.99-2.82-4.73-3.6-1.73-.83-3.62-1.24-5.67-1.24-1.93,0-3.7.32-5.32.95-1.61.63-3.01,1.54-4.19,2.72-1.18,1.18-2.11,2.58-2.78,4.19-.63,1.61-.95,3.41-.95,5.38s.32,3.76.95,5.38c.67,1.61,1.59,3.01,2.78,4.19,1.18,1.18,2.58,2.09,4.19,2.72,1.61.63,3.39.95,5.32.95,2.05,0,3.94-.39,5.67-1.18,1.73-.83,3.31-2.07,4.73-3.72l6.14,5.67c-1.97,2.4-4.41,4.23-7.33,5.49-2.87,1.26-6.12,1.89-9.75,1.89ZM664.1,444.94v-41.35h9.57v41.35h-9.57ZM600.69,430.29l-4.25-4.49h12.05c2.95,0,5.16-.63,6.62-1.89,1.46-1.3,2.19-3.07,2.19-5.32s-.73-4.06-2.19-5.32c-1.46-1.26-3.66-1.89-6.62-1.89h-12.05l4.25-4.55v23.45ZM617.41,444.94l-10.34-15.01h10.22l10.46,15.01h-10.34ZM591.12,444.94v-41.35h17.9c3.7,0,6.89.61,9.57,1.83,2.68,1.18,4.75,2.89,6.2,5.14,1.46,2.24,2.19,4.92,2.19,8.03s-.73,5.73-2.19,7.98c-1.46,2.21-3.52,3.9-6.2,5.08-2.68,1.18-5.87,1.77-9.57,1.77h-12.58l4.25-4.19v15.71h-9.57ZM533.42,444.94h-9.57v-41.35h31.25v7.68h-21.68v33.67ZM532.71,422.2h19.85v7.68h-19.85v-7.68ZM452.86,436.08l2.54-7.27h21.27l2.6,7.27h-26.41ZM443.65,444.94l18.43-41.35h9.45l18.49,41.35h-10.04l-15.12-36.51h3.78l-15.18,36.51h-9.81Z"/>
            <path class="cls-2"
                  d="M1159.52,674.33v-95.88h32.33v70.82h43.28v25.07h-75.61ZM1049.98,657.61l8.22-23.29h44.11l8.22,23.29h-60.54ZM1025.05,674.33l41.92-95.88h31.78l41.92,95.88h-33.42l-30.96-80.54h12.6l-30.96,80.54h-32.87ZM949.7,674.33l-40.55-95.88h34.79l33.01,80.95h-20.68l33.97-80.95h31.78l-40.55,95.88h-31.78ZM857.98,674.33v-95.88h32.33v95.88h-32.33ZM775.48,674.33v-70.82h-28.08v-25.07h88.49v25.07h-28.08v70.82h-32.33ZM688.03,676.52c-8.04,0-15.8-.91-23.29-2.74-7.49-1.83-13.65-4.2-18.49-7.12l10.41-23.56c4.57,2.65,9.63,4.79,15.2,6.44,5.66,1.55,11.14,2.33,16.44,2.33,3.1,0,5.52-.18,7.26-.55,1.83-.46,3.15-1.05,3.97-1.78.82-.82,1.23-1.78,1.23-2.88,0-1.74-.96-3.1-2.88-4.11s-4.47-1.83-7.67-2.47c-3.1-.73-6.53-1.46-10.27-2.19-3.74-.82-7.53-1.87-11.37-3.15-3.74-1.28-7.21-2.97-10.41-5.07-3.1-2.1-5.62-4.84-7.53-8.22-1.92-3.47-2.88-7.76-2.88-12.88,0-5.94,1.64-11.32,4.93-16.16,3.38-4.93,8.36-8.86,14.93-11.78,6.67-2.92,14.93-4.38,24.79-4.38,6.48,0,12.88.68,19.18,2.05,6.3,1.37,11.96,3.47,16.99,6.3l-9.73,23.42c-4.75-2.37-9.36-4.15-13.83-5.34-4.38-1.19-8.68-1.78-12.88-1.78-3.1,0-5.57.27-7.4.82-1.83.55-3.15,1.28-3.97,2.19-.73.91-1.1,1.92-1.1,3.01,0,1.64.96,2.97,2.88,3.97,1.92.91,4.43,1.69,7.53,2.33,3.2.64,6.67,1.32,10.41,2.05,3.84.73,7.63,1.74,11.37,3.01,3.74,1.28,7.17,2.97,10.27,5.07,3.2,2.1,5.75,4.84,7.67,8.22,1.92,3.38,2.88,7.58,2.88,12.6,0,5.84-1.69,11.23-5.07,16.16-3.29,4.84-8.22,8.77-14.79,11.78-6.58,2.92-14.84,4.38-24.79,4.38ZM578.19,649.94h47.94v24.38h-79.72v-95.88h77.94v24.38h-46.16v47.12ZM576,614.06h42.74v23.29h-42.74v-23.29ZM476.89,674.33h-32.33v-95.88h77.94v24.38h-45.61v71.5ZM474.7,619.26h42.19v24.38h-42.19v-24.38Z"/>
        </g>
    </g>
    <path class="cls-3"
          d="M262.66,409.5c-4.89,0-8.86,3.97-8.86,8.86v.74c0,4.89,3.97,8.86,8.86,8.86s8.86-3.97,8.86-8.86v-.74c0-4.89-3.97-8.86-8.86-8.86Z"/>
    <path class="cls-2"
          d="M268.57,418.98c0,3.33-2.64,6.02-5.91,6.02s-5.91-2.7-5.91-6.02v-.5c0-3.33,2.64-6.02,5.91-6.02s5.91,2.7,5.91,6.02v.5Z"/>
    <path class="cls-3"
          d="M284.45,433.13h-11.08c-5.1,0-9.23,4.13-9.23,9.23s4.13,9.23,9.23,9.23h11.08c5.1,0,9.23-4.13,9.23-9.23s-4.13-9.23-9.23-9.23Z"/>
    <path class="cls-2"
          d="M284.46,448.62h-11.1c-3.46,0-6.26-2.8-6.26-6.26s2.8-6.26,6.26-6.26h11.1c3.46,0,6.26,2.8,6.26,6.26s-2.8,6.26-6.26,6.26Z"/>
    <path class="cls-3"
          d="M298.48,458.97h-14.03c-5.1,0-9.23,4.13-9.23,9.23s4.13,9.23,9.23,9.23h14.03c5.1,0,9.23-4.13,9.23-9.23s-4.13-9.23-9.23-9.23Z"/>
    <path class="cls-2"
          d="M298.49,474.47h-14.06c-3.46,0-6.26-2.8-6.26-6.26s2.8-6.26,6.26-6.26h14.06c3.46,0,6.26,2.8,6.26,6.26s-2.8,6.26-6.26,6.26Z"/>
    <path class="cls-3"
          d="M313.98,513.62h-15.51c-5.1,0-9.23,4.13-9.23,9.23s4.13,9.23,9.23,9.23h15.51c5.1,0,9.23-4.13,9.23-9.23s-4.13-9.23-9.23-9.23Z"/>
    <path class="cls-2"
          d="M314,529.11h-15.53c-3.46,0-6.26-2.8-6.26-6.26s2.8-6.26,6.26-6.26h15.53c3.46,0,6.26,2.8,6.26,6.26s-2.8,6.26-6.26,6.26Z"/>
    <path class="cls-3"
          d="M295.52,543.15h-3.69c-5.1,0-9.23,4.13-9.23,9.23s4.13,9.23,9.23,9.23h3.69c5.1,0,9.23-4.13,9.23-9.23s-4.13-9.23-9.23-9.23Z"/>
    <path class="cls-2"
          d="M295.54,558.65h-3.72c-3.46,0-6.26-2.8-6.26-6.26s2.8-6.26,6.26-6.26h3.72c3.46,0,6.26,2.8,6.26,6.26s-2.8,6.26-6.26,6.26Z"/>
    <path class="cls-3"
          d="M350.17,486.29h-59.81c-5.1,0-9.23,4.13-9.23,9.23s4.13,9.23,9.23,9.23h59.81c5.1,0,9.23-4.13,9.23-9.23s-4.13-9.23-9.23-9.23Z"/>
    <path class="cls-2"
          d="M350.18,501.79h-59.84c-3.46,0-6.26-2.8-6.26-6.26s2.8-6.26,6.26-6.26h59.84c3.46,0,6.26,2.8,6.26,6.26s-2.8,6.26-6.26,6.26Z"/>
    <path class="cls-3"
          d="M286.29,573.43h-75.32c-5.3,0-9.6,4.3-9.6,9.6s4.3,9.6,9.6,9.6h75.32c5.3,0,9.6-4.3,9.6-9.6s-4.3-9.6-9.6-9.6Z"/>
    <path class="cls-2"
          d="M286.3,589.68h-75.33c-3.67,0-6.64-2.97-6.64-6.64s2.97-6.64,6.64-6.64h75.33c3.67,0,6.64,2.97,6.64,6.64s-2.97,6.64-6.64,6.64Z"/>
    <path class="cls-3"
          d="M262.29,600.01h-46.52c-5.1,0-9.23,4.13-9.23,9.23s4.13,9.23,9.23,9.23h46.52c5.1,0,9.23-4.13,9.23-9.23s-4.13-9.23-9.23-9.23Z"/>
    <path class="cls-2"
          d="M262.29,615.52h-46.52c-3.47,0-6.28-2.81-6.28-6.28s2.81-6.28,6.28-6.28h46.52c3.47,0,6.28,2.81,6.28,6.28s-2.81,6.28-6.28,6.28Z"/>
    <path class="cls-3"
          d="M258.6,626.6h-39.88c-5.1,0-9.23,4.13-9.23,9.23s4.13,9.23,9.23,9.23h39.88c5.1,0,9.23-4.13,9.23-9.23s-4.13-9.23-9.23-9.23Z"/>
    <path class="cls-2"
          d="M258.6,642.11h-39.88c-3.47,0-6.28-2.81-6.28-6.28s2.81-6.28,6.28-6.28h39.88c3.47,0,6.28,2.81,6.28,6.28s-2.81,6.28-6.28,6.28Z"/>
    <path class="cls-3"
          d="M237.55,651.71h-12.55c-4.89,0-8.86,3.97-8.86,8.86s3.97,8.86,8.86,8.86h12.55c4.89,0,8.86-3.97,8.86-8.86s-3.97-8.86-8.86-8.86Z"/>
    <rect class="cls-2" x="219.09" y="654.66" width="24.37" height="11.82" rx="5.91" ry="5.91"/>
    <path class="cls-3"
          d="M213.19,513.62c-4.89,0-8.86,3.97-8.86,8.86v.74c0,4.89,3.97,8.86,8.86,8.86s8.86-3.97,8.86-8.86v-.74c0-4.89-3.97-8.86-8.86-8.86Z"/>
    <path class="cls-2"
          d="M219.88,523.13c0,3.7-3,6.69-6.69,6.69s-6.69-3-6.69-6.69v-.56c0-3.7,3-6.69,6.69-6.69s6.69,3,6.69,6.69v.56Z"/>
</svg>