<?xml version="1.0" encoding="UTF-8"?>
<svg id="Layer_1" xmlns="http://www.w3.org/2000/svg" version="1.1" viewBox="0 0 1350 1080">
    <!-- Generator: Adobe Illustrator 29.0.1, SVG Export Plug-In . SVG Version: 2.1.0 Build 192)  -->
    <defs>
        <style>
            .st0 {
            fill: #c43c2a;
            }

            .st1 {
            fill: #fff;
            }

            .st2 {
            fill: #cf6152;
            }
        </style>
    </defs>
    <path class="st0"
          d="M793.38,547.16c12.91-5.61,11.1-14.74,8.57-20.07-.97-2.06-2.29-3.92-3.86-5.61-29.6-32.02-22.52-48.77-22.52-48.77,19.58-56.49,0-84.71,0-84.71-6.07-11.35-12.79-21.72-20.03-31.13.56-1.53,1.05-3.07,1.57-4.6l1.13-3.23c.16-.52.4-1.13.48-1.57l.32-1.45.68-2.87.32-1.45c.08-.24.04-.44.04-.65v-5.45c.52-7.11-1.77-11.43-3.18-16.59l-3.58-5.89-.88-1.49c-.28-.48-.64-.89-1.21-1.57-1.09-1.37-2.85-3.19-4.14-4.32-1.37-1.21-1.37-1.17-1.85-1.53-.4-.32-.84-.69-1.29-1.01-.4-.32-.97-.65-1.45-1.01-.48-.32-1.05-.69-1.65-1.01-1.09-.69-2.57-1.41-3.94-2.1l-2.45-.97c-.44-.16-.76-.36-1.29-.48l-1.57-.44c-1.05-.24-1.97-.57-3.1-.81l-3.86-.48-1.93-.24c-.76-.04-1.65.04-2.49.08l-5.07.28-1.13.08c-.44.08-1.05.36-1.57.52l-3.18,1.13-6.39,2.3-1.61.57-2.09,1.29-4.22,2.66-.88.52c-2.77-1.41-5.63-2.75-8.44-3.96,2.17-2.58,4.34-5.21,6.51-7.87,1.13-1.33,2.25-2.87,3.34-4.28,1.09-1.45,2.21-2.83,3.3-4.36,2.17-3.15,4.34-6.06,6.43-9.53l1.57-2.5.8-1.29s.28-.4.68-1.21c.36-.61.68-1.25,1.05-1.9,2.61-5.17,4.62-11.51,5.11-18.21.48-6.7-.56-13.61-2.77-19.66-2.25-6.14-5.63-11.47-9.69-15.95-4.1-4.48-8.97-8.12-14.52-10.82-4.58-2.26-9.73-3.84-15.2-4.48-5.51,4.89-4.38,11.95-9.41,15.75-6.43,4.85-71.42-28.95-74.35-35.05-7.04-14.78,10.74-34.32-26.86-35.73-16.13-.61-139.34,25.76-148.3,32.91-9.73,7.79-14.68,31.37-21.96,41.34-16.29,22.33-48.34,38.96-62.13,64.84-2.49,4.68-19.42,99.81-18.86,105.1,2.09,18.82,66.79,85.43,83.76,94.24,25.45,13.28,95.06-21.96,127.35-9.81,4.38,1.66,34.62,18.49,36.31,20.67,6.15,8.16-5.31,29.55,0,42.07,5.31,12.48,21.27,26.73,29.31,42.03,7.68,14.66,11.62,29.72,12.18,44.82,1.45,13.85,52.48,17.28,65.26-1.09,2.57-2.18,5.03-3.84,7.2-4.72,19.95-8.24,16.57,1.25,49.54,15.79,32.97,14.58,50.19-4.6,49.98-20.23-.2-15.58,3.54-13.53,3.54-13.53,1.25.73,2.29,1.21,3.9,1.41,5.07.69,10.05-2.75,10.98-7.79,1.49-8.52-8.77-13.2-8.77-13.2,1.25-.2,3.54-.69,4.7-.93.44-.08.88-.16,1.33-.32,9.97-3.15,11.34-17.2,3.18-19.42-8.32-2.22-6.47-10.05-6.47-10.05,7.16.36,9.69-.97,9.69-.97Z"/>
    <g>
        <path class="st2"
              d="M756.15,174.3c-14.34,0-25.97,11.63-25.97,25.97v2.16c0,14.34,11.63,25.97,25.97,25.97s25.97-11.63,25.97-25.97v-2.16c0-14.34-11.63-25.97-25.97-25.97Z"/>
        <path class="st1"
              d="M773.46,202.08c0,9.74-7.75,17.64-17.31,17.64s-17.31-7.9-17.31-17.64v-1.47c0-9.74,7.75-17.64,17.31-17.64s17.31,7.9,17.31,17.64v1.47Z"/>
        <path class="st2"
              d="M819.98,243.54h-32.46c-14.94,0-27.05,12.11-27.05,27.05s12.11,27.05,27.05,27.05h32.46c14.94,0,27.05-12.11,27.05-27.05s-12.11-27.05-27.05-27.05Z"/>
        <path class="st1"
              d="M820.02,288.94h-32.54c-10.14,0-18.35-8.22-18.35-18.36s8.22-18.36,18.35-18.36h32.54c10.14,0,18.36,8.22,18.36,18.36s-8.22,18.36-18.36,18.36Z"/>
        <path class="st2"
              d="M861.1,319.28h-41.12c-14.94,0-27.05,12.11-27.05,27.05s12.11,27.05,27.05,27.05h41.12c14.94,0,27.05-12.11,27.05-27.05s-12.11-27.05-27.05-27.05Z"/>
        <path class="st1"
              d="M861.14,364.68h-41.19c-10.14,0-18.35-8.22-18.35-18.36s8.22-18.36,18.35-18.36h41.19c10.14,0,18.36,8.22,18.36,18.36s-8.22,18.36-18.36,18.36Z"/>
        <path class="st2"
              d="M906.54,479.41h-45.44c-14.94,0-27.05,12.11-27.05,27.05s12.11,27.05,27.05,27.05h45.44c14.94,0,27.05-12.11,27.05-27.05s-12.11-27.05-27.05-27.05Z"/>
        <path class="st1"
              d="M906.58,524.81h-45.52c-10.14,0-18.36-8.22-18.36-18.36s8.22-18.36,18.36-18.36h45.52c10.14,0,18.36,8.22,18.36,18.36s-8.22,18.36-18.36,18.36Z"/>
        <path class="st2"
              d="M852.44,565.97h-10.82c-14.94,0-27.05,12.11-27.05,27.05s12.11,27.05,27.05,27.05h10.82c14.94,0,27.05-12.11,27.05-27.05s-12.11-27.05-27.05-27.05Z"/>
        <path class="st1"
              d="M852.48,611.37h-10.9c-10.14,0-18.35-8.22-18.35-18.36s8.22-18.36,18.35-18.36h10.9c10.14,0,18.36,8.22,18.36,18.36s-8.22,18.36-18.36,18.36Z"/>
        <path class="st2"
              d="M1012.57,399.34h-175.28c-14.94,0-27.05,12.11-27.05,27.05s12.11,27.05,27.05,27.05h175.28c14.94,0,27.05-12.11,27.05-27.05s-12.11-27.05-27.05-27.05Z"/>
        <path class="st1"
              d="M1012.61,444.75h-175.35c-10.14,0-18.36-8.22-18.36-18.36s8.22-18.36,18.36-18.36h175.35c10.14,0,18.36,8.22,18.36,18.36s-8.22,18.36-18.36,18.36Z"/>
        <path class="st2"
              d="M825.39,654.69h-220.72c-15.54,0-28.13,12.59-28.13,28.13s12.59,28.13,28.13,28.13h220.72c15.54,0,28.13-12.59,28.13-28.13s-12.59-28.13-28.13-28.13Z"/>
        <path class="st1"
              d="M825.41,702.3h-220.76c-10.75,0-19.46-8.71-19.46-19.46s8.71-19.46,19.46-19.46h220.76c10.74,0,19.46,8.71,19.46,19.46s-8.71,19.46-19.46,19.46Z"/>
        <path class="st2"
              d="M755.07,732.59h-136.33c-14.94,0-27.05,12.11-27.05,27.05s12.11,27.05,27.05,27.05h136.33c14.94,0,27.05-12.11,27.05-27.05s-12.11-27.05-27.05-27.05Z"/>
        <path class="st1"
              d="M755.07,778.03h-136.33c-10.16,0-18.39-8.23-18.39-18.39s8.23-18.39,18.39-18.39h136.33c10.16,0,18.39,8.23,18.39,18.39s-8.24,18.39-18.39,18.39Z"/>
        <path class="st2"
              d="M744.25,810.49h-116.85c-14.94,0-27.05,12.11-27.05,27.05s12.11,27.05,27.05,27.05h116.85c14.94,0,27.05-12.11,27.05-27.05s-12.11-27.05-27.05-27.05Z"/>
        <path class="st1"
              d="M744.25,855.93h-116.85c-10.16,0-18.39-8.23-18.39-18.39s8.24-18.39,18.39-18.39h116.85c10.16,0,18.39,8.23,18.39,18.39s-8.24,18.39-18.39,18.39Z"/>
        <path class="st2"
              d="M682.57,884.07h-36.79c-14.34,0-25.97,11.63-25.97,25.97s11.63,25.97,25.97,25.97h36.79c14.34,0,25.97-11.63,25.97-25.97s-11.63-25.97-25.97-25.97Z"/>
        <rect class="st1" x="628.48" y="892.72" width="71.41" height="34.62" rx="17.31" ry="17.31"/>
        <path class="st2"
              d="M611.16,479.41c-14.34,0-25.97,11.63-25.97,25.97v2.16c0,14.34,11.63,25.97,25.97,25.97s25.97-11.63,25.97-25.97v-2.16c0-14.34-11.63-25.97-25.97-25.97Z"/>
        <path class="st1"
              d="M630.78,507.28c0,10.83-8.78,19.61-19.61,19.61s-19.61-8.78-19.61-19.61v-1.63c0-10.83,8.78-19.61,19.61-19.61s19.61,8.78,19.61,19.61v1.63Z"/>
    </g>
</svg>