<?xml version="1.0" encoding="UTF-8"?>
<svg id="Layer_1" xmlns="http://www.w3.org/2000/svg" version="1.1" viewBox="0 0 1350 1080">
    <!-- Generator: Adobe Illustrator 29.0.1, SVG Export Plug-In . SVG Version: 2.1.0 Build 192)  -->
    <defs>
        <style>
            .st0 {
            fill: #c43c2a;
            }

            .st1 {
            fill: #fff;
            }

            .st2 {
            fill: #cf6152;
            }
        </style>
    </defs>
    <g>
        <path class="st0"
              d="M973.64,766.94h41.84v21.28h-69.57v-83.68h68.02v21.28h-40.29v41.12ZM971.72,735.62h37.3v20.32h-37.3v-20.32ZM881.45,758.69l-12.55-12.79h22.83c3.91,0,6.77-.88,8.61-2.63,1.91-1.75,2.87-4.14,2.87-7.17s-.96-5.42-2.87-7.17c-1.83-1.75-4.7-2.63-8.61-2.63h-22.83l12.55-12.79v45.19ZM903.33,788.22l-20.56-30.48h29.89l20.8,30.48h-30.12ZM853.24,788.22v-83.68h40.29c7.81,0,14.54,1.28,20.2,3.83,5.74,2.55,10.16,6.22,13.27,11,3.11,4.7,4.66,10.28,4.66,16.74s-1.55,12.03-4.66,16.74c-3.11,4.62-7.53,8.17-13.27,10.64-5.66,2.47-12.39,3.71-20.2,3.71h-24.63l12.55-11.6v32.63h-28.21ZM766.02,773.63l7.17-20.32h38.49l7.17,20.32h-52.84ZM744.26,788.22l36.58-83.68h27.73l36.58,83.68h-29.17l-27.02-70.29h11l-27.02,70.29h-28.69ZM705.25,790.13c-6.69,0-12.91-1.04-18.65-3.11-5.66-2.15-10.6-5.18-14.82-9.09-4.14-3.91-7.37-8.53-9.68-13.87-2.31-5.34-3.47-11.24-3.47-17.69s1.16-12.35,3.47-17.69c2.31-5.34,5.54-9.96,9.68-13.87,4.22-3.91,9.16-6.89,14.82-8.97,5.74-2.15,11.95-3.23,18.65-3.23,8.21,0,15.46,1.43,21.76,4.3,6.38,2.87,11.64,7.01,15.78,12.43l-17.81,15.9c-2.47-3.11-5.22-5.5-8.25-7.17-2.95-1.75-6.3-2.63-10.04-2.63-2.95,0-5.62.48-8.01,1.43-2.39.96-4.46,2.35-6.22,4.18-1.67,1.83-2.99,4.06-3.94,6.69-.96,2.55-1.43,5.42-1.43,8.61s.48,6.1,1.43,8.73c.96,2.55,2.27,4.74,3.94,6.57,1.75,1.83,3.83,3.23,6.22,4.18,2.39.96,5.06,1.43,8.01,1.43,3.75,0,7.09-.84,10.04-2.51,3.03-1.75,5.78-4.18,8.25-7.29l17.81,15.9c-4.14,5.34-9.4,9.48-15.78,12.43-6.3,2.87-13.55,4.3-21.76,4.3ZM562.31,788.22v-83.68h23.19l42.56,50.92h-10.76v-50.92h27.49v83.68h-23.19l-42.56-50.92h10.76v50.92h-27.49ZM516.93,788.22v-83.68h28.21v83.68h-28.21ZM476.93,788.22l-24.63-32.52,18.29-19.37,38.97,51.88h-32.63ZM421.94,788.22v-83.68h27.73v83.68h-27.73ZM447.16,770.29l-1.55-30.96,31.56-34.79h30.72l-35.38,38.97-15.66,16.02-9.68,10.76ZM370.99,790.13c-7.01,0-13.79-.8-20.32-2.39-6.53-1.59-11.91-3.67-16.14-6.22l9.09-20.56c3.98,2.31,8.41,4.18,13.27,5.62,4.94,1.35,9.72,2.03,14.34,2.03,2.71,0,4.82-.16,6.34-.48,1.59-.4,2.75-.92,3.47-1.55.72-.72,1.08-1.55,1.08-2.51,0-1.51-.84-2.71-2.51-3.59-1.67-.88-3.91-1.59-6.69-2.15-2.71-.64-5.7-1.28-8.97-1.91-3.27-.72-6.57-1.63-9.92-2.75-3.27-1.12-6.3-2.59-9.09-4.42-2.71-1.83-4.9-4.22-6.57-7.17-1.67-3.03-2.51-6.77-2.51-11.24,0-5.18,1.43-9.88,4.3-14.11,2.95-4.3,7.29-7.73,13.03-10.28,5.82-2.55,13.03-3.83,21.64-3.83,5.66,0,11.24.6,16.74,1.79,5.5,1.2,10.44,3.03,14.82,5.5l-8.49,20.44c-4.14-2.07-8.17-3.63-12.07-4.66-3.83-1.04-7.57-1.55-11.24-1.55-2.71,0-4.86.24-6.46.72-1.59.48-2.75,1.12-3.47,1.91-.64.8-.96,1.67-.96,2.63,0,1.43.84,2.59,2.51,3.47,1.67.8,3.87,1.47,6.57,2.03,2.79.56,5.82,1.16,9.09,1.79,3.35.64,6.65,1.51,9.92,2.63,3.27,1.12,6.26,2.59,8.97,4.42,2.79,1.83,5.02,4.22,6.69,7.17,1.67,2.95,2.51,6.61,2.51,11,0,5.1-1.47,9.8-4.42,14.11-2.87,4.22-7.17,7.65-12.91,10.28-5.74,2.55-12.95,3.83-21.64,3.83Z"/>
        <g>
            <path class="st0"
                  d="M828.75,681.26h-22.5v3.77h22.5v-3.77ZM824.76,677.59l2.21,6.19,3.55-1.27-2.21-6.19-3.55,1.27ZM808.42,678.84h18.12v-3.77h-18.12v3.77ZM808.04,683.77l2.16-6.19-3.56-1.25-2.16,6.19,3.56,1.25ZM806.76,688.81h-8.36v3.77h8.36v-3.77ZM817.95,658.87l-12.94,31.11,3.49,1.45,12.94-31.11-3.49-1.45ZM816.47,661.48h3.22v-3.77h-3.22v3.77ZM831.1,689.97l-12.89-31.11-3.49,1.44,12.89,31.11,3.49-1.44ZM837.91,688.81h-8.56v3.77h8.56v-3.77ZM820.44,656.23l15.75,35.23,3.45-1.54-15.75-35.23-3.45,1.54ZM814.11,657.35h8.05v-3.77h-8.05v3.77ZM800.13,691.46l15.7-35.23-3.45-1.54-15.7,35.23,3.45,1.54ZM828.75,683.15v1.89h2.68l-.9-2.52-1.78.64ZM826.54,676.95l1.78-.64-.45-1.25h-1.33v1.89ZM808.42,676.95v-1.89h-1.34l-.44,1.26,1.78.62ZM806.25,683.15l-1.78-.62-.88,2.51h2.66v-1.89ZM806.76,690.7v1.89h1.26l.48-1.16-1.74-.72ZM819.69,659.59l1.74.72,1.09-2.61h-2.83v1.89ZM816.47,659.59v-1.89h-2.82l1.08,2.61,1.74-.72ZM829.36,690.7l-1.74.72.48,1.17h1.26v-1.89ZM837.91,690.7v1.89h2.91l-1.19-2.66-1.72.77ZM822.16,655.46l1.72-.77-.5-1.12h-1.22v1.89ZM814.11,655.46v-1.89h-1.23l-.5,1.12,1.72.77ZM798.4,690.7l-1.72-.77-1.18,2.66h2.91v-1.89ZM766,687.96c-2.18.95-4.68,1.45-7.55,1.45v3.77c3.31,0,6.34-.58,9.06-1.77l-1.52-3.46ZM771.54,683.81c-1.48,1.81-3.32,3.19-5.53,4.15l1.5,3.46c2.75-1.19,5.08-2.93,6.95-5.22l-2.92-2.39ZM766.48,681.56l5.23,4.83,2.56-2.77-5.23-4.83-2.56,2.77ZM764.55,685.05c1.74-.83,3.29-2.06,4.65-3.65l-2.87-2.46c-1.06,1.24-2.2,2.12-3.41,2.7l1.63,3.41ZM758.91,686.24c1.99,0,3.87-.38,5.61-1.18l-1.56-3.44c-1.21.55-2.55.84-4.05.84v3.77ZM753.69,685.31c1.62.63,3.36.93,5.22.93v-3.77c-1.44,0-2.71-.23-3.84-.68l-1.37,3.52ZM749.47,682.57c1.2,1.2,2.61,2.11,4.22,2.74l1.37-3.52c-1.14-.45-2.11-1.08-2.93-1.89l-2.67,2.67ZM746.69,678.38c.66,1.59,1.58,3,2.77,4.19l2.67-2.67c-.82-.82-1.48-1.8-1.96-2.96l-3.49,1.45ZM745.74,673.08c0,1.88.3,3.64.93,5.27l3.52-1.37c-.44-1.13-.68-2.42-.68-3.89h-3.77ZM746.68,667.81c-.63,1.62-.93,3.39-.93,5.27h3.77c0-1.47.24-2.76.68-3.89l-3.52-1.37ZM749.47,663.59c-1.19,1.19-2.11,2.59-2.77,4.19l3.49,1.45c.48-1.16,1.13-2.14,1.96-2.96l-2.67-2.67ZM753.69,660.85c-1.61.63-3.02,1.54-4.22,2.74l2.67,2.67c.82-.82,1.78-1.45,2.93-1.89l-1.37-3.52ZM758.91,659.92c-1.85,0-3.6.3-5.22.93l1.37,3.52c1.13-.44,2.41-.68,3.84-.68v-3.77ZM764.55,661.16c-1.75-.83-3.64-1.24-5.64-1.24v3.77c1.48,0,2.81.3,4.02.87l1.63-3.41ZM769.18,664.69c-1.36-1.55-2.91-2.75-4.66-3.54l-1.56,3.44c1.2.55,2.34,1.4,3.39,2.6l2.84-2.49ZM771.72,659.71l-5.23,4.83,2.56,2.77,5.23-4.83-2.56-2.77ZM766.03,658.21c2.2.92,4.03,2.28,5.51,4.09l2.92-2.39c-1.88-2.29-4.21-4.02-6.97-5.18l-1.46,3.48ZM758.5,656.75c2.83,0,5.32.5,7.5,1.45l1.52-3.46c-2.72-1.19-5.73-1.77-9.01-1.77v3.77ZM751.59,657.98c2.07-.81,4.37-1.23,6.91-1.23v-3.77c-2.96,0-5.73.49-8.29,1.49l1.38,3.52ZM746.11,661.37c1.56-1.47,3.37-2.6,5.46-3.38l-1.33-3.53c-2.54.96-4.79,2.35-6.72,4.17l2.59,2.75ZM742.51,666.54c.88-1.99,2.08-3.72,3.61-5.19l-2.62-2.72c-1.89,1.82-3.38,3.95-4.45,6.39l3.46,1.52ZM741.26,673.08c0-2.42.43-4.6,1.26-6.56l-3.48-1.47c-1.05,2.47-1.56,5.16-1.56,8.04h3.77ZM742.52,679.64c-.83-1.96-1.26-4.14-1.26-6.56h-3.77c0,2.88.51,5.56,1.56,8.04l3.48-1.47ZM746.12,684.8c-1.53-1.47-2.73-3.19-3.61-5.19l-3.46,1.52c1.07,2.44,2.55,4.57,4.45,6.39l2.62-2.72ZM751.54,688.23c-2.1-.82-3.9-1.96-5.42-3.43l-2.62,2.72c1.9,1.82,4.13,3.23,6.66,4.22l1.38-3.52ZM758.45,689.41c-2.51,0-4.82-.4-6.94-1.19l-1.31,3.54c2.58.96,5.33,1.43,8.26,1.43v-3.77ZM766.76,689.69l-.75-1.73h0s0,0,0,0l.76,1.73ZM773,685.01l1.46,1.2,1.13-1.38-1.31-1.21-1.28,1.39ZM767.76,680.18l1.28-1.39-1.44-1.33-1.27,1.49,1.43,1.23ZM763.74,683.35l.78,1.72h.02s.02-.01.02-.01l-.81-1.7ZM750.8,681.23l-1.33,1.33,1.33-1.33ZM748.44,677.66l-1.76.69v.02s.01.02.01.02l1.74-.72ZM748.44,668.5l-1.74-.72v.02s-.01.02-.01.02l1.76.69ZM750.8,664.93l1.33,1.33-1.33-1.33ZM763.74,662.86l-.81,1.7h.02s.02.01.02.01l.78-1.72ZM767.76,665.93l-1.42,1.25,1.28,1.45,1.42-1.31-1.28-1.39ZM773,661.1l1.28,1.39,1.31-1.21-1.13-1.38-1.46,1.2ZM766.76,656.47l-.76,1.73h.01s.01.01.01.01l.73-1.74ZM750.9,656.22l.67,1.77h.01s.01,0,.01,0l-.69-1.76ZM744.81,659.99l-1.29-1.37h0s0,.01,0,.01l1.31,1.36ZM740.79,665.78l-1.73-.76h0s0,.02,0,.02l1.74.74ZM740.79,680.38l-1.74.74h0s0,.02,0,.02l1.73-.76ZM744.81,686.17l-1.31,1.36,1.31-1.36ZM750.85,689.99l-.69,1.76h.02s.02.01.02.01l.66-1.77ZM708.06,688.81h-8.15v3.77h8.15v-3.77ZM706.17,655.46v35.23h3.77v-35.23h-3.77ZM699.91,657.35h8.15v-3.77h-8.15v3.77ZM701.8,690.7v-35.23h-3.77v35.23h3.77ZM708.06,690.7v1.89h1.89v-1.89h-1.89ZM708.06,655.46h1.89v-1.89h-1.89v1.89ZM699.91,655.46v-1.89h-1.89v1.89h1.89ZM699.91,690.7h-1.89v1.89h1.89v-1.89ZM644,658.23v19.98h3.77v-19.98h-3.77ZM643.64,663.4l3.62-3.88-2.76-2.58-3.62,3.88,2.76,2.58ZM652.53,660.22h-10.27v3.77h10.27v-3.77ZM659.4,662.29c-1.73-1.49-4.13-2.07-6.87-2.07v3.77c2.3,0,3.65.5,4.4,1.15l2.47-2.86ZM661.91,668.25c0-2.38-.78-4.46-2.52-5.96l-2.47,2.86c.75.65,1.21,1.59,1.21,3.1h3.77ZM659.42,674.19c1.71-1.52,2.49-3.58,2.49-5.94h-3.77c0,1.46-.45,2.43-1.23,3.12l2.51,2.82ZM652.53,676.28c2.74,0,5.15-.58,6.87-2.07l-2.47-2.86c-.76.65-2.11,1.15-4.4,1.15v3.77ZM642.26,676.28h10.27v-3.77h-10.27v3.77ZM647.25,676.91l-3.62-3.83-2.74,2.6,3.62,3.83,2.74-2.6ZM668.94,688.81h-8.81v3.77h8.81v-3.77ZM658.48,678.99l8.91,12.78,3.1-2.16-8.91-12.78-3.1,2.16ZM651.32,679.8h8.71v-3.77h-8.71v3.77ZM661.68,689.62l-8.81-12.78-3.11,2.14,8.81,12.78,3.11-2.14ZM645.88,688.81h-8.15v3.77h8.15v-3.77ZM644,677.31v13.39h3.77v-13.39h-3.77ZM643.58,682.22l3.62-3.57-2.65-2.69-3.62,3.57,2.65,2.69ZM652.98,678.99h-10.72v3.77h10.72v-3.77ZM660.37,677.64c-1.99.88-4.43,1.35-7.39,1.35v3.77c3.35,0,6.34-.53,8.92-1.67l-1.52-3.45ZM664.84,674c-1.02,1.55-2.48,2.77-4.47,3.64l1.52,3.45c2.58-1.14,4.64-2.8,6.1-5.02l-3.15-2.08ZM666.39,668.25c0,2.31-.54,4.2-1.56,5.77l3.17,2.06c1.47-2.26,2.17-4.9,2.17-7.82h-3.77ZM664.84,662.43c1.01,1.56,1.56,3.47,1.56,5.82h3.77c0-2.96-.7-5.61-2.17-7.87l-3.17,2.06ZM660.37,658.75c1.98.87,3.44,2.1,4.46,3.68l3.17-2.06c-1.46-2.25-3.52-3.94-6.11-5.08l-1.52,3.45ZM652.98,657.35c2.95,0,5.39.49,7.37,1.39l1.57-3.43c-2.58-1.18-5.58-1.73-8.94-1.73v3.77ZM637.73,657.35h15.25v-3.77h-15.25v3.77ZM639.62,690.7v-35.23h-3.77v35.23h3.77ZM645.88,658.23h1.89v-4.78l-3.27,3.49,1.38,1.29ZM642.26,662.11l-1.38-1.29-2.97,3.18h4.35v-1.89ZM658.16,672.78l1.23,1.43h.01s.01-.02.01-.02l-1.26-1.41ZM642.26,674.39v-1.89h-4.39l3.02,3.19,1.37-1.3ZM645.88,678.21l-1.37,1.3,3.26,3.44v-4.74h-1.89ZM668.94,690.7v1.89h3.62l-2.07-2.97-1.55,1.08ZM660.03,677.91l1.55-1.08-.56-.81h-.99v1.89ZM651.32,677.91v-1.89h-3.59l2.04,2.96,1.55-1.07ZM660.13,690.7l-1.55,1.07.56.82h.99v-1.89ZM645.88,690.7v1.89h1.89v-1.89h-1.89ZM645.88,677.31h1.89v-4.51l-3.21,3.17,1.33,1.34ZM642.26,680.88l-1.33-1.34-3.28,3.23h4.6v-1.89ZM661.13,679.37l.76,1.73-.76-1.73ZM666.42,675.04l1.57,1.04h0s0-.01,0-.01l-1.58-1.03ZM666.42,661.4l-1.58,1.03,1.58-1.03ZM661.13,657.02l-.78,1.72h.01s.01,0,.01,0l.76-1.73ZM637.73,655.46v-1.89h-1.89v1.89h1.89ZM637.73,690.7h-1.89v1.89h1.89v-1.89ZM586.68,662.01v28.69h3.77v-28.69h-3.77ZM607.04,660.12h-18.47v3.77h18.47v-3.77ZM605.16,655.46v6.54h3.77v-6.54h-3.77ZM580.42,657.35h26.63v-3.77h-26.63v3.77ZM582.3,690.7v-35.23h-3.77v35.23h3.77ZM588.57,688.81h-8.15v3.77h8.15v-3.77ZM589.85,677.86v-6.54h-3.77v6.54h3.77ZM604.88,675.97h-16.91v3.77h16.91v-3.77ZM602.99,671.32v6.54h3.77v-6.54h-3.77ZM587.97,673.2h16.91v-3.77h-16.91v3.77ZM588.57,662.01v-1.89h-1.89v1.89h1.89ZM607.04,662.01v1.89h1.89v-1.89h-1.89ZM607.04,655.46h1.89v-1.89h-1.89v1.89ZM580.42,655.46v-1.89h-1.89v1.89h1.89ZM580.42,690.7h-1.89v1.89h1.89v-1.89ZM588.57,690.7v1.89h1.89v-1.89h-1.89ZM587.97,677.86h-1.89v1.89h1.89v-1.89ZM604.88,677.86v1.89h1.89v-1.89h-1.89ZM604.88,671.32h1.89v-1.89h-1.89v1.89ZM587.97,671.32v-1.89h-1.89v1.89h1.89ZM542.43,681.26h-22.5v3.77h22.5v-3.77ZM538.44,677.59l2.21,6.19,3.55-1.27-2.21-6.19-3.55,1.27ZM522.1,678.84h18.12v-3.77h-18.12v3.77ZM521.72,683.77l2.16-6.19-3.56-1.25-2.16,6.19,3.56,1.25ZM520.44,688.81h-8.36v3.77h8.36v-3.77ZM531.63,658.87l-12.94,31.11,3.49,1.45,12.94-31.11-3.49-1.45ZM530.15,661.48h3.22v-3.77h-3.22v3.77ZM544.78,689.97l-12.89-31.11-3.49,1.44,12.89,31.11,3.49-1.44ZM551.59,688.81h-8.56v3.77h8.56v-3.77ZM534.12,656.23l15.75,35.23,3.45-1.54-15.75-35.23-3.45,1.54ZM527.79,657.35h8.05v-3.77h-8.05v3.77ZM513.81,691.46l15.7-35.23-3.45-1.54-15.7,35.23,3.45,1.54ZM542.43,683.15v1.89h2.68l-.9-2.52-1.78.64ZM540.22,676.95l1.78-.64-.45-1.25h-1.33v1.89ZM522.1,676.95v-1.89h-1.34l-.44,1.26,1.78.62ZM519.93,683.15l-1.78-.62-.88,2.51h2.66v-1.89ZM520.44,690.7v1.89h1.26l.48-1.16-1.74-.72ZM533.37,659.59l1.74.72,1.09-2.61h-2.83v1.89ZM530.15,659.59v-1.89h-2.82l1.08,2.61,1.74-.72ZM543.04,690.7l-1.74.72.48,1.17h1.26v-1.89ZM551.59,690.7v1.89h2.91l-1.19-2.66-1.72.77ZM535.84,655.46l1.72-.77-.5-1.12h-1.22v1.89ZM527.79,655.46v-1.89h-1.23l-.5,1.12,1.72.77ZM512.08,690.7l-1.72-.77-1.18,2.66h2.91v-1.89Z"/>
            <path class="st1"
                  d="M806.25,683.15l2.16-6.19h18.12l2.21,6.19h-22.5ZM798.4,690.7l15.7-35.23h8.05l15.75,35.23h-8.56l-12.89-31.11h3.22l-12.94,31.11h-8.36ZM758.45,691.3c-2.72,0-5.25-.44-7.6-1.31-2.32-.91-4.33-2.18-6.04-3.83-1.71-1.64-3.05-3.57-4.03-5.79-.94-2.21-1.41-4.65-1.41-7.3s.47-5.08,1.41-7.3c.97-2.21,2.32-4.14,4.03-5.79,1.74-1.64,3.77-2.9,6.09-3.77,2.32-.91,4.85-1.36,7.6-1.36,3.05,0,5.81.54,8.25,1.61,2.48,1.04,4.56,2.58,6.24,4.63l-5.23,4.83c-1.21-1.38-2.55-2.4-4.03-3.07-1.48-.7-3.09-1.06-4.83-1.06-1.64,0-3.15.27-4.53.81-1.38.54-2.57,1.31-3.57,2.32-1.01,1.01-1.8,2.2-2.37,3.57-.54,1.38-.81,2.9-.81,4.58s.27,3.2.81,4.58c.57,1.38,1.36,2.57,2.37,3.57,1.01,1.01,2.2,1.78,3.57,2.32,1.38.54,2.89.81,4.53.81,1.74,0,3.36-.34,4.83-1.01,1.48-.7,2.82-1.76,4.03-3.17l5.23,4.83c-1.68,2.05-3.76,3.61-6.24,4.68-2.45,1.07-5.22,1.61-8.31,1.61ZM699.91,690.7v-35.23h8.15v35.23h-8.15ZM645.88,678.21l-3.62-3.83h10.27c2.52,0,4.4-.54,5.64-1.61,1.24-1.11,1.86-2.62,1.86-4.53s-.62-3.46-1.86-4.53-3.12-1.61-5.64-1.61h-10.27l3.62-3.88v19.98ZM660.13,690.7l-8.81-12.78h8.71l8.91,12.78h-8.81ZM637.73,690.7v-35.23h15.25c3.15,0,5.87.52,8.15,1.56,2.28,1.01,4.04,2.47,5.28,4.38,1.24,1.91,1.86,4.19,1.86,6.85s-.62,4.88-1.86,6.79c-1.24,1.88-3,3.32-5.28,4.33-2.28,1.01-5,1.51-8.15,1.51h-10.72l3.62-3.57v13.39h-8.15ZM588.57,690.7h-8.15v-35.23h26.63v6.54h-18.47v28.69ZM587.97,671.32h16.91v6.54h-16.91v-6.54ZM519.93,683.15l2.16-6.19h18.12l2.21,6.19h-22.5ZM512.08,690.7l15.7-35.23h8.05l15.75,35.23h-8.56l-12.89-31.11h3.22l-12.94,31.11h-8.36Z"/>
        </g>
        <g>
            <path class="st0"
                  d="M1011.79,882.45h-64.42v7.37h64.42v-7.37ZM1008.1,864.78v21.36h7.37v-21.36h-7.37ZM974.91,868.46h36.88v-7.37h-36.88v7.37ZM971.22,804.44v60.34h7.37v-60.34h-7.37ZM947.37,808.13h27.54v-7.37h-27.54v7.37ZM951.05,886.13v-81.69h-7.37v81.69h7.37ZM1011.79,886.13v3.69h3.69v-3.69h-3.69ZM1011.79,864.78h3.69v-3.69h-3.69v3.69ZM974.91,864.78h-3.69v3.69h3.69v-3.69ZM974.91,804.44h3.69v-3.69h-3.69v3.69ZM947.37,804.44v-3.69h-3.69v3.69h3.69ZM947.37,886.13h-3.69v3.69h3.69v-3.69ZM905.62,868.21h-51.58v7.37h51.58v-7.37ZM895.15,853.28l7,19.84,6.95-2.45-7-19.84-6.95,2.45ZM861.04,855.74h37.58v-7.37h-37.58v7.37ZM857.52,873.12l7-19.84-6.95-2.45-7,19.84,6.95,2.45ZM860.81,882.45h-28.01v7.37h28.01v-7.37ZM883.75,816.19l-26.38,68.62,6.88,2.64,26.38-68.62-6.88-2.64ZM876.45,821.2h10.74v-7.37h-10.74v7.37ZM906.26,884.81l-26.38-68.62-6.88,2.64,26.38,68.62,6.88-2.64ZM931.3,882.45h-28.48v7.37h28.48v-7.37ZM892.21,805.92l35.71,81.69,6.75-2.95-35.71-81.69-6.75,2.95ZM868.51,808.13h27.08v-7.37h-27.08v7.37ZM836.18,887.61l35.71-81.69-6.75-2.95-35.71,81.69,6.75,2.95ZM905.62,871.9v3.69h5.21l-1.73-4.91-3.48,1.23ZM898.62,852.06l3.48-1.23-.87-2.46h-2.61v3.69ZM861.04,852.06v-3.69h-2.61l-.87,2.46,3.48,1.23ZM854.04,871.9l-3.48-1.23-1.73,4.91h5.21v-3.69ZM860.81,886.13v3.69h2.53l.91-2.36-3.44-1.32ZM887.19,817.51l3.44,1.32,1.92-5.01h-5.36v3.69ZM876.45,817.51v-3.69h-5.36l1.92,5.01,3.44-1.32ZM902.82,886.13l-3.44,1.32.91,2.36h2.53v-3.69ZM931.3,886.13v3.69h5.63l-2.26-5.16-3.38,1.48ZM895.59,804.44l3.38-1.48-.97-2.21h-2.41v3.69ZM868.51,804.44v-3.69h-2.41l-.97,2.21,3.38,1.48ZM832.8,886.13l-3.38-1.48-2.26,5.16h5.63v-3.69ZM795.68,882.45h-27.08v7.37h27.08v-7.37ZM826.83,803l-34.55,81.69,6.79,2.87,34.55-81.69-6.79-2.87ZM803.15,808.13h27.08v-7.37h-27.08v7.37ZM777.6,874.84l28.94-68.97-6.8-2.85-28.94,68.97,6.8,2.85ZM791.82,869.73h-17.62v7.37h17.62v-7.37ZM760.29,805.83l28.13,68.97,6.83-2.78-28.13-68.97-6.83,2.78ZM734.05,808.13h29.64v-7.37h-29.64v7.37ZM771.99,884.7l-34.55-81.69-6.79,2.87,34.55,81.69,6.79-2.87ZM795.68,886.13v3.69h2.44l.95-2.25-3.39-1.44ZM830.22,804.44l3.39,1.44,2.17-5.12h-5.56v3.69ZM803.15,804.44v-3.69h-2.45l-.95,2.26,3.4,1.43ZM774.2,873.41l-3.4-1.43-2.14,5.11h5.54v-3.69ZM791.82,873.41v3.69h5.48l-2.07-5.08-3.41,1.39ZM763.7,804.44l3.41-1.39-.94-2.29h-2.48v3.69ZM734.05,804.44v-3.69h-5.56l2.17,5.12,3.39-1.44ZM768.6,886.13l-3.39,1.44.95,2.25h2.44v-3.69ZM717.99,882.45h-27.54v7.37h27.54v-7.37ZM714.31,804.44v81.69h7.37v-81.69h-7.37ZM690.45,808.13h27.54v-7.37h-27.54v7.37ZM694.14,886.13v-81.69h-7.37v81.69h7.37ZM717.99,886.13v3.69h3.69v-3.69h-3.69ZM717.99,804.44h3.69v-3.69h-3.69v3.69ZM690.45,804.44v-3.69h-3.69v3.69h3.69ZM690.45,886.13h-3.69v3.69h3.69v-3.69ZM647.7,882.45h-27.54v7.37h27.54v-7.37ZM644.02,825.8v60.34h7.37v-60.34h-7.37ZM671.63,822.11h-23.92v7.37h23.92v-7.37ZM667.94,804.44v21.36h7.37v-21.36h-7.37ZM596.23,808.13h75.39v-7.37h-75.39v7.37ZM599.92,825.8v-21.36h-7.37v21.36h7.37ZM620.16,822.11h-23.92v7.37h23.92v-7.37ZM623.85,886.13v-60.34h-7.37v60.34h7.37ZM647.7,886.13v3.69h3.69v-3.69h-3.69ZM647.7,825.8v-3.69h-3.69v3.69h3.69ZM671.63,825.8v3.69h3.69v-3.69h-3.69ZM671.63,804.44h3.69v-3.69h-3.69v3.69ZM596.23,804.44v-3.69h-3.69v3.69h3.69ZM596.23,825.8h-3.69v3.69h3.69v-3.69ZM620.16,825.8h3.69v-3.69h-3.69v3.69ZM620.16,886.13h-3.69v3.69h3.69v-3.69ZM565.27,880.9c-4.99,2.22-11.48,3.42-19.63,3.42v7.37c8.81,0,16.4-1.29,22.62-4.05l-2.99-6.74ZM576.33,872.16c-2.34,3.45-5.96,6.4-11.09,8.76l3.07,6.7c6.07-2.78,10.86-6.52,14.12-11.32l-6.1-4.14ZM580.01,860.46c0,4.22-1.2,8.09-3.67,11.69l6.08,4.17c3.29-4.8,4.96-10.11,4.96-15.85h-7.37ZM578.04,851.54c1.24,2.18,1.97,5.09,1.97,8.92h7.37c0-4.73-.9-8.98-2.93-12.56l-6.41,3.64ZM572.68,845.8c2.23,1.46,4,3.36,5.35,5.74l6.41-3.64c-1.92-3.38-4.5-6.15-7.72-8.26l-4.05,6.16ZM564.76,841.89c2.9.99,5.52,2.29,7.88,3.88l4.13-6.11c-2.93-1.98-6.14-3.56-9.63-4.75l-2.38,6.98ZM555.58,839.45c3.1.59,6.16,1.4,9.19,2.43l2.38-6.98c-3.35-1.14-6.75-2.04-10.19-2.7l-1.38,7.24ZM546.67,837.7c2.73.55,5.69,1.13,8.89,1.75l1.41-7.23c-3.19-.62-6.14-1.2-8.85-1.75l-1.45,7.23ZM539.39,835.43c2,.95,4.45,1.69,7.26,2.27l1.49-7.22c-2.48-.51-4.31-1.1-5.58-1.7l-3.17,6.65ZM534.84,828.71c0,3.21,2.03,5.39,4.43,6.65l3.42-6.53c-.47-.25-.58-.41-.56-.38.01.02.04.06.06.13.02.07.03.12.03.13h-7.37ZM536.58,823.84c-1.11,1.38-1.74,3.04-1.74,4.87h7.37s0-.07.01-.08c0-.02.03-.08.11-.18l-5.76-4.6ZM541.79,820.75c-1.88.56-3.73,1.45-5.06,2.93l5.48,4.93c.06-.07.47-.43,1.7-.8l-2.12-7.06ZM549.15,819.89c-2.81,0-5.31.24-7.36.86l2.12,7.06c1.07-.32,2.76-.54,5.24-.54v-7.37ZM561.08,821.54c-4.02-1.09-8-1.65-11.93-1.65v7.37c3.23,0,6.56.46,10.01,1.39l1.93-7.11ZM573.55,826.35c-4.24-2.12-8.4-3.73-12.49-4.82l-1.89,7.12c3.54.94,7.23,2.36,11.08,4.29l3.3-6.59ZM576.79,808.28l-8.29,19.96,6.81,2.83,8.29-19.96-6.81-2.83ZM564.94,807.92c5.05,1.1,9.52,2.77,13.44,4.98l3.62-6.42c-4.64-2.61-9.81-4.52-15.5-5.76l-1.57,7.2ZM549.38,806.26c5.26,0,10.45.56,15.56,1.67l1.57-7.2c-5.63-1.22-11.34-1.83-17.12-1.83v7.37ZM529.74,809.68c5.08-2.23,11.58-3.42,19.64-3.42v-7.37c-8.74,0-16.32,1.29-22.6,4.04l2.96,6.75ZM518.58,818.43c2.42-3.53,6.07-6.48,11.18-8.75l-2.99-6.74c-6.1,2.71-10.93,6.45-14.26,11.32l6.08,4.17ZM515.02,830.12c0-4.33,1.19-8.2,3.56-11.7l-6.1-4.14c-3.22,4.74-4.84,10.06-4.84,15.84h7.37ZM517.01,839.3c-1.26-2.28-1.99-5.28-1.99-9.19h-7.37c0,4.8.9,9.11,2.91,12.75l6.45-3.57ZM522.27,845.04c-2.16-1.46-3.91-3.37-5.28-5.77l-6.41,3.64c1.9,3.35,4.43,6.12,7.56,8.24l4.13-6.11ZM530.27,848.92c-2.91-.99-5.58-2.3-8.04-3.91l-4.05,6.16c2.99,1.97,6.23,3.54,9.7,4.73l2.38-6.98ZM539.55,851.49c-3.06-.67-6.16-1.53-9.31-2.58l-2.33,6.99c3.38,1.13,6.74,2.06,10.06,2.79l1.58-7.2ZM548.36,853.37c-2.7-.64-5.66-1.27-8.89-1.9l-1.41,7.23c3.15.62,6.02,1.23,8.61,1.84l1.69-7.18ZM555.76,855.79c-2.06-1.08-4.61-1.87-7.52-2.45l-1.45,7.23c2.53.51,4.34,1.12,5.55,1.75l3.42-6.53ZM560.19,862.56c0-3.21-1.94-5.46-4.43-6.77l-3.42,6.53c.44.23.54.39.53.37,0-.01-.03-.05-.04-.09-.01-.04-.01-.06-.01-.04h7.37ZM558.06,867.62c1.34-1.34,2.13-3.08,2.13-5.06h-7.37s0-.01,0-.04c0-.03.02-.06.03-.09.01-.03.03-.05.03-.06,0,0,0,0-.04.04l5.21,5.21ZM552.96,870.1c1.78-.44,3.58-1.13,4.94-2.34l-4.9-5.51s-.11.09-.43.24c-.32.14-.77.3-1.4.46l1.79,7.15ZM545.88,870.68c2.74,0,5.1-.16,6.94-.55l-1.52-7.21c-1.11.23-2.88.39-5.43.39v7.37ZM530.9,868.56c5.11,1.4,10.1,2.12,14.98,2.12v-7.37c-4.15,0-8.49-.61-13.03-1.85l-1.95,7.11ZM517.07,862.71c4.17,2.42,8.76,4.36,13.76,5.83l2.09-7.07c-4.49-1.33-8.54-3.04-12.15-5.14l-3.7,6.38ZM513.42,881.09l8.87-20.07-6.74-2.98-8.87,20.07,6.74,2.98ZM526.68,882.09c-6.14-1.5-11.01-3.4-14.72-5.64l-3.81,6.31c4.54,2.74,10.17,4.88,16.79,6.49l1.75-7.16ZM545.65,884.32c-6.57,0-12.88-.75-18.97-2.23l-1.75,7.16c6.68,1.63,13.58,2.44,20.71,2.44v-7.37ZM566.77,884.27l1.5,3.37h.02s.02-.02.02-.02l-1.54-3.35ZM579.38,874.23l-3.04-2.08h0s0,.01,0,.01l3.05,2.07ZM581.24,849.72l-3.21,1.82,3.21-1.82ZM574.71,842.72l-2.06,3.05h.02s.02.03.02.03l2.02-3.08ZM565.95,838.4l-1.19,3.49,1.19-3.49ZM556.27,835.83l-.71,3.62h0s0,0,0,0l.69-3.62ZM547.4,834.08l-.74,3.61h.01s.01,0,.01,0l.72-3.61ZM540.98,832.1l-1.71,3.26.06.03.06.03,1.58-3.33ZM539.46,826.15l-2.74-2.47-.07.08-.07.08,2.88,2.3ZM542.85,824.28l-1.06-3.53,1.06,3.53ZM560.12,825.1l-.96,3.56h0s0,0,0,0l.95-3.56ZM571.91,829.65l-1.65,3.3,3.54,1.77,1.52-3.65-3.4-1.41ZM580.19,809.69l3.4,1.41,1.25-3.02-2.85-1.6-1.81,3.21ZM565.72,804.32l-.78,3.6.78-3.6ZM528.26,806.31l-1.48-3.38h0s0,0,0,0l1.5,3.37ZM515.54,816.34l-3.04-2.08h0s0,.01,0,.01l3.05,2.07ZM513.79,841.09l-3.23,1.78v.02s.02.02.02.02l3.21-1.82ZM520.2,848.09l-2.06,3.05h.02s.02.03.02.03l2.02-3.08ZM529.07,852.41l-1.19,3.49h.01s.01,0,.01,0l1.17-3.5ZM538.76,855.09l-.79,3.6h.04s.04.02.04.02l.71-3.62ZM547.51,856.96l-.84,3.59h.06s.06.03.06.03l.72-3.61ZM554.05,859.06l-1.71,3.26,1.71-3.26ZM555.45,865.01l2.45,2.75.08-.07.08-.08-2.61-2.61ZM552.07,866.53l.76,3.61h.07s.07-.03.07-.03l-.89-3.58ZM531.88,865.01l-1.04,3.53h.03s.03.02.03.02l.97-3.55ZM518.92,859.53l1.85-3.19-3.56-2.06-1.66,3.76,3.37,1.49ZM510.05,879.6l-3.37-1.49-1.31,2.97,2.78,1.68,1.9-3.16ZM525.81,885.67l.87-3.58-.87,3.58ZM448.38,825.21v40.15h7.37v-40.15h-7.37ZM491.4,821.53h-39.33v7.37h39.33v-7.37ZM487.71,804.44v20.77h7.37v-20.77h-7.37ZM424.99,808.13h66.41v-7.37h-66.41v7.37ZM428.67,886.13v-81.69h-7.37v81.69h7.37ZM492.91,882.45h-67.92v7.37h67.92v-7.37ZM489.23,865.36v20.77h7.37v-20.77h-7.37ZM452.06,869.05h40.85v-7.37h-40.85v7.37ZM453.88,854.62v-19.84h-7.37v19.84h7.37ZM486.61,850.94h-36.41v7.37h36.41v-7.37ZM482.92,834.78v19.84h7.37v-19.84h-7.37ZM450.2,838.47h36.41v-7.37h-36.41v7.37ZM452.06,825.21v-3.69h-3.69v3.69h3.69ZM491.4,825.21v3.69h3.69v-3.69h-3.69ZM491.4,804.44h3.69v-3.69h-3.69v3.69ZM424.99,804.44v-3.69h-3.69v3.69h3.69ZM424.99,886.13h-3.69v3.69h3.69v-3.69ZM492.91,886.13v3.69h3.69v-3.69h-3.69ZM492.91,865.36h3.69v-3.69h-3.69v3.69ZM452.06,865.36h-3.69v3.69h3.69v-3.69ZM450.2,854.62h-3.69v3.69h3.69v-3.69ZM486.61,854.62v3.69h3.69v-3.69h-3.69ZM486.61,834.78h3.69v-3.69h-3.69v3.69ZM450.2,834.78v-3.69h-3.69v3.69h3.69ZM362.07,825.21v60.92h7.37v-60.92h-7.37ZM404.62,821.53h-38.86v7.37h38.86v-7.37ZM400.93,804.44v20.77h7.37v-20.77h-7.37ZM338.21,808.13h66.41v-7.37h-66.41v7.37ZM341.9,886.13v-81.69h-7.37v81.69h7.37ZM365.75,882.45h-27.54v7.37h27.54v-7.37ZM367.57,859.99v-20.77h-7.37v20.77h7.37ZM399.83,856.31h-35.95v7.37h35.95v-7.37ZM396.15,839.22v20.77h7.37v-20.77h-7.37ZM363.89,842.9h35.95v-7.37h-35.95v7.37ZM365.75,825.21v-3.69h-3.69v3.69h3.69ZM404.62,825.21v3.69h3.69v-3.69h-3.69ZM404.62,804.44h3.69v-3.69h-3.69v3.69ZM338.21,804.44v-3.69h-3.69v3.69h3.69ZM338.21,886.13h-3.69v3.69h3.69v-3.69ZM365.75,886.13v3.69h3.69v-3.69h-3.69ZM363.89,859.99h-3.69v3.69h3.69v-3.69ZM399.83,859.99v3.69h3.69v-3.69h-3.69ZM399.83,839.22h3.69v-3.69h-3.69v3.69ZM363.89,839.22v-3.69h-3.69v3.69h3.69Z"/>
            <path class="st1"
                  d="M947.37,886.13v-81.69h27.54v60.34h36.88v21.36h-64.42ZM854.04,871.9l7-19.84h37.58l7,19.84h-51.58ZM832.8,886.13l35.71-81.69h27.08l35.71,81.69h-28.48l-26.38-68.62h10.74l-26.38,68.62h-28.01ZM768.6,886.13l-34.55-81.69h29.64l28.13,68.97h-17.62l28.94-68.97h27.08l-34.55,81.69h-27.08ZM690.45,886.13v-81.69h27.54v81.69h-27.54ZM620.16,886.13v-60.34h-23.92v-21.36h75.39v21.36h-23.92v60.34h-27.54ZM545.65,888c-6.85,0-13.46-.78-19.84-2.33-6.38-1.56-11.63-3.58-15.76-6.07l8.87-20.07c3.89,2.26,8.21,4.08,12.95,5.49,4.82,1.32,9.49,1.98,14,1.98,2.65,0,4.71-.16,6.19-.47,1.56-.39,2.68-.89,3.38-1.52.7-.7,1.05-1.52,1.05-2.45,0-1.48-.82-2.65-2.45-3.5s-3.81-1.56-6.54-2.1c-2.65-.62-5.56-1.24-8.75-1.87-3.19-.7-6.42-1.6-9.69-2.68-3.19-1.09-6.15-2.53-8.87-4.32-2.65-1.79-4.79-4.12-6.42-7-1.63-2.96-2.45-6.61-2.45-10.97,0-5.06,1.4-9.65,4.2-13.77,2.88-4.2,7.12-7.55,12.72-10.04,5.68-2.49,12.72-3.73,21.12-3.73,5.52,0,10.97.58,16.34,1.75,5.37,1.17,10.19,2.96,14.47,5.37l-8.29,19.96c-4.05-2.02-7.98-3.54-11.79-4.55-3.73-1.01-7.39-1.52-10.97-1.52-2.65,0-4.75.23-6.3.7-1.56.47-2.68,1.09-3.38,1.87-.62.78-.93,1.63-.93,2.57,0,1.4.82,2.53,2.45,3.38,1.63.78,3.77,1.44,6.42,1.98,2.72.54,5.68,1.13,8.87,1.75,3.27.62,6.5,1.48,9.69,2.57s6.11,2.53,8.75,4.32c2.72,1.79,4.9,4.12,6.54,7,1.63,2.88,2.45,6.46,2.45,10.74,0,4.98-1.44,9.57-4.32,13.77-2.8,4.12-7,7.47-12.6,10.04-5.6,2.49-12.64,3.73-21.12,3.73ZM452.06,865.36h40.85v20.77h-67.92v-81.69h66.41v20.77h-39.33v40.15ZM450.2,834.78h36.41v19.84h-36.41v-19.84ZM365.75,886.13h-27.54v-81.69h66.41v20.77h-38.86v60.92ZM363.89,839.22h35.95v20.77h-35.95v-20.77Z"/>
        </g>
    </g>
    <g>
        <path class="st0"
              d="M742.15,377.32c7.32-3.18,6.3-8.36,4.86-11.38-.55-1.17-1.3-2.22-2.19-3.18-16.79-18.16-12.77-27.66-12.77-27.66,11.11-32.04,0-48.05,0-48.05-3.44-6.44-7.25-12.32-11.36-17.66.32-.87.59-1.74.89-2.61l.64-1.83c.09-.3.23-.64.27-.89l.18-.82.39-1.63.18-.82c.05-.14.02-.25.02-.37v-3.09c.3-4.03-1-6.48-1.8-9.41l-2.03-3.34-.5-.85c-.16-.27-.36-.5-.68-.89-.62-.78-1.62-1.81-2.35-2.45-.78-.69-.78-.66-1.05-.87-.23-.18-.48-.39-.73-.57-.23-.18-.55-.37-.82-.57-.27-.18-.59-.39-.94-.57-.62-.39-1.46-.8-2.24-1.19l-1.39-.55c-.25-.09-.43-.21-.73-.27l-.89-.25c-.59-.14-1.12-.32-1.76-.46l-2.19-.27-1.09-.14c-.43-.02-.94.02-1.41.05l-2.87.16-.64.05c-.25.05-.59.21-.89.3l-1.8.64-3.63,1.31-.91.32-1.19.73-2.39,1.51-.5.3c-1.57-.8-3.19-1.56-4.79-2.24,1.23-1.47,2.46-2.95,3.7-4.47.64-.76,1.28-1.63,1.89-2.43.62-.82,1.25-1.6,1.87-2.47,1.23-1.79,2.46-3.44,3.65-5.4l.89-1.42.46-.73s.16-.23.39-.69c.21-.34.39-.71.59-1.08,1.48-2.93,2.62-6.53,2.9-10.33.27-3.8-.32-7.72-1.57-11.15-1.28-3.48-3.19-6.5-5.5-9.05-2.33-2.54-5.09-4.6-8.23-6.14-2.6-1.28-5.52-2.18-8.62-2.54-3.12,2.77-2.49,6.78-5.34,8.93-3.65,2.75-40.51-16.42-42.17-19.88-3.99-8.38,6.09-19.47-15.24-20.27-9.15-.34-79.03,14.61-84.12,18.66-5.52,4.42-8.33,17.79-12.45,23.45-9.24,12.66-27.42,22.1-35.24,36.78-1.41,2.66-11.02,56.61-10.7,59.61,1.19,10.67,37.89,48.46,47.51,53.45,14.44,7.53,53.92-12.46,72.24-5.57,2.49.94,19.64,10.49,20.6,11.73,3.49,4.63-3.01,16.76,0,23.86,3.01,7.08,12.07,15.16,16.63,23.84,4.36,8.31,6.59,16.86,6.91,25.42.82,7.86,29.77,9.8,37.02-.62,1.46-1.24,2.85-2.18,4.08-2.68,11.31-4.67,9.4.71,28.1,8.95,18.7,8.27,28.47-2.61,28.35-11.47-.11-8.84,2.01-7.67,2.01-7.67.71.41,1.3.69,2.21.8,2.87.39,5.7-1.56,6.23-4.42.84-4.83-4.97-7.49-4.97-7.49.71-.11,2.01-.39,2.67-.53.25-.05.5-.09.75-.18,5.66-1.79,6.43-9.76,1.8-11.02-4.72-1.26-3.67-5.7-3.67-5.7,4.06.21,5.5-.55,5.5-.55Z"/>
        <g>
            <path class="st2"
                  d="M721.03,165.83c-8.13,0-14.73,6.59-14.73,14.73v1.23c0,8.13,6.59,14.73,14.73,14.73s14.73-6.59,14.73-14.73v-1.23c0-8.13-6.59-14.73-14.73-14.73Z"/>
            <path class="st1"
                  d="M730.85,181.59c0,5.53-4.4,10.01-9.82,10.01s-9.82-4.48-9.82-10.01v-.83c0-5.53,4.4-10.01,9.82-10.01s9.82,4.48,9.82,10.01v.83Z"/>
            <path class="st2"
                  d="M757.24,205.11h-18.41c-8.47,0-15.34,6.87-15.34,15.34s6.87,15.34,15.34,15.34h18.41c8.47,0,15.34-6.87,15.34-15.34s-6.87-15.34-15.34-15.34Z"/>
            <path class="st1"
                  d="M757.26,230.86h-18.45c-5.75,0-10.41-4.66-10.41-10.41s4.66-10.41,10.41-10.41h18.45c5.75,0,10.41,4.66,10.41,10.41s-4.66,10.41-10.41,10.41Z"/>
            <path class="st2"
                  d="M780.56,248.07h-23.32c-8.47,0-15.34,6.87-15.34,15.34s6.87,15.34,15.34,15.34h23.32c8.47,0,15.34-6.87,15.34-15.34s-6.87-15.34-15.34-15.34Z"/>
            <path class="st1"
                  d="M780.58,273.82h-23.36c-5.75,0-10.41-4.66-10.41-10.41s4.66-10.41,10.41-10.41h23.36c5.75,0,10.41,4.66,10.41,10.41s-4.66,10.41-10.41,10.41Z"/>
            <path class="st2"
                  d="M806.33,338.9h-25.78c-8.47,0-15.34,6.87-15.34,15.34s6.87,15.34,15.34,15.34h25.78c8.47,0,15.34-6.87,15.34-15.34s-6.87-15.34-15.34-15.34Z"/>
            <path class="st1"
                  d="M806.35,364.65h-25.82c-5.75,0-10.41-4.66-10.41-10.41s4.66-10.41,10.41-10.41h25.82c5.75,0,10.41,4.66,10.41,10.41s-4.66,10.41-10.41,10.41Z"/>
            <path class="st2"
                  d="M775.65,387.99h-6.14c-8.47,0-15.34,6.87-15.34,15.34s6.87,15.34,15.34,15.34h6.14c8.47,0,15.34-6.87,15.34-15.34s-6.87-15.34-15.34-15.34Z"/>
            <path class="st1"
                  d="M775.67,413.75h-6.18c-5.75,0-10.41-4.66-10.41-10.41s4.66-10.41,10.41-10.41h6.18c5.75,0,10.41,4.66,10.41,10.41s-4.66,10.41-10.41,10.41Z"/>
            <path class="st2"
                  d="M866.47,293.48h-99.42c-8.47,0-15.34,6.87-15.34,15.34s6.87,15.34,15.34,15.34h99.42c8.47,0,15.34-6.87,15.34-15.34s-6.87-15.34-15.34-15.34Z"/>
            <path class="st1"
                  d="M866.5,319.24h-99.46c-5.75,0-10.41-4.66-10.41-10.41s4.66-10.41,10.41-10.41h99.46c5.75,0,10.41,4.66,10.41,10.41s-4.66,10.41-10.41,10.41Z"/>
            <path class="st2"
                  d="M760.3,438.32h-125.19c-8.81,0-15.96,7.14-15.96,15.96s7.14,15.96,15.96,15.96h125.19c8.81,0,15.96-7.14,15.96-15.96s-7.14-15.96-15.96-15.96Z"/>
            <path class="st1"
                  d="M760.32,465.32h-125.22c-6.09,0-11.04-4.94-11.04-11.04s4.94-11.04,11.04-11.04h125.22c6.09,0,11.04,4.94,11.04,11.04s-4.94,11.04-11.04,11.04Z"/>
            <path class="st2"
                  d="M720.41,482.5h-77.33c-8.47,0-15.34,6.87-15.34,15.34s6.87,15.34,15.34,15.34h77.33c8.47,0,15.34-6.87,15.34-15.34s-6.87-15.34-15.34-15.34Z"/>
            <path class="st1"
                  d="M720.41,508.28h-77.33c-5.76,0-10.43-4.67-10.43-10.43s4.67-10.43,10.43-10.43h77.33c5.76,0,10.43,4.67,10.43,10.43s-4.67,10.43-10.43,10.43Z"/>
            <path class="st2"
                  d="M714.28,526.69h-66.28c-8.47,0-15.34,6.87-15.34,15.34s6.87,15.34,15.34,15.34h66.28c8.47,0,15.34-6.87,15.34-15.34s-6.87-15.34-15.34-15.34Z"/>
            <path class="st1"
                  d="M714.28,552.46h-66.28c-5.76,0-10.43-4.67-10.43-10.43s4.67-10.43,10.43-10.43h66.28c5.76,0,10.43,4.67,10.43,10.43s-4.67,10.43-10.43,10.43Z"/>
            <path class="st2"
                  d="M679.3,568.42h-20.87c-8.13,0-14.73,6.59-14.73,14.73s6.59,14.73,14.73,14.73h20.87c8.13,0,14.73-6.59,14.73-14.73s-6.59-14.73-14.73-14.73Z"/>
            <rect class="st1" x="648.61" y="573.33" width="40.5" height="19.64" rx="9.82" ry="9.82"/>
            <path class="st2"
                  d="M638.79,338.9c-8.13,0-14.73,6.59-14.73,14.73v1.23c0,8.13,6.59,14.73,14.73,14.73s14.73-6.59,14.73-14.73v-1.23c0-8.13-6.59-14.73-14.73-14.73Z"/>
            <path class="st1"
                  d="M649.92,354.7c0,6.14-4.98,11.12-11.12,11.12s-11.12-4.98-11.12-11.12v-.93c0-6.14,4.98-11.12,11.12-11.12s11.12,4.98,11.12,11.12v.93Z"/>
        </g>
    </g>
</svg>