<svg width="24" height="24" viewBox="0 0 24 24" fill="none" xmlns="http://www.w3.org/2000/svg">
    <circle opacity="0.2" cx="12" cy="12" r="9.5" stroke="white" stroke-width="3"/>
    <mask id="path-2-inside-1_38_25" fill="white">
        <path d="M21.4501 13.0003C22.2723 13.0873 23.0202 12.4894 22.9948 11.6629C22.9522 10.2714 22.6455 8.89584 22.0864 7.61095C21.3275 5.86679 20.1292 4.34924 18.6086 3.20646C17.088 2.06369 15.2971 1.33476 13.4106 1.09083C12.0209 0.911127 10.6144 0.999164 9.2659 1.3452C8.46501 1.55071 8.09865 2.43535 8.41093 3.20094C8.72321 3.96654 9.59696 4.31876 10.4073 4.15426C11.266 3.97994 12.1509 3.94709 13.0267 4.06033C14.3996 4.23786 15.703 4.76838 16.8097 5.60009C17.9164 6.43179 18.7885 7.53626 19.3409 8.80566C19.6932 9.61535 19.9078 10.4745 19.9792 11.3478C20.0465 12.1719 20.6279 12.9132 21.4501 13.0003Z"/>
    </mask>
    <path d="M21.4501 13.0003C22.2723 13.0873 23.0202 12.4894 22.9948 11.6629C22.9522 10.2714 22.6455 8.89584 22.0864 7.61095C21.3275 5.86679 20.1292 4.34924 18.6086 3.20646C17.088 2.06369 15.2971 1.33476 13.4106 1.09083C12.0209 0.911127 10.6144 0.999164 9.2659 1.3452C8.46501 1.55071 8.09865 2.43535 8.41093 3.20094C8.72321 3.96654 9.59696 4.31876 10.4073 4.15426C11.266 3.97994 12.1509 3.94709 13.0267 4.06033C14.3996 4.23786 15.703 4.76838 16.8097 5.60009C17.9164 6.43179 18.7885 7.53626 19.3409 8.80566C19.6932 9.61535 19.9078 10.4745 19.9792 11.3478C20.0465 12.1719 20.6279 12.9132 21.4501 13.0003Z"
          stroke="white" stroke-width="3.85714" mask="url(#path-2-inside-1_38_25)"/>
</svg>
