<?xml version="1.0" encoding="UTF-8"?>
<svg id="Layer_1" xmlns="http://www.w3.org/2000/svg" version="1.1" viewBox="0 0 1080 1080">
  <!-- Generator: Adobe Illustrator 29.0.0, SVG Export Plug-In . SVG Version: 2.1.0 Build 186)  -->
  <defs>
    <style>
      .st0 {
        fill: #1f2643;
      }
    </style>
  </defs>
  <g>
    <path class="st0" d="M262.07,508.9h-49.67c-40.75,0-73.78,33.03-73.78,73.78v60.28h60.73l-9.52-6.42c-11.28-7.61-14.26-22.93-6.65-34.22,7.61-11.28,22.93-14.26,34.22-6.65l24.94,16.83c10.07,6.8,13.5,19.73,8.71,30.46h11.01v-134.06ZM249,576.54c-4.76,7.06-12.54,10.87-20.45,10.87-4.74,0-9.53-1.37-13.76-4.22l-24.94-16.83c-11.28-7.61-14.26-22.93-6.65-34.22,7.61-11.29,22.93-14.26,34.22-6.65l24.94,16.83c11.28,7.61,14.26,22.93,6.65,34.22Z"/>
    <path class="st0" d="M943.76,508.9h-49.67c-40.75,0-73.78,33.03-73.78,73.78v60.28h60.73l-9.52-6.42c-11.28-7.61-14.26-22.93-6.65-34.22,7.61-11.28,22.93-14.26,34.22-6.65l24.94,16.83c10.07,6.8,13.5,19.73,8.71,30.46h11.01v-134.06ZM930.69,576.54c-4.76,7.06-12.54,10.87-20.45,10.87-4.74,0-9.53-1.37-13.76-4.22l-24.94-16.83c-11.28-7.61-14.26-22.93-6.65-34.22,7.61-11.29,22.93-14.26,34.22-6.65l24.94,16.83c11.28,7.61,14.26,22.93,6.65,34.22Z"/>
    <path class="st0" d="M752.48,588.69c-2.27-2.5-5.34-2.49-7.44-1.62-2.08.86-4.24,3-4.08,6.42v.22c.13,1.64.2,3.32.27,4.95.25,5.9.49,11.48,3.1,16.9,1.74,3.84-.19,7.22-2.99,8.58-2.79,1.37-6.64.82-8.59-2.88-.88-1.81-.89-3.92-.03-5.7,1.87-3.83,2.42-7.55,2.71-10.69.26-3.82.48-7.64.66-11.33.17-3.45-2.01-5.61-4.11-6.48-2.08-.86-5.11-.9-7.42,1.65l-.15.16c-1.07,1.24-2.21,2.49-3.31,3.69-4,4.35-7.77,8.46-9.76,14.13-1.49,3.95-5.24,4.97-8.18,3.96-2.94-1.01-5.27-4.12-4.04-8.11.65-1.9,2.14-3.4,4.02-4.05,4.05-1.39,7.19-3.74,9.47-5.64,2.86-2.5,5.72-5.05,8.48-7.55,2.54-2.31,2.54-5.39,1.68-7.48-.86-2.08-3-4.24-6.42-4.08h-.11c-1.75.13-3.43.2-5.06.27-5.9.25-11.48.49-16.9,3.1-3.84,1.74-7.21-.19-8.58-2.99-1.37-2.79-.82-6.64,2.88-8.59,1.81-.88,3.92-.89,5.71-.03,3.85,1.88,7.73,2.44,10.68,2.71,3.81.26,7.63.48,11.33.66,3.46.16,5.61-2.02,6.48-4.11.86-2.08.88-5.12-1.65-7.42l-.17-.15c-1.24-1.07-2.49-2.21-3.68-3.32-4.35-4-8.46-7.77-14.13-9.76-3.95-1.49-4.97-5.24-3.96-8.18,1.01-2.94,4.12-5.27,8.11-4.04,1.9.65,3.4,2.15,4.05,4.01,1.39,4.05,3.74,7.19,5.64,9.47,2.52,2.88,5.07,5.75,7.55,8.48,2.32,2.56,5.39,2.54,7.48,1.68,2.08-.86,4.24-3,4.08-6.42v-.22c-.13-1.64-.2-3.32-.28-4.95-.25-5.9-.49-11.48-3.1-16.9-1.74-3.84.2-7.22,2.99-8.58,2.79-1.37,6.64-.82,8.59,2.88.88,1.81.89,3.92.03,5.7-1.87,3.83-2.42,7.55-2.71,10.69-.26,3.8-.48,7.63-.66,11.33-.17,3.45,2.01,5.61,4.11,6.48,2.08.86,5.12.86,7.42-1.65l32.89-36.7c-28.15-24.48-70.84-23.34-97.62,3.44-27.98,27.98-27.98,73.35,0,101.34,26.3,26.3,67.94,27.88,96.09,4.75l-31.37-38.04Z"/>
    <g>
      <polygon class="st0" points="323.49 504.14 315.29 504.14 315.29 586.81 304.31 586.81 304.31 595.01 315.29 595.01 315.29 642.96 323.49 642.96 323.49 595.01 366.4 595.01 366.4 586.81 323.49 586.81 323.49 504.14"/>
      <path class="st0" d="M409.8,573.55v-69.41h-86.32c0,38.33,38.64,69.41,86.32,69.41Z"/>
    </g>
    <g>
      <path class="st0" d="M641.59,508.3h-45.06v134.66h45.06c5.47,0,9.91-4.44,9.91-9.91v-.75c0-3.78-2.18-7.17-5.54-8.9-17.32-8.91-29.18-26.95-29.18-47.77s11.85-38.86,29.18-47.77c3.36-1.73,5.54-5.12,5.54-8.9v-.75c0-5.47-4.44-9.91-9.91-9.91Z"/>
      <path class="st0" d="M612.99,500.26c9.09,0,16.47-7.37,16.47-16.47s-7.37-16.47-16.47-16.47-16.47,7.37-16.47,16.47,7.37,16.47,16.47,16.47Z"/>
    </g>
    <path class="st0" d="M512.86,610.42c29.71-.08,53.77-24.18,53.77-53.92s-24.14-53.92-53.92-53.92c-41.68,0-75.62,33.78-75.62,75.61v64.76h51.67v-16.3c0-2.84,2.3-5.14,5.14-5.14s5.14,2.3,5.14,5.14v16.3h63.16c-8.26-19.1-27.25-32.48-49.35-32.54ZM515.93,591.49c2.43-18.23,16.76-32.56,34.98-34.99-18.22-2.43-32.55-16.76-34.98-34.98v-12.4c24.69,1.67,44.28,22.27,44.28,47.38s-19.59,45.72-44.28,47.38v-12.38ZM509.51,521.52c-2.43,18.22-16.76,32.55-34.98,34.98,18.22,2.43,32.55,16.77,34.98,34.99v12.38c-24.7-1.66-44.28-22.26-44.28-47.38s19.58-45.71,44.28-47.38v12.4Z"/>
  </g>
  <g>
    <path class="st0" d="M172.46,679.98c3.54,2.23,5.35,5.53,5.43,9.9v.75h-12.93v-.25c0-1.25-.46-2.29-1.37-3.12-.92-.83-2.31-1.25-4.18-1.25s-3.24.27-4.22.81c-.98.54-1.47,1.21-1.47,2,0,1.12.67,1.96,2,2.5,1.33.54,3.48,1.1,6.43,1.69,3.46.71,6.3,1.45,8.53,2.22,2.23.77,4.17,2.03,5.84,3.78,1.67,1.75,2.52,4.12,2.56,7.12,0,5.08-1.72,8.85-5.15,11.3-3.44,2.46-8.03,3.68-13.77,3.68-6.7,0-11.92-1.12-15.65-3.37-3.73-2.25-5.59-6.22-5.59-11.93h13.05c0,2.17.56,3.61,1.69,4.34,1.12.73,2.87,1.09,5.25,1.09,1.75,0,3.2-.19,4.34-.56,1.14-.38,1.72-1.14,1.72-2.31,0-1.04-.64-1.82-1.91-2.34-1.27-.52-3.34-1.07-6.21-1.66-3.5-.75-6.39-1.53-8.68-2.34-2.29-.81-4.29-2.16-6-4.03-1.71-1.87-2.56-4.41-2.56-7.62,0-4.71,1.82-8.17,5.47-10.4,3.64-2.23,8.25-3.34,13.83-3.34s10.01,1.12,13.55,3.34Z"/>
    <path class="st0" d="M220.06,677.38h17.11l-15.43,17.68,15.74,25.29h-16.3l-8.93-15.74-7.5,6.12v9.62h-13.8v-42.97h13.8v18.36l15.3-18.36Z"/>
    <path class="st0" d="M248.6,720.36v-42.97h13.8v42.97h-13.8Z"/>
    <path class="st0" d="M308,720.36l-18.05-20.86v20.86h-12.68v-42.97h12.05l18.05,21.17v-21.17h12.68v42.97h-12.05Z"/>
    <path class="st0" d="M369.89,681.41c3.71,3.19,5.56,7.74,5.56,13.65h-13.18c0-2.5-.66-4.48-1.97-5.93-1.31-1.46-3.18-2.19-5.59-2.19-2.79,0-4.84.88-6.15,2.62-1.31,1.75-1.97,4.18-1.97,7.31v4c0,3.08.66,5.51,1.97,7.28,1.31,1.77,3.32,2.66,6.03,2.66s4.68-.69,6.06-2.06,2.06-3.31,2.06-5.81h12.74c0,5.87-1.8,10.37-5.4,13.49s-8.69,4.68-15.27,4.68c-7.33,0-12.88-1.87-16.65-5.62-3.77-3.75-5.65-9.28-5.65-16.61s1.88-12.87,5.65-16.61c3.77-3.75,9.32-5.62,16.65-5.62,6.37,0,11.41,1.59,15.11,4.78Z"/>
    <path class="st0" d="M416.67,720.36l-1.81-6.06h-15.05l-1.81,6.06h-14.12l15.68-42.97h16.05l15.68,42.97h-14.61ZM402.68,704.68h9.31l-4.5-15.3h-.25l-4.56,15.3Z"/>
    <path class="st0" d="M480.13,697.68c-1.42,2.12-3.48,3.68-6.18,4.68l9.56,17.99h-15.49l-7.62-15.68h-5.12v15.68h-13.8v-42.97h26.29c3.08,0,5.71.59,7.9,1.78,2.19,1.19,3.83,2.79,4.93,4.81,1.1,2.02,1.66,4.22,1.66,6.59,0,2.62-.71,5-2.12,7.12ZM467.07,688.31c-.75-.75-1.67-1.12-2.75-1.12h-9.06v7.93h9.06c1.08,0,2-.38,2.75-1.16.75-.77,1.12-1.72,1.12-2.84s-.38-2.06-1.12-2.81Z"/>
    <path class="st0" d="M495.05,677.38h37.16v10.31h-23.36v5.93h19.99v9.87h-19.99v6.56h23.8v10.31h-37.6v-42.97Z"/>
    <path class="st0" d="M570.94,677.38h34.73v10.31h-20.92v7.37h17.99v9.87h-17.99v15.43h-13.8v-42.97Z"/>
    <path class="st0" d="M617.6,677.38h37.16v10.31h-23.36v5.93h19.99v9.87h-19.99v6.56h23.8v10.31h-37.6v-42.97Z"/>
    <path class="st0" d="M699.29,679.98c3.54,2.23,5.35,5.53,5.43,9.9v.75h-12.93v-.25c0-1.25-.46-2.29-1.37-3.12-.92-.83-2.31-1.25-4.18-1.25s-3.24.27-4.22.81c-.98.54-1.47,1.21-1.47,2,0,1.12.67,1.96,2,2.5,1.33.54,3.48,1.1,6.43,1.69,3.46.71,6.3,1.45,8.53,2.22,2.23.77,4.17,2.03,5.84,3.78,1.67,1.75,2.52,4.12,2.56,7.12,0,5.08-1.72,8.85-5.15,11.3-3.44,2.46-8.03,3.68-13.77,3.68-6.7,0-11.92-1.12-15.65-3.37-3.73-2.25-5.59-6.22-5.59-11.93h13.05c0,2.17.56,3.61,1.69,4.34,1.12.73,2.87,1.09,5.25,1.09,1.75,0,3.2-.19,4.34-.56,1.14-.38,1.72-1.14,1.72-2.31,0-1.04-.63-1.82-1.91-2.34-1.27-.52-3.34-1.07-6.21-1.66-3.5-.75-6.39-1.53-8.68-2.34-2.29-.81-4.29-2.16-6-4.03-1.71-1.87-2.56-4.41-2.56-7.62,0-4.71,1.82-8.17,5.46-10.4,3.64-2.23,8.25-3.34,13.83-3.34s10.01,1.12,13.55,3.34Z"/>
    <path class="st0" d="M742.51,688.38v31.98h-13.8v-31.98h-14.12v-10.99h41.97v10.99h-14.05Z"/>
    <path class="st0" d="M768.49,720.36v-42.97h13.8v42.97h-13.8Z"/>
    <path class="st0" d="M808.84,720.36l-15.24-42.97h14.74l8.62,28.73h.25l8.68-28.73h14.12l-15.18,42.97h-15.99Z"/>
    <path class="st0" d="M879.54,720.36l-1.81-6.06h-15.05l-1.81,6.06h-14.12l15.68-42.97h16.05l15.68,42.97h-14.62ZM865.55,704.68h9.31l-4.5-15.3h-.25l-4.56,15.3Z"/>
    <path class="st0" d="M904.33,677.38h13.8v31.98h22.05v10.99h-35.85v-42.97Z"/>
  </g>
</svg>