<svg xmlns="http://www.w3.org/2000/svg" xmlns:xlink="http://www.w3.org/1999/xlink" width="60.559" height="63.074" viewBox="0 0 60.559 63.074"><defs><clipPath id="a"><rect width="60.559" height="63.074" transform="translate(0 0)" fill="none"></rect></clipPath></defs><g transform="translate(0 0)" clip-path="url(#a)"><path d="M13.218.569A6.534,6.534,0,0,0,4.643,3.813C1.711,10.093.476,20.232.006,25.6a1.4,1.4,0,0,0,2.377,1.127C6.274,22.943,13.415,15.5,16.391,9.234A6.47,6.47,0,0,0,13.218.569" fill="#ffd24a"></path><path d="M59.609,11.276A9.662,9.662,0,0,0,46.8,6.827c-9.283,4.346-20.3,14.681-25.926,20.332a2.075,2.075,0,0,0,1.63,3.533c8.007-.609,23.167-2.282,32.487-6.575a9.566,9.566,0,0,0,4.616-12.841" fill="#ffd24a"></path><path d="M53.309,58.285a7.037,7.037,0,0,0-4.465-8.805c-7.062-2.413-18.059-2.562-23.865-2.444a1.511,1.511,0,0,0-.931,2.676c4.5,3.727,13.3,10.512,20.352,12.971a6.965,6.965,0,0,0,8.909-4.4" fill="#ffd24a"></path></g></svg>