<svg xmlns="http://www.w3.org/2000/svg" xmlns:xlink="http://www.w3.org/1999/xlink" width="241.674" height="285.385" viewBox="0 0 241.674 285.385"><defs><clipPath id="a"><rect width="241.674" height="285.385" fill="none"></rect></clipPath></defs><g clip-path="url(#a)"><path d="M99.8,104.857a31.224,31.224,0,0,1,3.385-22.387c4.148-7.322,10.98-11.3,18.947-13.427,2.228-.593,4.548-.831,6.794-1.369,6.612-1.584,12.584.265,18.242,3.454,8.127,4.58,12.817,11.831,15.012,20.671,1.243,5.005.485,10.091-1,15.007-.53,1.76-1.377,3.422-2.011,5.154-2.588,7.06-7.724,11.652-14.419,14.571-10.3,4.489-20.533,4.392-30.684-.675-6.045-3.017-9.6-8.11-12.168-14.051a21.865,21.865,0,0,1-2.1-6.947m37.315,11.824c-3.236-1.129-6.252.423-10.207.811,4.057,1.268,7.08-.075,10.207-.811" transform="translate(-32.708 -22.151)" fill="#edc32f"></path><path d="M132.767,177.661c-1.588-12.806-3.793-30.105-5.855-47.421-1.026-8.613-1.759-17.26-2.675-25.887-1.137-10.7-3.051-21.3-4.627-31.94-2.428-16.394-5.029-32.761-7.677-49.121C111,17.559,110.5,11.758,109.8,5.988a6.882,6.882,0,0,1,.214-2.836,4.254,4.254,0,0,1,8.155-.215,9.058,9.058,0,0,1,.417,2.034c1.563,16.606,4.889,32.95,7.3,49.43,2.076,14.164,4.376,28.3,6.365,42.472,1.06,7.555,1.659,15.176,2.489,22.764.924,8.451,1.791,16.91,2.834,25.346,1.47,11.882,3.044,23.751,4.641,35.616,2.026,15.049,4.279,30.064,7.1,44.988a24.069,24.069,0,0,1,.47,3.084,4.421,4.421,0,0,1-3.262,4.734,4.368,4.368,0,0,1-5.021-2.762,11.869,11.869,0,0,1-.77-2.747c-2.987-15.162-5.094-30.465-7.969-50.236" transform="translate(-36.229 0)" fill="#cb6728"></path><path d="M99.829,255.077c-1.588-12.806-3.793-30.105-5.855-47.421-1.026-8.613-1.759-17.26-2.675-25.887-1.137-10.7-3.051-21.3-4.627-31.94-2.428-16.394-5.029-32.761-7.677-49.121-.928-5.733-1.437-11.534-2.136-17.3a6.893,6.893,0,0,1,.214-2.836,4.254,4.254,0,0,1,8.155-.215,9.058,9.058,0,0,1,.417,2.034c1.563,16.606,4.889,32.95,7.3,49.43,2.076,14.164,4.376,28.3,6.365,42.472,1.06,7.555,1.659,15.176,2.489,22.764.924,8.451,1.791,16.91,2.834,25.346,1.47,11.882,3.044,23.751,4.641,35.616,2.026,15.05,4.279,30.065,7.1,44.988a24.182,24.182,0,0,1,.47,3.085,4.421,4.421,0,0,1-3.262,4.733,4.368,4.368,0,0,1-5.021-2.762,11.869,11.869,0,0,1-.77-2.747c-2.987-15.162-5.094-30.465-7.969-50.236" transform="translate(-25.355 -25.558)" fill="#cb6728"></path><path d="M55.637,207.943c12.777-1.809,30.035-4.313,47.312-6.674,8.594-1.174,17.227-2.058,25.836-3.124,10.683-1.322,21.243-3.419,31.855-5.179,16.35-2.711,32.669-5.6,48.981-8.526,5.716-1.028,11.508-1.636,17.265-2.436a6.876,6.876,0,0,1,2.838.165,4.254,4.254,0,0,1,.357,8.15,9.025,9.025,0,0,1-2.027.452c-16.576,1.85-32.861,5.459-49.3,8.159-14.126,2.32-28.216,4.865-42.355,7.1-7.537,1.19-15.146,1.92-22.718,2.882-8.434,1.07-16.876,2.083-25.293,3.273-11.854,1.675-23.695,3.454-35.531,5.256-15.012,2.286-29.986,4.8-44.858,7.882a24.3,24.3,0,0,1-3.077.524,4.421,4.421,0,0,1-4.789-3.181A4.368,4.368,0,0,1,2.813,217.6a11.884,11.884,0,0,1,2.734-.817c15.108-3.249,30.371-5.62,50.091-8.837" transform="translate(0 -60.062)" fill="#cb6728"></path><path d="M68.662,176.165c12.777-1.809,30.035-4.313,47.313-6.674,8.594-1.174,17.227-2.058,25.836-3.124,10.683-1.322,21.243-3.419,31.856-5.179,16.349-2.711,32.668-5.6,48.98-8.526,5.717-1.028,11.508-1.636,17.265-2.436a6.891,6.891,0,0,1,2.839.165,4.254,4.254,0,0,1,.356,8.15,9.034,9.034,0,0,1-2.027.452c-16.576,1.85-32.861,5.459-49.3,8.159-14.126,2.32-28.216,4.865-42.356,7.1-7.536,1.19-15.145,1.92-22.718,2.882-8.434,1.07-16.876,2.083-25.293,3.273-11.854,1.675-23.695,3.454-35.531,5.256-15.012,2.286-29.986,4.8-44.858,7.882a24.286,24.286,0,0,1-3.076.524,4.422,4.422,0,0,1-4.789-3.18,4.369,4.369,0,0,1,2.675-5.067A11.889,11.889,0,0,1,18.572,185c15.107-3.249,30.371-5.62,50.09-8.837" transform="translate(-4.3 -49.571)" fill="#cb6728"></path></g></svg>