<svg xmlns="http://www.w3.org/2000/svg" xmlns:xlink="http://www.w3.org/1999/xlink" width="203.63" height="215.125" viewBox="0 0 203.63 215.125"><defs><clipPath id="a"><rect width="203.63" height="215.125" fill="none"></rect></clipPath></defs><g clip-path="url(#a)"><path d="M163.622,87.281c-.061,33.446-17.59,59.6-48.668,71.953-17.415,6.921-35.382,10.209-54.2,6.77-16.254-2.97-29.785-10.588-40.08-23.427C7.567,126.239-.075,107.706,0,86.453.061,69.661,6.052,55.2,17.552,43.019a42.7,42.7,0,0,0,5.46-7.159C35.9,14.709,55.286,3.582,79.37.591c37.785-4.694,64.258,19.368,74.909,43.941,6.018,13.885,9.369,28.91,9.343,42.75" transform="translate(0 0)" fill="#ca6425"></path><path d="M268.848,70.243c-.327,13.381-5.054,26.138-12.266,38.119a179.158,179.158,0,0,1-11.526,17.1,131.969,131.969,0,0,0-23.827,50.307,168.4,168.4,0,0,1-8.011,25.4c-2.721,6.519-5.852,12.817-10.488,18.245a38.52,38.52,0,0,1-8.589,7.7c-4.294,2.72-8.848,4.029-13.844,1.92a15.98,15.98,0,0,1-7.664-6.993,28.554,28.554,0,0,1-3.551-13.989,80.242,80.242,0,0,1,2.681-20.642,217.014,217.014,0,0,1,7.294-23c4.257-11.831,8.288-23.743,12.592-35.556a477.341,477.341,0,0,1,22.119-52.054A135.413,135.413,0,0,1,232.988,48.3,29.715,29.715,0,0,1,244.206,40c7.5-3.012,14.63-.81,19.2,5.87,3.117,4.552,4.511,9.7,5.132,15.087a45.262,45.262,0,0,1,.308,9.29M255.5,75.067a43.939,43.939,0,0,0-1.584-12.711,17.863,17.863,0,0,0-4.2-7.642c-2.682-2.833-4.709-3.125-8.007-1.076a26.825,26.825,0,0,0-8.207,8.039,70.98,70.98,0,0,0-7.72,14.944c-3.365,9.22-7.165,18.262-10.872,27.342-9.163,22.442-17.761,45.083-24.162,68.5-2.632,9.631-4.956,19.321-5.928,29.291a24.833,24.833,0,0,0,.485,8.494c.73,2.92,2.491,3.576,5.061,1.954a18.067,18.067,0,0,0,4.646-4.56,49.972,49.972,0,0,0,6.177-10.919,210.951,210.951,0,0,0,7.065-20.43c3.135-10.363,6.543-20.626,11.825-30.145a257.324,257.324,0,0,1,15.046-23.211c5.708-8.1,11.1-16.378,15.075-25.511a61.6,61.6,0,0,0,5.3-22.358" transform="translate(-65.338 -14.946)" fill="#edc32f"></path></g></svg>