<svg width="272" height="48" viewBox="0 0 272 48" fill="none" xmlns="http://www.w3.org/2000/svg">
<g clip-path="url(#clip0_665_1595)">
<path d="M38.9372 4.6084H2.53004C1.36811 4.6084 0.303004 5.5684 0.303004 6.8164V10.8484C0.303004 12.0964 1.36811 13.1524 2.53004 13.1524H38.9372C40.196 13.1524 41.1642 12.0964 41.2611 10.8484V6.9124C41.2611 5.5684 40.196 4.6084 38.9372 4.6084ZM38.9372 27.2644H2.53004C1.94907 27.2644 1.36811 27.5524 0.88397 27.9364C0.496659 28.3204 0.206177 28.8964 0.206177 29.5684V33.6004C0.206177 34.8484 1.27128 35.9044 2.43321 35.9044H38.8404C40.0991 35.9044 41.0674 34.9444 41.1642 33.6004V29.5684C41.2611 28.2244 40.196 27.2644 38.9372 27.2644ZM23.0575 38.4964H2.53004C1.94907 38.4964 1.36811 38.6884 0.980797 39.1684C0.593487 39.5524 0.303004 40.1284 0.303004 40.8004V44.8324C0.303004 46.0804 1.36811 47.1364 2.53004 47.1364H22.9607C24.2194 47.1364 25.1877 46.0804 25.1877 44.8324V40.7044C25.2845 39.5524 24.3162 38.4964 23.0575 38.4964ZM41.2611 15.9364H2.53004C1.94907 15.9364 1.36811 16.1284 0.980797 16.6084C0.593487 16.9924 0.303004 17.5684 0.303004 18.2404V22.2724C0.303004 23.5204 1.36811 24.5764 2.53004 24.5764H41.1642C42.423 24.5764 43.3913 23.5204 43.3913 22.2724V18.2404C43.4881 16.8964 42.5198 15.9364 41.2611 15.9364Z" fill="#00C3F7"/>
<path d="M83.5743 13.728C82.4124 12.576 81.1536 11.712 79.6044 11.04C78.1519 10.368 76.5059 10.08 74.8598 10.08C73.3106 10.08 71.7613 10.368 70.3089 11.04C69.3406 11.52 68.4692 12.096 67.7914 12.864V12.192C67.7914 11.808 67.5977 11.52 67.4041 11.232C67.1136 10.944 66.8231 10.752 66.4358 10.752H61.304C60.9166 10.752 60.5293 10.944 60.3357 11.232C60.0452 11.52 59.9484 11.808 59.9484 12.192V45.792C59.9484 46.176 60.142 46.464 60.3357 46.752C60.6262 47.04 60.9166 47.136 61.304 47.136H66.4358C66.8231 47.136 67.1136 47.04 67.4041 46.752C67.6946 46.464 67.7914 46.176 67.7914 45.792V34.272C68.566 35.04 69.4375 35.712 70.5026 36C71.8582 36.48 73.3106 36.768 74.6662 36.768C76.3122 36.768 77.9583 36.48 79.4107 35.808C80.9599 35.232 82.3155 34.272 83.3806 33.12C84.5426 31.872 85.5108 30.432 86.0918 28.896C86.7696 27.168 87.1569 25.248 87.0601 23.424C87.0601 21.504 86.7696 19.68 86.0918 17.856C85.7045 16.416 84.7362 14.976 83.5743 13.728ZM79.0234 25.92C78.7329 26.592 78.3456 27.264 77.8615 27.84C76.7964 28.992 75.3439 29.568 73.7947 29.568C73.0201 29.568 72.2455 29.376 71.5677 29.088C70.8899 28.8 70.2121 28.32 69.7279 27.84C69.2438 27.264 68.7597 26.592 68.4692 25.92C67.8882 24.384 67.8882 22.752 68.4692 21.216C68.7597 20.544 69.147 19.872 69.7279 19.296C70.3089 18.72 70.8899 18.336 71.5677 17.952C72.2455 17.664 73.0201 17.472 73.7947 17.472C74.5693 17.472 75.344 17.664 76.1186 17.952C76.7964 18.24 77.3773 18.72 77.9583 19.2C78.4424 19.776 78.8297 20.352 79.1202 21.12C79.6044 22.656 79.6044 24.384 79.0234 25.92ZM115.043 10.848H109.911C109.524 10.848 109.234 11.04 108.943 11.232C108.653 11.52 108.556 11.904 108.556 12.288V12.864C107.878 12.096 107.103 11.52 106.232 11.136C104.876 10.464 103.327 10.176 101.778 10.176C98.4857 10.176 95.2904 11.52 92.9666 13.824C91.8046 15.072 90.8364 16.512 90.1586 18.048C89.3839 19.776 89.0935 21.696 89.0935 23.616C89.0935 25.536 89.3839 27.456 90.1586 29.184C90.8364 30.72 91.8046 32.16 92.9666 33.408C95.2904 35.712 98.3889 37.056 101.681 37.056C103.23 37.056 104.78 36.768 106.135 36.096C107.007 35.616 107.878 35.04 108.459 34.368V35.04C108.459 35.424 108.653 35.712 108.846 36C109.137 36.192 109.427 36.384 109.815 36.384H114.946C115.334 36.384 115.624 36.192 115.915 36C116.205 35.712 116.302 35.424 116.302 35.04V12.288C116.302 11.904 116.205 11.616 115.915 11.328C115.721 10.944 115.431 10.848 115.043 10.848ZM108.072 25.824C107.781 26.496 107.394 27.168 106.91 27.744C106.426 28.224 105.748 28.704 105.07 29.088C103.618 29.76 101.972 29.76 100.519 29.088C99.8413 28.8 99.1635 28.32 98.6794 27.744C98.1952 27.168 97.7111 26.496 97.5175 25.824C96.9365 24.288 96.9365 22.656 97.5175 21.12C97.8079 20.448 98.1952 19.776 98.6794 19.2C99.1635 18.624 99.8413 18.24 100.519 17.856C101.972 17.184 103.618 17.184 105.07 17.856C105.748 18.144 106.329 18.624 106.91 19.104C107.394 19.68 107.781 20.256 108.072 21.024C108.749 22.656 108.749 24.384 108.072 25.824ZM166.071 22.848C165.297 22.176 164.522 21.696 163.554 21.312C162.586 20.928 161.617 20.64 160.552 20.448L156.679 19.68C155.711 19.488 154.936 19.2 154.549 18.912C154.258 18.72 154.065 18.336 154.065 17.952C154.065 17.568 154.258 17.184 154.839 16.896C155.517 16.512 156.292 16.32 156.97 16.416C157.938 16.416 159.003 16.608 159.874 16.992C160.746 17.376 161.617 17.856 162.392 18.336C163.554 19.008 164.522 18.912 165.2 18.144L167.04 16.032C167.427 15.648 167.621 15.168 167.621 14.688C167.621 14.208 167.33 13.632 166.943 13.344C166.168 12.672 164.909 11.904 163.167 11.232C161.52 10.56 159.39 10.176 156.873 10.176C155.324 10.176 153.871 10.368 152.419 10.848C151.16 11.232 149.998 11.808 149.03 12.576C148.061 13.248 147.384 14.208 146.803 15.264C146.319 16.32 146.028 17.376 146.028 18.528C146.028 20.64 146.706 22.368 147.965 23.616C149.223 24.864 150.869 25.728 153 26.112L157.066 26.976C157.938 27.168 158.809 27.36 159.681 27.744C160.165 27.936 160.455 28.32 160.455 28.896C160.455 29.376 160.262 29.76 159.681 30.144C159.197 30.528 158.325 30.72 157.26 30.72C156.195 30.72 155.033 30.528 154.065 30.048C153.096 29.568 152.225 28.992 151.45 28.32C151.063 28.032 150.676 27.84 150.288 27.648C149.804 27.552 149.223 27.648 148.642 28.128L146.415 29.856C145.834 30.336 145.447 31.104 145.641 31.776C145.738 32.544 146.415 33.216 147.48 34.08C150.288 36 153.677 36.96 157.066 36.864C158.616 36.864 160.262 36.672 161.714 36.192C163.07 35.808 164.232 35.232 165.297 34.368C166.265 33.6 167.136 32.64 167.621 31.584C168.202 30.528 168.395 29.376 168.395 28.128C168.395 27.072 168.202 26.016 167.717 24.96C167.33 24.288 166.749 23.52 166.071 22.848ZM188.342 28.992C188.148 28.608 187.664 28.32 187.18 28.224C186.696 28.224 186.211 28.416 185.824 28.608C185.243 28.992 184.469 29.28 183.694 29.28C183.5 29.28 183.21 29.28 182.919 29.184C182.629 29.184 182.435 28.992 182.242 28.8C182.048 28.608 181.854 28.32 181.661 28.032C181.467 27.648 181.37 27.168 181.467 26.688V17.472H188.148C188.535 17.472 188.923 17.28 189.213 16.992C189.504 16.704 189.697 16.416 189.697 16.032V12.096C189.697 11.712 189.504 11.328 189.213 11.136C188.923 10.848 188.632 10.752 188.245 10.752H181.564V4.512C181.564 4.128 181.467 3.744 181.176 3.552C180.886 3.264 180.596 3.168 180.208 3.168H175.076C174.689 3.168 174.302 3.264 174.108 3.552C173.818 3.84 173.721 4.224 173.721 4.512V10.848H170.816C170.429 10.848 170.041 11.04 169.848 11.328C169.557 11.616 169.46 11.904 169.46 12.288V16.224C169.46 16.608 169.557 16.896 169.848 17.184C170.041 17.472 170.429 17.664 170.816 17.664H173.721V28.608C173.721 29.952 173.914 31.2 174.495 32.352C174.979 33.312 175.657 34.176 176.432 34.848C177.207 35.52 178.175 36 179.24 36.288C180.305 36.576 181.37 36.768 182.435 36.768C183.888 36.768 185.243 36.576 186.599 36.096C187.858 35.712 189.02 34.944 189.891 34.08C190.472 33.504 190.569 32.544 190.085 31.872L188.342 28.992ZM216.422 10.848H211.29C210.903 10.848 210.612 11.04 210.322 11.232C210.031 11.52 209.934 11.904 209.934 12.288V12.864C209.256 12.096 208.482 11.52 207.61 11.136C206.255 10.464 204.706 10.176 203.156 10.176C199.864 10.176 196.766 11.52 194.442 13.824C193.28 15.072 192.312 16.512 191.634 18.048C190.859 19.776 190.569 21.696 190.569 23.52C190.569 25.44 190.859 27.264 191.634 29.088C192.312 30.624 193.28 32.064 194.442 33.312C196.766 35.616 199.864 36.96 203.156 36.96C204.706 36.96 206.255 36.672 207.61 36C208.482 35.52 209.353 34.944 209.934 34.272V34.944C209.934 35.328 210.031 35.616 210.322 35.904C210.612 36.192 210.903 36.288 211.29 36.288H216.422C217.196 36.288 217.777 35.712 217.777 34.944V12.288C217.777 11.904 217.68 11.616 217.39 11.328C217.099 10.944 216.809 10.848 216.422 10.848ZM209.45 25.824C209.16 26.496 208.772 27.168 208.288 27.744C207.707 28.224 207.126 28.704 206.448 29.088C205.771 29.376 204.899 29.568 204.125 29.568C203.35 29.568 202.575 29.376 201.898 29.088C201.22 28.8 200.542 28.32 200.058 27.744C199.574 27.168 199.09 26.496 198.896 25.824C198.315 24.288 198.315 22.656 198.896 21.12C199.186 20.448 199.574 19.776 200.058 19.2C200.639 18.624 201.22 18.24 201.898 17.856C202.575 17.568 203.35 17.376 204.125 17.376C204.899 17.376 205.674 17.568 206.448 17.856C207.126 18.144 207.707 18.624 208.288 19.104C208.772 19.68 209.256 20.256 209.45 21.024C210.128 22.656 210.128 24.384 209.45 25.824ZM244.502 28.608L241.597 26.4C241.016 25.92 240.532 25.824 240.048 26.016C239.66 26.208 239.273 26.496 238.983 26.784C238.305 27.552 237.627 28.224 236.755 28.8C235.884 29.28 234.916 29.568 233.851 29.472C232.689 29.472 231.624 29.184 230.655 28.512C229.687 27.84 229.009 26.88 228.622 25.824C228.331 25.056 228.235 24.288 228.235 23.52C228.235 22.752 228.331 21.888 228.622 21.12C228.912 20.448 229.3 19.776 229.784 19.2C230.365 18.624 230.946 18.24 231.624 17.952C232.301 17.664 233.173 17.472 233.947 17.472C234.916 17.472 235.981 17.664 236.755 18.144C237.627 18.72 238.305 19.392 238.983 20.16C239.273 20.448 239.66 20.736 240.048 20.928C240.532 21.12 241.016 21.024 241.597 20.544L244.502 18.336C244.889 18.048 245.179 17.76 245.276 17.376C245.47 16.896 245.373 16.416 245.179 16.032C244.018 14.304 242.468 12.864 240.629 11.808C238.692 10.752 236.368 10.176 233.754 10.176C231.914 10.176 230.074 10.56 228.428 11.232C226.782 11.904 225.33 12.864 224.071 14.112C222.812 15.36 221.844 16.8 221.166 18.336C219.811 21.696 219.811 25.536 221.166 28.896C221.844 30.528 222.812 31.968 224.071 33.12C226.685 35.616 230.074 36.96 233.754 36.96C236.368 36.96 238.692 36.384 240.629 35.328C242.468 34.272 244.018 32.832 245.179 31.104C245.47 30.72 245.47 30.24 245.276 29.76C245.083 29.28 244.792 28.896 244.502 28.608ZM271.71 33.888L263.674 22.08L270.548 13.056C270.839 12.672 270.936 12.096 270.839 11.616C270.742 11.232 270.355 10.848 269.58 10.848H264.158C263.867 10.848 263.577 10.944 263.286 11.04C262.899 11.232 262.705 11.424 262.512 11.808L256.992 19.488H255.637V1.344C255.637 0.96 255.54 0.672 255.25 0.384C254.959 0.096 254.669 0 254.281 0H249.149C248.762 0 248.472 0.096 248.181 0.384C247.891 0.672 247.794 0.96 247.794 1.344V34.752C247.794 35.136 247.987 35.52 248.181 35.712C248.472 36 248.762 36.096 249.149 36.096H254.281C254.669 36.096 254.959 35.904 255.25 35.712C255.54 35.424 255.637 35.136 255.637 34.752V25.92H257.089L263.093 35.136C263.48 35.808 264.158 36.192 264.835 36.192H270.548C271.42 36.192 271.807 35.808 271.904 35.424C272.098 34.944 272.001 34.368 271.71 33.888ZM144.092 10.848H138.379C137.991 10.848 137.507 10.944 137.217 11.328C136.926 11.616 136.733 11.904 136.733 12.288L132.472 27.84H131.407L126.856 12.192C126.759 11.904 126.663 11.52 126.372 11.232C126.082 10.944 125.694 10.752 125.307 10.752H119.4C118.626 10.752 118.142 11.04 117.948 11.52C117.754 12 117.754 12.48 117.948 12.864L125.21 34.848C125.307 35.136 125.501 35.52 125.791 35.712C126.082 36 126.469 36.096 126.856 36.096H129.955L129.664 36.768L128.986 38.784C128.793 39.36 128.405 39.936 127.824 40.416C127.34 40.8 126.759 40.992 126.082 40.992C125.597 40.992 125.016 40.896 124.532 40.704C124.048 40.512 123.564 40.224 123.177 39.936C122.789 39.648 122.305 39.552 121.918 39.552H121.821C121.24 39.552 120.756 39.84 120.562 40.32L118.723 43.008C117.948 44.16 118.432 44.928 118.916 45.312C119.885 46.176 121.047 46.848 122.305 47.328C123.661 47.808 125.113 48 126.663 48C129.277 48 131.504 47.328 133.15 45.888C134.893 44.352 136.152 42.336 136.829 40.128L145.253 12.96C145.447 12.48 145.447 12 145.253 11.52C145.253 11.136 144.866 10.848 144.092 10.848Z" fill="#FDFDFD"/>
</g>
<defs>
<clipPath id="clip0_665_1595">
<rect width="271.698" height="48" fill="white" transform="translate(0.30188)"/>
</clipPath>
</defs>
</svg>
